<?xml version="1.0" encoding="UTF-8"?> <svg xmlns="http://www.w3.org/2000/svg" xmlns:xlink="http://www.w3.org/1999/xlink" version="1.1" id="Layer_1" x="0px" y="0px" width="61px" height="61px" viewBox="0 0 61 61" xml:space="preserve"> <g id="Shape_1_copy_1_"> <g id="Shape_1_copy"> <g> <path fill="#E58036" d="M30.5,1.121C14.274,1.121,1.122,14.275,1.122,30.5S14.274,59.879,30.5,59.879S59.878,46.726,59.878,30.5 S46.726,1.121,30.5,1.121z M30.5,57.735c-15.042,0-27.236-12.192-27.236-27.234S15.458,3.263,30.5,3.263 s27.235,12.194,27.235,27.236S45.542,57.735,30.5,57.735z"></path> </g> </g> </g> <g> <path fill="#FFFFFF" d="M43.77,15.054h3.533v28.063H43.77V15.054z M36.73,16.069l-0.489,0.151c-0.613,0.193-1.335-0.076-1.582-0.59 c-0.119-0.247-0.124-0.522-0.015-0.773c0.124-0.29,0.394-0.517,0.736-0.623l5.518-1.72l0.671,4.919 c0.036,0.249-0.031,0.506-0.197,0.719c-0.202,0.258-0.529,0.428-0.896,0.463c-0.042,0.004-0.092,0.006-0.141,0.006 c-0.623,0-1.154-0.396-1.232-0.924l-0.087-0.744c-6.377,8.832-21.067,18.298-21.704,18.707c-0.216,0.139-0.475,0.213-0.748,0.213 c-0.369,0-0.717-0.138-0.954-0.375c-0.216-0.219-0.316-0.497-0.285-0.783c0.033-0.298,0.211-0.571,0.489-0.749 C15.965,33.87,30.513,24.466,36.73,16.069L36.73,16.069z M40.913,21.288v21.828h-3.537V21.288H40.913z M34.729,27.773v15.343 h-3.533V27.773H34.729z M28.338,34.512v8.603h-3.537v-8.603H28.338z M21.579,37.882v5.234h-3.536v-5.234H21.579z M48.405,46.485 H12.595v-2.626h35.811V46.485z"></path> </g> </svg> 