<?xml version="1.0" encoding="UTF-8"?> <svg xmlns="http://www.w3.org/2000/svg" xmlns:xlink="http://www.w3.org/1999/xlink" version="1.1" id="Layer_1" x="0px" y="0px" width="61px" height="61px" viewBox="0 0 61 61" xml:space="preserve"> <g id="Shape_1_copy_1_"> <g id="Shape_1_copy"> <g> <path fill="#E58036" d="M30.5,1.121C14.274,1.121,1.122,14.275,1.122,30.5S14.274,59.879,30.5,59.879S59.878,46.726,59.878,30.5 S46.726,1.121,30.5,1.121z M30.5,57.735c-15.042,0-27.236-12.192-27.236-27.234S15.458,3.263,30.5,3.263 s27.235,12.194,27.235,27.236S45.542,57.735,30.5,57.735z"></path> </g> </g> </g> <g> <path fill="#FFFFFF" d="M39.732,23.336c-1.112-0.445-1.435-0.715-1.435-1.201c0-0.39,0.295-0.845,1.127-0.845 c0.738,0,1.302,0.29,1.306,0.292c0.062,0.031,0.127,0.049,0.191,0.049c0.161,0,0.305-0.098,0.364-0.248l0.202-0.518 c0.069-0.188-0.036-0.352-0.173-0.41c-0.453-0.197-1.338-0.351-1.348-0.352c-0.014-0.002-0.063-0.013-0.063-0.07l-0.003-0.749 c0-0.227-0.189-0.409-0.421-0.409h-0.361c-0.231,0-0.42,0.183-0.42,0.409l0.002,0.787c0,0.061-0.068,0.088-0.091,0.093 c-1.117,0.267-1.816,1.084-1.816,2.116c0,1.287,1.064,1.869,2.214,2.306c0.918,0.359,1.292,0.726,1.292,1.262 c0,0.584-0.53,0.991-1.29,0.991c-0.65,0-1.528-0.412-1.536-0.416c-0.057-0.025-0.116-0.039-0.177-0.039 c-0.166,0-0.313,0.101-0.37,0.257l-0.194,0.522c-0.069,0.195,0.036,0.354,0.172,0.425c0.539,0.28,1.583,0.445,1.63,0.453 c0.013,0.001,0.075,0.023,0.075,0.082v0.785c0,0.226,0.188,0.409,0.421,0.409h0.375c0.231,0,0.42-0.184,0.42-0.409v-0.825 c0-0.078,0.058-0.085,0.068-0.087c1.189-0.268,1.923-1.14,1.923-2.232C41.817,24.64,41.193,23.912,39.732,23.336L39.732,23.336z"></path> <g> <g> <path fill="#FFFFFF" d="M39.264,14.257c-5.433,0-9.837,4.405-9.837,9.839c0,5.432,4.405,9.84,9.837,9.84 c5.434,0,9.84-4.407,9.84-9.84C49.102,18.661,44.697,14.257,39.264,14.257L39.264,14.257z M39.264,31.654 c-4.175,0-7.558-3.386-7.558-7.56c0-4.175,3.383-7.559,7.558-7.559c4.176,0,7.559,3.384,7.559,7.559 C46.822,28.269,43.439,31.654,39.264,31.654L39.264,31.654z"></path> </g> <g> <path fill="#FFFFFF" d="M47.104,38.701c-2.093,1.154-4.969,2.223-7.84,2.672c-2.552,0.4-7.355-0.563-7.355-1.706 c0-0.432,4.212,1.066,6.762,0.385c1.953-0.52,1.676-2.349,0.611-2.589c-1.055-0.241-7.246-2.508-9.891-2.587 c-1.246-0.036-4.321,0.434-5.809,0.678c-0.51,0.081-0.83,0.072-0.86,0.561c-0.148,2.268-0.441,6.903-0.599,9.327 c-0.003,0.05,0.068,0.737,0.635,0.252c0.623-0.53,1.494-1.117,2.299-0.932c1.265,0.286,12.211,2.291,13.72,1.94 c2.158-0.504,8.272-4.126,9.444-5.252C50.038,39.704,48.625,37.861,47.104,38.701L47.104,38.701z"></path> </g> <g> <path fill="#FFFFFF" d="M19.701,35.463l-5.732-0.283c-0.443-0.021-0.896,0.313-1.005,0.742l-1.042,9.463 c-0.111,0.43,0.163,0.795,0.605,0.813l6.354-0.002c0.442,0.02,0.833-0.331,0.867-0.77l0.697-9.12 C20.478,35.867,20.144,35.484,19.701,35.463L19.701,35.463z M16.326,44.942c-0.876,0-1.585-0.708-1.585-1.586 c0-0.876,0.71-1.584,1.585-1.584c0.875,0,1.585,0.708,1.585,1.584C17.911,44.234,17.202,44.942,16.326,44.942L16.326,44.942z"></path> </g> </g> </g> </svg> 