<?xml version="1.0" encoding="UTF-8"?> <svg xmlns="http://www.w3.org/2000/svg" xmlns:xlink="http://www.w3.org/1999/xlink" version="1.1" id="Layer_1" x="0px" y="0px" viewBox="0 0 250 90" style="enable-background:new 0 0 250 90;" xml:space="preserve"> <style type="text/css"> .st0{fill:#343434;} .st1{fill:#773E71;} .st2{fill:url(#SVGID_2_);} .st3{fill:url(#SVGID_4_);} .st4{fill:url(#SVGID_6_);} .st5{fill:url(#SVGID_8_);} .st6{fill:url(#SVGID_10_);} .st7{fill:url(#SVGID_12_);} .st8{opacity:0.5;fill:url(#SVGID_14_);enable-background:new ;} .st9{opacity:0.2;fill:url(#SVGID_15_);enable-background:new ;} .st10{display:none;opacity:0.3;fill:url(#SVGID_16_);enable-background:new ;} .st11{display:none;opacity:0.3;fill:url(#SVGID_17_);enable-background:new ;} .st12{display:none;fill:url(#SVGID_18_);} .st13{fill:url(#SVGID_19_);} .st14{fill:#FFFFFF;} .st15{fill:#343434;stroke:#343434;stroke-miterlimit:10;} </style> <g> <g> <g> <g> <g> <path id="SVGID_1_" class="st0" d="M116.7,37.4c0,5.1-3.1,8.2-7,8.2c-4.2,0-7-3.4-7-8c0-4,2.3-8.1,7.2-8.1 C113.8,29.4,116.7,32.6,116.7,37.4L116.7,37.4z M106.3,37c0,4.1,1.2,7.6,3.8,7.6c1.9,0,3.1-2.3,3.1-6.6c0-4.7-1.3-7.6-3.6-7.6 C107.5,30.4,106.3,33.2,106.3,37L106.3,37z"></path> </g> </g> <g> <g> <path id="SVGID_3_" class="st0" d="M115.1,51.8c-0.3-1.2-0.5-1.9-0.9-2.3c-0.4-0.4-1-0.5-1.9-0.5h-1.1v11.4 c0,2,0.2,2.2,2.1,2.3v0.8h-7.2v-0.8c1.8-0.1,2-0.4,2-2.3V48.9h-0.8c-1.3,0-1.8,0.2-2.2,0.6c-0.4,0.4-0.6,1.2-0.8,2.3h-0.8 c0.1-1.6,0.2-3.3,0.3-4.5h0.6c0.4,0.5,0.6,0.6,1.3,0.6h8.3c0.6,0,0.9-0.1,1.2-0.6h0.6c0,1,0.1,2.9,0.2,4.4L115.1,51.8 L115.1,51.8z"></path> </g> </g> <g> <g> <path id="SVGID_5_" class="st0" d="M83.6,29c6.3,0,10.9,1.3,14,4.6c2.3,2.5,4.1,6.3,4.1,11.2c0,6.6-2.2,11.1-5.8,14.1 c-3.6,3-8.4,4.4-14.4,4.4h-12v-1.8c3.8-0.3,4.3-0.8,4.3-5.3V36c0-4.5-0.4-4.9-4-5.3V29L83.6,29L83.6,29z M80.6,56.4 c0,3.6,0.8,4.8,3.5,4.8c5.3,0,9.9-5.1,9.9-15.4c0-5.4-1.3-9.4-3.4-11.7c-1.9-2.1-4.3-3-7.1-3c-1.3,0-2.1,0.3-2.5,0.5 c-0.4,0.3-0.5,1.1-0.5,2.7L80.6,56.4L80.6,56.4z"></path> </g> </g> <g> <g> <path id="SVGID_7_" class="st0" d="M147.4,54.3c-0.6,2.2-1.6,5.8-2.4,7.5c-1.3,0.3-5,1.2-8.2,1.2c-11.9,0-16.5-8.6-16.5-16.5 c0-10.3,6.9-17.6,17.7-17.6c3.2,0,6.4,0.8,7.7,1.1c0.4,2.8,0.6,5.1,0.9,7.8l-1.7,0.4c-1.6-5.6-4.5-7.3-7.9-7.3 c-5.7,0-9.4,6.9-9.4,14.5c0,9.2,4.1,15.5,9.7,15.5c3.6,0,6.2-2.8,8.3-7.3L147.4,54.3L147.4,54.3z"></path> </g> </g> <g> <g> <path id="SVGID_9_" class="st0" d="M155.7,45c-4.2,0-7-3.4-7-8c0-4,2.3-8.1,7.2-8.1c3.8,0,6.8,3.2,6.8,7.9 C162.7,41.9,159.7,45,155.7,45L155.7,45z M155.6,29.8c-2,0-3.3,2.8-3.3,6.6c0,4.1,1.2,7.6,3.8,7.6c1.9,0,3.1-2.3,3.1-6.6 C159.2,32.8,157.9,29.8,155.6,29.8L155.6,29.8z M177.1,31.3c-0.1,0.8-0.2,2-0.2,4.1V45h-1.2l-8.6-11.7H167v5.3 c0,2,0.1,3.3,0.2,4c0.1,0.9,0.5,1.3,2.2,1.4v0.8h-5.5v-0.8c1.3-0.1,1.7-0.5,1.8-1.4c0.1-0.8,0.2-2,0.2-4v-5c0-1.6,0-2-0.4-2.5 c-0.4-0.6-0.9-0.8-1.9-0.9v-0.8h4.1l7.8,10.3h0.1v-4.2c0-2.1-0.1-3.3-0.2-4c-0.1-0.8-0.6-1.2-2.1-1.3v-0.8h5.4V30 C177.6,30,177.2,30.4,177.1,31.3L177.1,31.3z M192.9,31.3c-0.1,0.8-0.2,2-0.2,4.1V45h-1.2l-8.6-11.7h-0.1v5.3 c0,2,0.1,3.3,0.2,4c0.1,0.9,0.5,1.3,2.2,1.4v0.8h-5.5v-0.8c1.3-0.1,1.7-0.5,1.8-1.4c0.1-0.8,0.2-2,0.2-4v-5c0-1.6,0-2-0.4-2.5 c-0.4-0.6-0.9-0.8-1.9-0.9v-0.8h4.1l7.8,10.3h0.1v-4.2c0-2.1-0.1-3.3-0.2-4c-0.1-0.8-0.6-1.2-2.1-1.3v-0.8h5.4V30 C193.4,30,193,30.4,192.9,31.3L192.9,31.3z M201.1,43.5c0.4,0.2,1,0.2,1.9,0.2c1.3,0,2-0.2,2.5-0.8c0.4-0.5,0.8-1.2,1.2-2.2 l0.8,0.2c-0.1,0.9-0.6,3.1-0.8,3.7h-11.2v-0.8c1.8-0.2,2-0.3,2-2.3v-9.4c0-2-0.2-2.1-1.7-2.2v-0.8h10.4c0,0.4,0.1,2.1,0.2,3.4 l-0.8,0.1c-0.2-0.8-0.5-1.5-0.8-1.9c-0.4-0.4-1-0.7-2.5-0.7h-0.8c-0.8,0-0.8,0.1-0.8,0.8V36h1.4c1.9,0,2.1-0.1,2.5-1.8h0.8V39 h-0.8c-0.4-1.7-0.5-1.8-2.5-1.8h-1.4v4.4C200.7,42.7,200.7,43.3,201.1,43.5L201.1,43.5z M216.6,29.8c-2.7,0-4.4,3.3-4.4,6.9 c0,4.3,2,7.3,4.6,7.3c1.7,0,2.9-1.3,3.9-3.4l0.8,0.3c-0.3,1.1-0.8,2.8-1.1,3.6c-0.6,0.1-2.4,0.6-3.9,0.6 c-5.7,0-7.8-4.1-7.8-7.8c0-4.9,3.3-8.3,8.4-8.3c1.5,0,3,0.4,3.7,0.5c0.2,1.3,0.3,2.4,0.4,3.7l-0.8,0.2 C219.6,30.7,218.2,29.8,216.6,29.8L216.6,29.8z M234,33.1c-0.3-1.2-0.5-1.9-0.9-2.3c-0.4-0.4-1-0.5-1.9-0.5h-1.1v11.4 c0,2,0.2,2.2,2.1,2.3v0.8h-7.2v-0.8c1.8-0.1,2-0.4,2-2.3V30.2h-0.8c-1.3,0-1.8,0.2-2.2,0.6c-0.4,0.4-0.6,1.2-0.8,2.3h-0.8 c0.1-1.6,0.2-3.3,0.3-4.5h0.6c0.4,0.5,0.6,0.6,1.3,0.6h8.3c0.6,0,0.9-0.1,1.2-0.6h0.6c0,1,0.1,2.9,0.2,4.4L234,33.1L234,33.1z"></path> </g> </g> <g> <g> <path id="SVGID_11_" class="st1" d="M157.9,53.1c-0.3,1.4-0.9,4.8-1.8,10.4h-0.6c-0.6-2.9-1.2-5.6-1.7-8.6h0 c-0.5,2.9-1.1,5.8-1.6,8.6h-0.5c-0.6-3.5-1.2-6.9-1.7-10.5c-0.3-1.6-0.4-1.8-1.1-1.9v-0.7h3.3v0.7c-0.8,0.2-0.8,0.4-0.7,1.4 c0.3,2.3,0.7,4.6,1,6.7h0c0.5-2.8,1-5.8,1.5-8.7h0.6c0.6,2.9,1.2,5.8,1.7,8.8h0c0.4-2.3,0.8-5.3,1-6.6c0.1-1.2,0.1-1.6-0.8-1.7 v-0.7h2.6V51C158.4,51.3,158.3,51.5,157.9,53.1L157.9,53.1z M162.4,62.3c0.2,0.2,0.5,0.2,0.9,0.2c0.6,0,1-0.1,1.2-0.6 c0.2-0.4,0.4-1,0.6-1.8l0.4,0.2c-0.1,0.8-0.3,2.5-0.4,3.1h-5.5v-0.7c0.9-0.1,1-0.2,1-1.9V53c0-1.6-0.1-1.7-0.8-1.9v-0.7h5.1 c0,0.4,0.1,1.7,0.1,2.9l-0.4,0.1c-0.1-0.7-0.2-1.2-0.4-1.6c-0.2-0.4-0.5-0.5-1.2-0.5h-0.4c-0.4,0-0.4,0-0.4,0.7v4.2h0.7 c0.9,0,1.1-0.1,1.2-1.5h0.4v3.9h-0.4c-0.2-1.4-0.3-1.5-1.2-1.5h-0.7v3.6C162.2,61.7,162.2,62.1,162.4,62.3L162.4,62.3z M170.2,56.3L170.2,56.3c1.2,0.3,2.1,1.3,2.1,3.2c0,1.4-0.4,2.4-1,3c-0.6,0.6-1.5,0.8-2.4,0.8h-2.8v-0.7c0.8-0.1,0.9-0.3,0.9-2 v-7.6c0-1.6-0.1-1.8-0.9-2v-0.7h3.2c0.9,0,1.4,0.2,1.9,0.7c0.4,0.4,0.7,1.2,0.7,2.2C171.9,55.2,171.1,56,170.2,56.3L170.2,56.3 z M168.6,60.7c0,1.4,0.2,1.8,0.8,1.8c0.6,0,1.3-0.8,1.3-2.9c0-1.8-0.6-2.8-1.8-2.8h-0.2V60.7L168.6,60.7z M169.2,51.2 c-0.2,0-0.4,0.1-0.4,0.2c-0.1,0.1-0.1,0.4-0.1,0.9v3.7h0.3c1,0,1.5-0.7,1.5-2.4C170.4,51.9,169.8,51.2,169.2,51.2L169.2,51.2z M178.3,50.9c-0.6,0-1,0.8-1,2s0.4,1.8,1.3,2.6c1.2,1,2,2.1,2,4.1c0,2.2-1.1,3.9-2.7,3.9c-0.4,0-0.8-0.1-1.1-0.2 c-0.3-0.2-0.5-0.3-0.7-0.4c-0.1-0.5-0.3-2-0.4-3.2l0.4-0.2c0.2,1.2,0.8,3.3,1.9,3.3c0.7,0,1.1-0.8,1.1-2c0-1.2-0.4-1.9-1.3-2.7 c-1.1-1-2-2.1-2-4.1c0-2.1,0.9-3.7,2.5-3.7c0.6,0,1.2,0.3,1.5,0.5c0,0.8,0.1,1.6,0.2,2.8l-0.4,0.1 C179.5,52.4,179.2,50.9,178.3,50.9L178.3,50.9z M184.9,63.5c-2.1,0-3.4-2.9-3.4-6.6c0-3.3,1.2-6.7,3.6-6.7 c1.9,0,3.3,2.6,3.3,6.6C188.3,61,186.8,63.5,184.9,63.5L184.9,63.5z M184.8,51c-1,0-1.6,2.4-1.6,5.5c0,3.4,0.6,6.3,1.9,6.3 c0.9,0,1.6-1.9,1.6-5.5C186.6,53.4,186,51,184.8,51L184.8,51z M194.4,63.3h-5.3v-0.7c0.9-0.1,1-0.3,1-1.9v-7.7 c0-1.7-0.1-1.8-0.9-2v-0.7h3.3v0.7c-0.8,0.1-0.9,0.3-0.9,2v7.8c0,0.9,0,1.3,0.3,1.5c0.2,0.1,0.5,0.2,0.8,0.2 c0.4,0,0.8-0.1,1.1-0.6c0.2-0.4,0.4-1,0.6-2l0.4,0.2C194.6,60.9,194.5,62.8,194.4,63.3L194.4,63.3z M201.4,52.2 c0,0.6-0.1,1.3-0.1,2.9v2.1c0,2-0.1,3.7-0.8,4.9c-0.5,0.9-1.2,1.4-2,1.4c-0.7,0-1.4-0.3-1.9-1c-0.6-0.8-0.8-2.2-0.8-4.5v-4.9 c0-1.7-0.1-1.9-0.8-2v-0.7h3.2v0.7c-0.8,0.1-0.8,0.3-0.8,2V58c0,2.8,0.5,4.3,1.7,4.3s1.7-1.5,1.7-4.8v-2.4c0-1.6,0-2.4-0.1-2.9 c0-0.7-0.3-1-1.1-1.1v-0.7h2.7v0.7C201.7,51.2,201.5,51.5,201.4,52.2L201.4,52.2z M208.7,53.6c-0.1-1-0.3-1.6-0.4-2 c-0.2-0.4-0.5-0.4-0.9-0.4h-0.5v9.5c0,1.6,0.1,1.8,1,1.9v0.7h-3.5v-0.7c0.9-0.1,1-0.3,1-1.9v-9.5h-0.4c-0.7,0-0.9,0.1-1.1,0.5 c-0.2,0.4-0.3,1-0.4,1.9h-0.4c0-1.3,0.1-2.7,0.1-3.7h0.3c0.2,0.4,0.3,0.5,0.6,0.5h4.1c0.3,0,0.4-0.1,0.6-0.5h0.3 c0,0.8,0,2.4,0.1,3.7L208.7,53.6L208.7,53.6z M213.1,62.7v0.7h-3.3v-0.7c0.8-0.1,0.9-0.3,0.9-1.9v-7.7c0-1.6-0.1-1.8-0.9-2 v-0.7h3.3v0.7c-0.8,0.1-0.9,0.3-0.9,2v7.7C212.2,62.3,212.3,62.5,213.1,62.7L213.1,62.7z M217.4,63.5c-2.1,0-3.4-2.9-3.4-6.6 c0-3.3,1.2-6.7,3.6-6.7c1.9,0,3.3,2.6,3.3,6.6C220.9,61,219.4,63.5,217.4,63.5L217.4,63.5z M217.4,51c-1,0-1.6,2.4-1.6,5.5 c0,3.4,0.6,6.3,1.9,6.3c0.9,0,1.6-1.9,1.6-5.5C219.2,53.4,218.5,51,217.4,51L217.4,51z M228.1,52.1c0,0.6-0.1,1.6-0.1,3.3v8 h-0.6l-4.2-9.7h0v4.4c0,1.7,0,2.7,0.1,3.3c0,0.8,0.3,1.1,1.1,1.2v0.6h-2.7v-0.6c0.6,0,0.8-0.4,0.9-1.2c0-0.6,0.1-1.6,0.1-3.3 v-4.2c0-1.3,0-1.7-0.2-2.1c-0.2-0.5-0.4-0.7-0.9-0.8v-0.6h2.1l3.9,8.6h0v-3.5c0-1.7,0-2.8-0.1-3.3c0-0.7-0.3-1-1-1.1v-0.6h2.7 V51C228.4,51.1,228.2,51.4,228.1,52.1L228.1,52.1z M232.2,50.9c-0.6,0-1,0.8-1,2s0.4,1.8,1.3,2.6c1.2,1,2,2.1,2,4.1 c0,2.2-1.1,3.9-2.7,3.9c-0.4,0-0.8-0.1-1.1-0.2c-0.3-0.2-0.5-0.3-0.7-0.4c-0.1-0.5-0.3-2-0.3-3.2l0.4-0.2 c0.2,1.2,0.8,3.3,1.9,3.3c0.7,0,1.1-0.8,1.1-2c0-1.2-0.4-1.9-1.3-2.7c-1.1-1-2-2.1-2-4.1c0-2.1,0.9-3.7,2.5-3.7 c0.6,0,1.2,0.3,1.5,0.5c0,0.8,0.1,1.6,0.2,2.8l-0.4,0.1C233.5,52.4,233.1,50.9,232.2,50.9L232.2,50.9z"></path> </g> </g> <g> <g> <polygon id="SVGID_13_" class="st0" points="148.9,47.3 234.4,47.3 234.4,48.1 148.9,48.1 "></polygon> </g> </g> </g> <g> <linearGradient id="SVGID_2_" gradientUnits="userSpaceOnUse" x1="17.1034" y1="-29.868" x2="37.0801" y2="30.8455" gradientTransform="matrix(1 0 0 1 0 60.93)"> <stop offset="0.1697" style="stop-color:#CC7FBE"></stop> <stop offset="1" style="stop-color:#87357E"></stop> </linearGradient> <path class="st2" d="M23.5,53.7C22.3,53.8,21.1,54,20,54c-0.7,7.6,0.5,14.9,3.1,21.1c2.2,0.5,4.5,0.8,6.9,0.8 c3.2,0,6.2-0.5,9-1.4c-0.5-9.8-7.2-20-8.6-22.1C28.2,52.9,25.9,53.4,23.5,53.7z"></path> <linearGradient id="SVGID_4_" gradientUnits="userSpaceOnUse" x1="31.7235" y1="-9.8561" x2="71.0716" y2="-2.4887" gradientTransform="matrix(1 0 0 1 0 60.93)"> <stop offset="1.210000e-02" style="stop-color:#E53898"></stop> <stop offset="1" style="stop-color:#C01E62"></stop> </linearGradient> <path class="st3" d="M59.9,45.9c0-4.3-0.9-8.4-2.5-12.1c-5,8.5-14.8,15.5-27,18.6c1.5,2.1,8.2,12.3,8.6,22.1 C51.1,70.6,59.9,59.3,59.9,45.9z"></path> <linearGradient id="SVGID_6_" gradientUnits="userSpaceOnUse" x1="20.9201" y1="-5.1604" x2="7.9277" y2="5.6204" gradientTransform="matrix(1 0 0 1 0 60.93)"> <stop offset="0.1697" style="stop-color:#2AC7F2"></stop> <stop offset="1" style="stop-color:#16ABE3"></stop> </linearGradient> <path class="st4" d="M20,54c-7,0.4-13.6-0.4-19.4-2.4C2.8,63.2,11.6,72.4,23,75.1C20.5,68.9,19.3,61.6,20,54z"></path> <linearGradient id="SVGID_8_" gradientUnits="userSpaceOnUse" x1="20.8155" y1="-13.3208" x2="-3.2901" y2="-20.9245" gradientTransform="matrix(1 0 0 1 0 60.93)"> <stop offset="0.1697" style="stop-color:#CADA7D"></stop> <stop offset="1" style="stop-color:#91AD3E"></stop> </linearGradient> <path class="st5" d="M3.5,31.8C1.3,36,0,40.8,0,45.9c0,2,0.2,3.8,0.5,5.7C6.4,53.5,13,54.4,20,54c0.1-1.2,0.3-2.5,0.5-3.7 c0.4-2.5,1-5,1.8-7.4C17.3,37,6.9,33,3.5,31.8z"></path> <linearGradient id="SVGID_10_" gradientUnits="userSpaceOnUse" x1="29.2738" y1="-20.0184" x2="20.0133" y2="-43.7915" gradientTransform="matrix(1 0 0 1 0 60.93)"> <stop offset="0.1697" style="stop-color:#FCF668"></stop> <stop offset="1" style="stop-color:#F3BE0F"></stop> </linearGradient> <path class="st6" d="M42.9,18.9C39,17,34.6,16,30,16C18.5,16,8.6,22.4,3.5,31.8C7,33.1,17.3,37,22.2,43 C26,31.5,33.8,22.7,42.9,18.9z"></path> <linearGradient id="SVGID_12_" gradientUnits="userSpaceOnUse" x1="27.4209" y1="-14.4018" x2="51.5658" y2="-35.9634" gradientTransform="matrix(1 0 0 1 0 60.93)"> <stop offset="0.1697" style="stop-color:#FDD16F"></stop> <stop offset="1" style="stop-color:#C5681D"></stop> </linearGradient> <path class="st7" d="M42.9,18.9c-11,4.5-20,16.4-22.5,31.4c-0.2,1.2-0.4,2.5-0.5,3.7c1.2-0.1,2.4-0.2,3.5-0.3 c15.3-1.9,28-9.8,33.8-19.9C54.5,27.3,49.3,22,42.9,18.9z"></path> <radialGradient id="SVGID_14_" cx="28.4415" cy="-15.2611" r="26.8367" gradientTransform="matrix(1 0 0 1 0 60.93)" gradientUnits="userSpaceOnUse"> <stop offset="0" style="stop-color:#FBE15C"></stop> <stop offset="0.9879" style="stop-color:#FFFFFF;stop-opacity:0"></stop> </radialGradient> <circle class="st8" cx="28.4" cy="45.7" r="26.8"></circle> <radialGradient id="SVGID_15_" cx="30.0018" cy="-14.9045" r="29.9126" gradientTransform="matrix(1 0 0 1 0 60.93)" gradientUnits="userSpaceOnUse"> <stop offset="0.6303" style="stop-color:#FFFFFF;stop-opacity:0"></stop> <stop offset="1" style="stop-color:#000000"></stop> </radialGradient> <circle class="st9" cx="30" cy="46" r="29.9"></circle> <linearGradient id="SVGID_16_" gradientUnits="userSpaceOnUse" x1="37.1573" y1="-8.2569" x2="14.4876" y2="-28.9416" gradientTransform="matrix(1 0 0 1 0 60.93)"> <stop offset="0" style="stop-color:#000000"></stop> <stop offset="1" style="stop-color:#FFFFFF;stop-opacity:0"></stop> </linearGradient> <path class="st10" d="M39.3,48.4c-3.4-0.1-15.6-0.5-24.3-0.6l4.1-17.5c1.1-0.2,2.3-0.4,3.5-0.4c9.2,0,16.7,7.5,16.7,16.7 C39.4,47.3,39.3,47.9,39.3,48.4L39.3,48.4z"></path> <linearGradient id="SVGID_17_" gradientUnits="userSpaceOnUse" x1="10.1395" y1="-38.8207" x2="35.2119" y2="-13.2782" gradientTransform="matrix(1 0 0 1 0 60.93)"> <stop offset="0" style="stop-color:#000000"></stop> <stop offset="1" style="stop-color:#FFFFFF;stop-opacity:0"></stop> </linearGradient> <path class="st11" d="M43.4,33.6c-3.1,0.8-9.8-4.2-12.5-3.8c-9.6,1.4-14.6,9.3-14.6,9.3l-1.1,9.1c-0.8,0-1.6,0-2.4,0 c-4.3,0-9.1,0.5-11.6,0.8c-0.1-0.9-0.1-1.9-0.1-2.9c0-16,12.9-28.9,28.8-28.9c5.5,0,10.6,1.5,14.9,4.1 C43.9,25.3,47.2,32.7,43.4,33.6L43.4,33.6z"></path> <linearGradient id="SVGID_18_" gradientUnits="userSpaceOnUse" x1="70.1248" y1="-26.3316" x2="39.395" y2="-23.8447" gradientTransform="matrix(1 0 0 1 0 60.93)"> <stop offset="0" style="stop-color:#000000"></stop> <stop offset="1" style="stop-color:#FFFFFF;stop-opacity:0"></stop> </linearGradient> <path class="st12" d="M58.7,49.6c-2.3-0.1-7-0.2-12.7-0.4V22.5c7.8,5.2,12.9,14,12.9,24C58.8,47.5,58.8,48.6,58.7,49.6L58.7,49.6 z"></path> <linearGradient id="SVGID_19_" gradientUnits="userSpaceOnUse" x1="26.6632" y1="-30.1905" x2="40.453" y2="-5.4314" gradientTransform="matrix(1 0 0 1 0 60.93)"> <stop offset="0" style="stop-color:#999999"></stop> <stop offset="1" style="stop-color:#FFFFFF"></stop> </linearGradient> <path class="st13" d="M42.1,18.5v12.1c-3.4-2.8-7.1-4.4-11.8-4.4c-10.9,0-19.7,8.8-19.7,19.7s8.8,19.7,19.7,19.7 c10.5,0,19.1-8.3,19.7-18.7h0V23.7c0,0-1.5-1.4-3.3-2.6C44.9,19.9,42.1,18.5,42.1,18.5z M30.4,57.8c-6.6,0-11.9-5.3-11.9-11.9 s5.3-11.9,11.9-11.9s11.9,5.3,11.9,11.9S36.9,57.8,30.4,57.8z"></path> <path class="st14" d="M42.8,18.8v11.8c-3.4-2.8-7.7-4.4-12.4-4.4c-10.9,0-19.7,8.8-19.7,19.7s8.8,19.7,19.7,19.7 c10.5,0,19.1-8.3,19.7-18.7h0V23.7c0,0-1.5-1.4-3.3-2.6C44.9,19.9,42.8,18.8,42.8,18.8z M30.4,58.5c-7,0-12.6-5.7-12.6-12.6 s5.6-12.6,12.6-12.6c7,0,12.6,5.7,12.6,12.7S37.3,58.5,30.4,58.5z"></path> </g> </g> <g> <path class="st15" d="M74.1,70c-0.2-0.8-0.6-1.6-1.6-1.6c-0.9,0-1.3,0.7-1.3,1.3c0,0.8,0.6,1.2,1.6,1.7c1,0.5,2.1,1.1,2.1,2.4 c0,1.3-1.1,2.3-2.8,2.3c-0.5,0-0.9-0.1-1.2-0.2s-0.5-0.2-0.6-0.3c-0.1-0.2-0.3-1.3-0.4-1.9l0.4-0.1c0.2,0.8,0.8,2,2.1,2 c0.9,0,1.4-0.5,1.4-1.4c0-0.8-0.7-1.3-1.6-1.8c-0.8-0.4-2-1-2-2.4c0-1.2,1-2.2,2.6-2.2c0.6,0,1.1,0.1,1.6,0.3 c0,0.4,0.1,0.9,0.2,1.7L74.1,70z"></path> <path class="st15" d="M87.2,75.9v-0.4c1-0.1,1.1-0.1,1.1-1.2v-4.7c0-1-0.1-1.1-1.1-1.2v-0.4h3.3v0.4c-1,0-1.1,0.1-1.1,1.2v4.7 c0,1,0.1,1.1,1.1,1.2v0.4L87.2,75.9L87.2,75.9z"></path> <path class="st15" d="M111.7,68.5c-0.7,0-1,0.2-1,0.7c0,0.4-0.1,0.9-0.1,2.1v4.8h-0.4l-5.4-6.2l0,0v2.9c0,1.1,0,1.7,0.1,2 c0,0.6,0.4,0.8,1.2,0.8V76h-2.9v-0.4c0.7,0,1-0.2,1.1-0.8c0-0.4,0.1-0.9,0.1-2.1v-2.6c0-0.9,0-0.9-0.3-1.2 c-0.3-0.3-0.5-0.4-1.1-0.4v-0.4h1.9l5.2,5.9h0v-2.8c0-1.1,0-1.6-0.1-2c0-0.6-0.4-0.7-1.2-0.8v-0.4h2.9V68.5z"></path> <path class="st15" d="M131.6,73.9c-0.2,0.6-0.5,1.5-0.7,1.9c-0.4,0.1-1.4,0.4-2.4,0.4c-3.2,0-4.6-2.1-4.6-4c0-2.5,2.1-4.2,4.9-4.2 c1.1,0,1.9,0.3,2.3,0.4c0.1,0.7,0.2,1.2,0.3,1.9l-0.4,0.1c-0.4-1.3-1.2-1.9-2.5-1.9c-2.1,0-3.2,1.7-3.2,3.5c0,2.3,1.4,3.8,3.3,3.8 c1.2,0,2-0.7,2.6-1.9L131.6,73.9z"></path> <path class="st15" d="M150.3,74c-0.1,0.4-0.3,1.6-0.4,2h-6v-0.4c1.1-0.1,1.2-0.2,1.2-1.2v-4.7c0-1.1-0.1-1.1-1.1-1.2v-0.4h5.6 c0,0.3,0,1.1,0.1,1.8l-0.4,0c-0.1-0.5-0.3-0.8-0.4-1c-0.2-0.3-0.5-0.4-1.4-0.4h-0.9c-0.4,0-0.4,0-0.4,0.4v2.7h1.1 c1.1,0,1.2-0.1,1.3-0.9h0.4v2.4h-0.4c-0.2-0.9-0.3-0.9-1.3-0.9h-1.1v2.2c0,0.6,0,0.8,0.3,1c0.2,0.1,0.7,0.1,1.2,0.1 c0.9,0,1.2-0.1,1.6-0.4c0.2-0.3,0.4-0.7,0.6-1.2L150.3,74z"></path> <path class="st15" d="M182.5,74.3c-0.2,0.5-0.3,1.1-0.4,1.6h-4.6v-0.3c0.7-0.7,1.4-1.3,2-2c0.8-0.8,1.5-1.8,1.5-2.9 c0-1-0.5-1.6-1.4-1.6c-0.8,0-1.3,0.7-1.7,1.1l-0.3-0.3l0.7-1c0.4-0.4,1-0.7,1.6-0.7c1.1,0,2.1,0.8,2.1,2.1c0,1-0.4,1.7-1.6,2.9 l-1.7,1.7h2.2c0.7,0,0.8,0,1.2-0.8L182.5,74.3z"></path> <path class="st15" d="M197.5,68.4c1.8,0,2.5,2,2.5,3.9c0,1.7-0.7,3.9-2.5,3.9s-2.5-2-2.5-3.8C195,70.5,195.7,68.4,197.5,68.4 L197.5,68.4z M197.5,68.8c-1.1,0-1.3,1.8-1.3,3.4s0.3,3.5,1.4,3.5s1.3-1.8,1.3-3.5C198.9,70.5,198.6,68.8,197.5,68.8L197.5,68.8z"></path> <path class="st15" d="M215,68.4c1.8,0,2.5,2,2.5,3.9c0,1.7-0.7,3.9-2.5,3.9s-2.5-2-2.5-3.8C212.5,70.5,213.2,68.4,215,68.4 L215,68.4z M215,68.8c-1.1,0-1.3,1.8-1.3,3.4s0.3,3.5,1.4,3.5s1.3-1.8,1.3-3.5C216.4,70.5,216.1,68.8,215,68.8L215,68.8z"></path> <path class="st15" d="M235.3,68.6c-1.2,2.4-2.3,4.9-3.5,7.3l-1,0.1l-0.1-0.1c1.3-2,2.7-4.5,3.7-6.5h-2.7c-0.8,0-0.9,0.1-1.2,0.9 h-0.4c0.1-0.7,0.2-1.3,0.3-1.8h4.7L235.3,68.6z"></path> </g> <g> <path class="st0" d="M242.6,13.8c4.1,0,7.4,3.3,7.4,7.4s-3.3,7.4-7.4,7.4c-4.1,0-7.4-3.4-7.4-7.4 C235.2,17.2,238.5,13.8,242.6,13.8z M242.6,15.4c-3.3,0-5.9,2.6-5.9,5.9c0,3.3,2.6,5.9,5.9,5.9c3.3,0,5.9-2.6,5.9-5.9 C248.5,17.9,245.9,15.4,242.6,15.4z"></path> <path class="st0" d="M239.8,17.5L239.8,17.5c1,0,2,0,2.9,0c0.5,0,1,0.1,1.5,0.3c0.7,0.3,1.1,0.9,1.2,1.7c0,0.4,0,0.8-0.1,1.2 c-0.2,0.5-0.5,0.8-0.9,1c-0.1,0-0.2,0.1-0.3,0.2c0.1,0.1,0.1,0.2,0.2,0.4c0.5,0.9,0.9,1.7,1.4,2.6c0,0,0,0.1,0,0.1 c0,0-0.1,0-0.1,0c-0.5,0-1,0-1.5,0c0,0-0.1,0-0.1-0.1c-0.4-0.9-0.9-1.7-1.3-2.6c0,0-0.1-0.1-0.1-0.1c-0.4,0-0.7,0-1.1,0 c0,0,0,0-0.1,0c0,0.9,0,1.9,0,2.8c-0.5,0-1,0-1.6,0C239.8,22.5,239.8,20,239.8,17.5z M241.4,21L241.4,21c0.5,0,0.9,0,1.4,0 c0.3,0,0.5-0.1,0.7-0.3c0.2-0.2,0.4-0.5,0.4-0.8c0-0.3,0-0.6-0.2-0.8c-0.2-0.3-0.5-0.4-0.8-0.4c-0.5,0-0.9,0-1.4,0h0 C241.4,19.5,241.4,20.3,241.4,21z"></path> </g> </g> </svg> 