<?xml version="1.0" encoding="UTF-8"?> <svg xmlns="http://www.w3.org/2000/svg" xmlns:xlink="http://www.w3.org/1999/xlink" version="1.1" id="Layer_1" x="0px" y="0px" width="61px" height="61px" viewBox="0 0 61 61" xml:space="preserve"> <g id="Shape_1_copy_1_"> <g id="Shape_1_copy"> <g> <path fill="#E58036" d="M30.5,1.121C14.274,1.121,1.122,14.275,1.122,30.5S14.274,59.879,30.5,59.879S59.878,46.726,59.878,30.5 S46.726,1.121,30.5,1.121z M30.5,57.735c-15.042,0-27.236-12.192-27.236-27.234S15.458,3.263,30.5,3.263 s27.235,12.194,27.235,27.236S45.542,57.735,30.5,57.735z"></path> </g> </g> </g> <g> <path fill="#FFFFFF" d="M24.57,36.69c-2.114,0-3.821,1.716-3.821,3.828c0,2.107,1.708,3.822,3.821,3.822 c2.114,0,3.823-1.714,3.823-3.822C28.393,38.406,26.684,36.69,24.57,36.69L24.57,36.69z M24.57,42.43 c-1.057,0-1.911-0.86-1.911-1.91c0-1.058,0.855-1.913,1.911-1.913c1.058,0,1.912,0.855,1.912,1.913 C26.482,41.569,25.628,42.43,24.57,42.43L24.57,42.43z M53.398,33.861v4.083c0,1.02-0.826,1.844-1.844,1.844h-1.973 c-0.355-2.444-2.463-4.326-5.006-4.326c-2.537,0-4.646,1.882-5.004,4.326h-9.997c-0.357-2.444-2.464-4.326-5.001-4.326 c-2.539,0-4.647,1.882-5.003,4.326h-2.47c-1.018,0-1.843-0.824-1.843-1.844v-4.083H53.398z M44.58,36.69 c-2.115,0-3.828,1.716-3.828,3.828c0,2.107,1.713,3.822,3.828,3.822c2.107,0,3.82-1.714,3.82-3.822 C48.4,38.406,46.688,36.69,44.58,36.69L44.58,36.69z M44.58,42.43c-1.059,0-1.912-0.86-1.912-1.91c0-1.058,0.854-1.913,1.912-1.913 c1.051,0,1.912,0.855,1.912,1.913C46.492,41.569,45.631,42.43,44.58,42.43L44.58,42.43z M52.672,29.752l-7.244-7.166 c-0.461-0.454-1.08-0.713-1.727-0.713h-3.654v-1.37c0-1.021-0.826-1.844-1.844-1.844H17.099c-1.015,0-1.844,0.823-1.844,1.844 v0.288l-7.481,0.862l13.256,1.727l-13.43,1.336l13.38,1.901l-13.38,1.161l7.654,1.444l-0.001,3.622h38.143v-1.348 C53.396,30.841,53.135,30.213,52.672,29.752L52.672,29.752z M49.514,29.992h-7.012c-0.16,0-0.289-0.129-0.289-0.289V24.29 c0-0.159,0.129-0.289,0.289-0.289h1.334c0.074,0,0.148,0.03,0.203,0.08l5.672,5.414C49.902,29.672,49.771,29.992,49.514,29.992 L49.514,29.992z"></path> </g> </svg> 