<?xml version="1.0" encoding="UTF-8"?> <svg xmlns="http://www.w3.org/2000/svg" xmlns:xlink="http://www.w3.org/1999/xlink" version="1.1" id="Layer_1" x="0px" y="0px" width="61px" height="61px" viewBox="0 0 61 61" xml:space="preserve"> <g id="Shape_1_copy_1_"> <g id="Shape_1_copy"> <g> <path fill="#E58036" d="M30.5,1.121C14.274,1.121,1.122,14.275,1.122,30.5S14.274,59.879,30.5,59.879S59.878,46.726,59.878,30.5 S46.726,1.121,30.5,1.121z M30.5,57.735c-15.042,0-27.236-12.192-27.236-27.234S15.458,3.263,30.5,3.263 s27.235,12.194,27.235,27.236S45.542,57.735,30.5,57.735z"></path> </g> </g> </g> <g> <g> <path fill="#FFFFFF" d="M38.216,19.14c-0.104-0.104-0.233-0.183-0.376-0.224l-8.405-2.637c-3.36-1.057-5.547,0.782-6.137,1.376 c-0.343,0.344-0.608,0.704-0.741,1.021l-3.747,8.806c-0.212,0.504-0.141,1.173,0.194,1.844c0.486,0.959,1.35,1.646,2.386,1.896 c1.165,0.271,2.366-0.1,3.308-1.042c0.246-0.247,0.456-0.518,0.579-0.75l1.257-2.333c0.208-0.388,0.51-0.783,0.825-1.103 c1.079-1.081,1.593-0.587,1.81-0.375c1.884,1.816,11.754,11.733,11.754,11.733c0.356,0.35,0.278,1.013-0.16,1.453 c-0.439,0.438-1.1,0.512-1.452,0.166l-2.775-2.775c-0.359-0.357-0.935-0.357-1.29,0c-0.361,0.356-0.361,0.933,0,1.291l2.771,2.776 c0.354,0.348,0.28,1.016-0.159,1.451c-0.439,0.438-1.107,0.51-1.453,0.163l-2.777-2.77c-0.356-0.363-0.936-0.363-1.29,0 c-0.361,0.354-0.361,0.932,0,1.287l2.77,2.777c0.354,0.349,0.275,1.013-0.157,1.453c-0.44,0.439-1.108,0.512-1.456,0.163 l-2.774-2.774c-0.355-0.355-0.938-0.355-1.295,0c-0.355,0.359-0.355,0.939,0,1.291l2.775,2.773 c0.354,0.354,0.274,1.016-0.159,1.456c-0.445,0.439-1.107,0.514-1.459,0.166l-3.374-3.379c0.479-0.728,0.353-1.777-0.364-2.496 c-0.801-0.803-2.035-0.873-2.75-0.161c0.715-0.712,0.646-1.942-0.159-2.75c-0.805-0.799-2.035-0.873-2.748-0.158 c0.712-0.715,0.646-1.949-0.161-2.748c-0.803-0.806-2.033-0.88-2.749-0.166c0.715-0.714,0.642-1.944-0.158-2.749 c-0.755-0.748-1.872-0.848-2.605-0.274l-5.463-5.472c-0.357-0.357-0.938-0.357-1.295,0c-0.355,0.358-0.355,0.938,0,1.295 l5.457,5.455l-1.62,1.613c-0.713,0.713-0.639,1.943,0.16,2.749c0.806,0.8,2.034,0.878,2.748,0.16 c-0.713,0.718-0.64,1.941,0.167,2.746c0.798,0.804,2.03,0.879,2.742,0.165c-0.712,0.714-0.64,1.945,0.165,2.748 c0.801,0.801,2.031,0.875,2.748,0.162c-0.715,0.713-0.645,1.943,0.162,2.748c0.799,0.801,2.029,0.873,2.748,0.161l1.705-1.712 l3.358,3.355c1.07,1.072,2.878,0.995,4.037-0.161c0.564-0.564,0.868-1.285,0.909-1.999c0.712-0.041,1.438-0.345,1.998-0.911 c0.568-0.567,0.869-1.283,0.916-1.997c0.712-0.048,1.43-0.346,1.999-0.911c0.562-0.567,0.868-1.288,0.909-2.004 c0.713-0.042,1.434-0.342,1.997-0.91c1.158-1.156,1.231-2.97,0.161-4.037l-1.413-1.415l5.809-5.806 c0.354-0.355,0.354-0.938,0-1.293L38.216,19.14z"></path> </g> <path fill="#FFFFFF" d="M51.977,21.186l-7.402-7.398c-0.711-0.717-1.873-0.717-2.589,0l-2.586,2.583 c-0.713,0.712-0.713,1.872,0,2.583l7.403,7.404c0.715,0.712,1.871,0.712,2.585,0l2.589-2.587 C52.69,23.054,52.69,21.9,51.977,21.186L51.977,21.186z M48.093,24.954c-0.829,0-1.505-0.671-1.505-1.5 c0-0.828,0.676-1.502,1.505-1.502c0.825,0,1.499,0.672,1.499,1.502S48.918,24.954,48.093,24.954L48.093,24.954z"></path> </g> </svg> 