<?xml version="1.0" encoding="UTF-8"?> <svg xmlns="http://www.w3.org/2000/svg" xmlns:xlink="http://www.w3.org/1999/xlink" version="1.1" id="Layer_1" x="0px" y="0px" viewBox="0 0 250 90" style="enable-background:new 0 0 250 90;" xml:space="preserve"> <style type="text/css"> .st0{display:none;} .st1{display:inline;} .st2{fill:#343434;} .st3{fill:#773E71;} .st4{fill:url(#SVGID_2_);} .st5{fill:url(#SVGID_4_);} .st6{fill:url(#SVGID_6_);} .st7{fill:url(#SVGID_8_);} .st8{fill:url(#SVGID_10_);} .st9{fill:url(#SVGID_12_);} .st10{opacity:0.5;fill:url(#SVGID_14_);enable-background:new ;} .st11{opacity:0.2;fill:url(#SVGID_15_);enable-background:new ;} .st12{display:none;opacity:0.3;fill:url(#SVGID_16_);enable-background:new ;} .st13{display:none;opacity:0.3;fill:url(#SVGID_17_);enable-background:new ;} .st14{display:none;fill:url(#SVGID_18_);} .st15{fill:url(#SVGID_19_);} .st16{fill:#FFFFFF;} .st17{fill:#343434;stroke:#343434;stroke-miterlimit:10;} .st18{fill:#4E4E4E;} .st19{display:inline;fill:#4E4E4E;} .st20{display:inline;fill:#2D4B93;} .st21{fill:none;} .st22{fill:#2D4B93;} .st23{fill:#333333;} .st24{fill:#666666;} .st25{fill:#FF9D2E;} .st26{fill:#C9562E;} .st27{fill:#FEDA5F;} .st28{fill:#E6E6E6;} .st29{fill:#293A80;} .st30{fill:#010038;} </style> <g class="st0"> <g class="st1"> <g> <g> <g> <path id="SVGID_1_" class="st2" d="M116.7,37.4c0,5.1-3.1,8.2-7,8.2c-4.2,0-7-3.4-7-8c0-4,2.3-8.1,7.2-8.1 C113.8,29.4,116.7,32.6,116.7,37.4L116.7,37.4z M106.3,37c0,4.1,1.2,7.6,3.8,7.6c1.9,0,3.1-2.3,3.1-6.6c0-4.7-1.3-7.6-3.6-7.6 C107.5,30.4,106.3,33.2,106.3,37L106.3,37z"></path> </g> </g> <g> <g> <path id="SVGID_3_" class="st2" d="M115.1,51.8c-0.3-1.2-0.5-1.9-0.9-2.3c-0.4-0.4-1-0.5-1.9-0.5h-1.1v11.4 c0,2,0.2,2.2,2.1,2.3v0.8h-7.2v-0.8c1.8-0.1,2-0.4,2-2.3V48.9h-0.8c-1.3,0-1.8,0.2-2.2,0.6c-0.4,0.4-0.6,1.2-0.8,2.3h-0.8 c0.1-1.6,0.2-3.3,0.3-4.5h0.6c0.4,0.5,0.6,0.6,1.3,0.6h8.3c0.6,0,0.9-0.1,1.2-0.6h0.6c0,1,0.1,2.9,0.2,4.4L115.1,51.8 L115.1,51.8z"></path> </g> </g> <g> <g> <path id="SVGID_5_" class="st2" d="M83.6,29c6.3,0,10.9,1.3,14,4.6c2.3,2.5,4.1,6.3,4.1,11.2c0,6.6-2.2,11.1-5.8,14.1 c-3.6,3-8.4,4.4-14.4,4.4h-12v-1.8c3.8-0.3,4.3-0.8,4.3-5.3V36c0-4.5-0.4-4.9-4-5.3V29L83.6,29L83.6,29z M80.6,56.4 c0,3.6,0.8,4.8,3.5,4.8c5.3,0,9.9-5.1,9.9-15.4c0-5.4-1.3-9.4-3.4-11.7c-1.9-2.1-4.3-3-7.1-3c-1.3,0-2.1,0.3-2.5,0.5 c-0.4,0.3-0.5,1.1-0.5,2.7L80.6,56.4L80.6,56.4z"></path> </g> </g> <g> <g> <path id="SVGID_7_" class="st2" d="M147.4,54.3c-0.6,2.2-1.6,5.8-2.4,7.5c-1.3,0.3-5,1.2-8.2,1.2c-11.9,0-16.5-8.6-16.5-16.5 c0-10.3,6.9-17.6,17.7-17.6c3.2,0,6.4,0.8,7.7,1.1c0.4,2.8,0.6,5.1,0.9,7.8l-1.7,0.4c-1.6-5.6-4.5-7.3-7.9-7.3 c-5.7,0-9.4,6.9-9.4,14.5c0,9.2,4.1,15.5,9.7,15.5c3.6,0,6.2-2.8,8.3-7.3L147.4,54.3L147.4,54.3z"></path> </g> </g> <g> <g> <path id="SVGID_9_" class="st2" d="M155.7,45c-4.2,0-7-3.4-7-8c0-4,2.3-8.1,7.2-8.1c3.8,0,6.8,3.2,6.8,7.9 C162.7,41.9,159.7,45,155.7,45L155.7,45z M155.6,29.8c-2,0-3.3,2.8-3.3,6.6c0,4.1,1.2,7.6,3.8,7.6c1.9,0,3.1-2.3,3.1-6.6 C159.2,32.8,157.9,29.8,155.6,29.8L155.6,29.8z M177.1,31.3c-0.1,0.8-0.2,2-0.2,4.1V45h-1.2l-8.6-11.7H167v5.3 c0,2,0.1,3.3,0.2,4c0.1,0.9,0.5,1.3,2.2,1.4v0.8h-5.5v-0.8c1.3-0.1,1.7-0.5,1.8-1.4c0.1-0.8,0.2-2,0.2-4v-5c0-1.6,0-2-0.4-2.5 c-0.4-0.6-0.9-0.8-1.9-0.9v-0.8h4.1l7.8,10.3h0.1v-4.2c0-2.1-0.1-3.3-0.2-4c-0.1-0.8-0.6-1.2-2.1-1.3v-0.8h5.4V30 C177.6,30,177.2,30.4,177.1,31.3L177.1,31.3z M192.9,31.3c-0.1,0.8-0.2,2-0.2,4.1V45h-1.2l-8.6-11.7h-0.1v5.3 c0,2,0.1,3.3,0.2,4c0.1,0.9,0.5,1.3,2.2,1.4v0.8h-5.5v-0.8c1.3-0.1,1.7-0.5,1.8-1.4c0.1-0.8,0.2-2,0.2-4v-5c0-1.6,0-2-0.4-2.5 c-0.4-0.6-0.9-0.8-1.9-0.9v-0.8h4.1l7.8,10.3h0.1v-4.2c0-2.1-0.1-3.3-0.2-4c-0.1-0.8-0.6-1.2-2.1-1.3v-0.8h5.4V30 C193.4,30,193,30.4,192.9,31.3L192.9,31.3z M201.1,43.5c0.4,0.2,1,0.2,1.9,0.2c1.3,0,2-0.2,2.5-0.8c0.4-0.5,0.8-1.2,1.2-2.2 l0.8,0.2c-0.1,0.9-0.6,3.1-0.8,3.7h-11.2v-0.8c1.8-0.2,2-0.3,2-2.3v-9.4c0-2-0.2-2.1-1.7-2.2v-0.8h10.4c0,0.4,0.1,2.1,0.2,3.4 l-0.8,0.1c-0.2-0.8-0.5-1.5-0.8-1.9c-0.4-0.4-1-0.7-2.5-0.7h-0.8c-0.8,0-0.8,0.1-0.8,0.8V36h1.4c1.9,0,2.1-0.1,2.5-1.8h0.8V39 h-0.8c-0.4-1.7-0.5-1.8-2.5-1.8h-1.4v4.4C200.7,42.7,200.7,43.3,201.1,43.5L201.1,43.5z M216.6,29.8c-2.7,0-4.4,3.3-4.4,6.9 c0,4.3,2,7.3,4.6,7.3c1.7,0,2.9-1.3,3.9-3.4l0.8,0.3c-0.3,1.1-0.8,2.8-1.1,3.6c-0.6,0.1-2.4,0.6-3.9,0.6 c-5.7,0-7.8-4.1-7.8-7.8c0-4.9,3.3-8.3,8.4-8.3c1.5,0,3,0.4,3.7,0.5c0.2,1.3,0.3,2.4,0.4,3.7l-0.8,0.2 C219.6,30.7,218.2,29.8,216.6,29.8L216.6,29.8z M234,33.1c-0.3-1.2-0.5-1.9-0.9-2.3c-0.4-0.4-1-0.5-1.9-0.5h-1.1v11.4 c0,2,0.2,2.2,2.1,2.3v0.8h-7.2v-0.8c1.8-0.1,2-0.4,2-2.3V30.2h-0.8c-1.3,0-1.8,0.2-2.2,0.6c-0.4,0.4-0.6,1.2-0.8,2.3h-0.8 c0.1-1.6,0.2-3.3,0.3-4.5h0.6c0.4,0.5,0.6,0.6,1.3,0.6h8.3c0.6,0,0.9-0.1,1.2-0.6h0.6c0,1,0.1,2.9,0.2,4.4L234,33.1L234,33.1z"></path> </g> </g> <g> <g> <path id="SVGID_11_" class="st3" d="M157.9,53.1c-0.3,1.4-0.9,4.8-1.8,10.4h-0.6c-0.6-2.9-1.2-5.6-1.7-8.6h0 c-0.5,2.9-1.1,5.8-1.6,8.6h-0.5c-0.6-3.5-1.2-6.9-1.7-10.5c-0.3-1.6-0.4-1.8-1.1-1.9v-0.7h3.3v0.7c-0.8,0.2-0.8,0.4-0.7,1.4 c0.3,2.3,0.7,4.6,1,6.7h0c0.5-2.8,1-5.8,1.5-8.7h0.6c0.6,2.9,1.2,5.8,1.7,8.8h0c0.4-2.3,0.8-5.3,1-6.6c0.1-1.2,0.1-1.6-0.8-1.7 v-0.7h2.6V51C158.4,51.3,158.3,51.5,157.9,53.1L157.9,53.1z M162.4,62.3c0.2,0.2,0.5,0.2,0.9,0.2c0.6,0,1-0.1,1.2-0.6 c0.2-0.4,0.4-1,0.6-1.8l0.4,0.2c-0.1,0.8-0.3,2.5-0.4,3.1h-5.5v-0.7c0.9-0.1,1-0.2,1-1.9V53c0-1.6-0.1-1.7-0.8-1.9v-0.7h5.1 c0,0.4,0.1,1.7,0.1,2.9l-0.4,0.1c-0.1-0.7-0.2-1.2-0.4-1.6c-0.2-0.4-0.5-0.5-1.2-0.5h-0.4c-0.4,0-0.4,0-0.4,0.7v4.2h0.7 c0.9,0,1.1-0.1,1.2-1.5h0.4v3.9h-0.4c-0.2-1.4-0.3-1.5-1.2-1.5h-0.7v3.6C162.2,61.7,162.2,62.1,162.4,62.3L162.4,62.3z M170.2,56.3L170.2,56.3c1.2,0.3,2.1,1.3,2.1,3.2c0,1.4-0.4,2.4-1,3c-0.6,0.6-1.5,0.8-2.4,0.8h-2.8v-0.7c0.8-0.1,0.9-0.3,0.9-2 v-7.6c0-1.6-0.1-1.8-0.9-2v-0.7h3.2c0.9,0,1.4,0.2,1.9,0.7c0.4,0.4,0.7,1.2,0.7,2.2C171.9,55.2,171.1,56,170.2,56.3L170.2,56.3 z M168.6,60.7c0,1.4,0.2,1.8,0.8,1.8c0.6,0,1.3-0.8,1.3-2.9c0-1.8-0.6-2.8-1.8-2.8h-0.2V60.7L168.6,60.7z M169.2,51.2 c-0.2,0-0.4,0.1-0.4,0.2c-0.1,0.1-0.1,0.4-0.1,0.9v3.7h0.3c1,0,1.5-0.7,1.5-2.4C170.4,51.9,169.8,51.2,169.2,51.2L169.2,51.2z M178.3,50.9c-0.6,0-1,0.8-1,2s0.4,1.8,1.3,2.6c1.2,1,2,2.1,2,4.1c0,2.2-1.1,3.9-2.7,3.9c-0.4,0-0.8-0.1-1.1-0.2 c-0.3-0.2-0.5-0.3-0.7-0.4c-0.1-0.5-0.3-2-0.4-3.2l0.4-0.2c0.2,1.2,0.8,3.3,1.9,3.3c0.7,0,1.1-0.8,1.1-2c0-1.2-0.4-1.9-1.3-2.7 c-1.1-1-2-2.1-2-4.1c0-2.1,0.9-3.7,2.5-3.7c0.6,0,1.2,0.3,1.5,0.5c0,0.8,0.1,1.6,0.2,2.8l-0.4,0.1 C179.5,52.4,179.2,50.9,178.3,50.9L178.3,50.9z M184.9,63.5c-2.1,0-3.4-2.9-3.4-6.6c0-3.3,1.2-6.7,3.6-6.7 c1.9,0,3.3,2.6,3.3,6.6C188.3,61,186.8,63.5,184.9,63.5L184.9,63.5z M184.8,51c-1,0-1.6,2.4-1.6,5.5c0,3.4,0.6,6.3,1.9,6.3 c0.9,0,1.6-1.9,1.6-5.5C186.6,53.4,186,51,184.8,51L184.8,51z M194.4,63.3h-5.3v-0.7c0.9-0.1,1-0.3,1-1.9v-7.7 c0-1.7-0.1-1.8-0.9-2v-0.7h3.3v0.7c-0.8,0.1-0.9,0.3-0.9,2v7.8c0,0.9,0,1.3,0.3,1.5c0.2,0.1,0.5,0.2,0.8,0.2 c0.4,0,0.8-0.1,1.1-0.6c0.2-0.4,0.4-1,0.6-2l0.4,0.2C194.6,60.9,194.5,62.8,194.4,63.3L194.4,63.3z M201.4,52.2 c0,0.6-0.1,1.3-0.1,2.9v2.1c0,2-0.1,3.7-0.8,4.9c-0.5,0.9-1.2,1.4-2,1.4c-0.7,0-1.4-0.3-1.9-1c-0.6-0.8-0.8-2.2-0.8-4.5v-4.9 c0-1.7-0.1-1.9-0.8-2v-0.7h3.2v0.7c-0.8,0.1-0.8,0.3-0.8,2V58c0,2.8,0.5,4.3,1.7,4.3s1.7-1.5,1.7-4.8v-2.4c0-1.6,0-2.4-0.1-2.9 c0-0.7-0.3-1-1.1-1.1v-0.7h2.7v0.7C201.7,51.2,201.5,51.5,201.4,52.2L201.4,52.2z M208.7,53.6c-0.1-1-0.3-1.6-0.4-2 c-0.2-0.4-0.5-0.4-0.9-0.4h-0.5v9.5c0,1.6,0.1,1.8,1,1.9v0.7h-3.5v-0.7c0.9-0.1,1-0.3,1-1.9v-9.5h-0.4c-0.7,0-0.9,0.1-1.1,0.5 c-0.2,0.4-0.3,1-0.4,1.9h-0.4c0-1.3,0.1-2.7,0.1-3.7h0.3c0.2,0.4,0.3,0.5,0.6,0.5h4.1c0.3,0,0.4-0.1,0.6-0.5h0.3 c0,0.8,0,2.4,0.1,3.7L208.7,53.6L208.7,53.6z M213.1,62.7v0.7h-3.3v-0.7c0.8-0.1,0.9-0.3,0.9-1.9v-7.7c0-1.6-0.1-1.8-0.9-2 v-0.7h3.3v0.7c-0.8,0.1-0.9,0.3-0.9,2v7.7C212.2,62.3,212.3,62.5,213.1,62.7L213.1,62.7z M217.4,63.5c-2.1,0-3.4-2.9-3.4-6.6 c0-3.3,1.2-6.7,3.6-6.7c1.9,0,3.3,2.6,3.3,6.6C220.9,61,219.4,63.5,217.4,63.5L217.4,63.5z M217.4,51c-1,0-1.6,2.4-1.6,5.5 c0,3.4,0.6,6.3,1.9,6.3c0.9,0,1.6-1.9,1.6-5.5C219.2,53.4,218.5,51,217.4,51L217.4,51z M228.1,52.1c0,0.6-0.1,1.6-0.1,3.3v8 h-0.6l-4.2-9.7h0v4.4c0,1.7,0,2.7,0.1,3.3c0,0.8,0.3,1.1,1.1,1.2v0.6h-2.7v-0.6c0.6,0,0.8-0.4,0.9-1.2c0-0.6,0.1-1.6,0.1-3.3 v-4.2c0-1.3,0-1.7-0.2-2.1c-0.2-0.5-0.4-0.7-0.9-0.8v-0.6h2.1l3.9,8.6h0v-3.5c0-1.7,0-2.8-0.1-3.3c0-0.7-0.3-1-1-1.1v-0.6h2.7 V51C228.4,51.1,228.2,51.4,228.1,52.1L228.1,52.1z M232.2,50.9c-0.6,0-1,0.8-1,2s0.4,1.8,1.3,2.6c1.2,1,2,2.1,2,4.1 c0,2.2-1.1,3.9-2.7,3.9c-0.4,0-0.8-0.1-1.1-0.2c-0.3-0.2-0.5-0.3-0.7-0.4c-0.1-0.5-0.3-2-0.3-3.2l0.4-0.2 c0.2,1.2,0.8,3.3,1.9,3.3c0.7,0,1.1-0.8,1.1-2c0-1.2-0.4-1.9-1.3-2.7c-1.1-1-2-2.1-2-4.1c0-2.1,0.9-3.7,2.5-3.7 c0.6,0,1.2,0.3,1.5,0.5c0,0.8,0.1,1.6,0.2,2.8l-0.4,0.1C233.5,52.4,233.1,50.9,232.2,50.9L232.2,50.9z"></path> </g> </g> <g> <g> <polygon id="SVGID_13_" class="st2" points="148.9,47.3 234.4,47.3 234.4,48.1 148.9,48.1 "></polygon> </g> </g> </g> <g> <linearGradient id="SVGID_2_" gradientUnits="userSpaceOnUse" x1="17.1034" y1="-29.868" x2="37.0801" y2="30.8455" gradientTransform="matrix(1 0 0 1 0 60.93)"> <stop offset="0.1697" style="stop-color:#CC7FBE"></stop> <stop offset="1" style="stop-color:#87357E"></stop> </linearGradient> <path class="st4" d="M23.5,53.7C22.3,53.8,21.1,54,20,54c-0.7,7.6,0.5,14.9,3.1,21.1c2.2,0.5,4.5,0.8,6.9,0.8 c3.2,0,6.2-0.5,9-1.4c-0.5-9.8-7.2-20-8.6-22.1C28.2,52.9,25.9,53.4,23.5,53.7z"></path> <linearGradient id="SVGID_4_" gradientUnits="userSpaceOnUse" x1="31.7235" y1="-9.8561" x2="71.0716" y2="-2.4887" gradientTransform="matrix(1 0 0 1 0 60.93)"> <stop offset="1.210000e-02" style="stop-color:#E53898"></stop> <stop offset="1" style="stop-color:#C01E62"></stop> </linearGradient> <path class="st5" d="M59.9,45.9c0-4.3-0.9-8.4-2.5-12.1c-5,8.5-14.8,15.5-27,18.6c1.5,2.1,8.2,12.3,8.6,22.1 C51.1,70.6,59.9,59.3,59.9,45.9z"></path> <linearGradient id="SVGID_6_" gradientUnits="userSpaceOnUse" x1="20.9201" y1="-5.1604" x2="7.9277" y2="5.6204" gradientTransform="matrix(1 0 0 1 0 60.93)"> <stop offset="0.1697" style="stop-color:#2AC7F2"></stop> <stop offset="1" style="stop-color:#16ABE3"></stop> </linearGradient> <path class="st6" d="M20,54c-7,0.4-13.6-0.4-19.4-2.4C2.8,63.2,11.6,72.4,23,75.1C20.5,68.9,19.3,61.6,20,54z"></path> <linearGradient id="SVGID_8_" gradientUnits="userSpaceOnUse" x1="20.8155" y1="-13.3208" x2="-3.2901" y2="-20.9245" gradientTransform="matrix(1 0 0 1 0 60.93)"> <stop offset="0.1697" style="stop-color:#CADA7D"></stop> <stop offset="1" style="stop-color:#91AD3E"></stop> </linearGradient> <path class="st7" d="M3.5,31.8C1.3,36,0,40.8,0,45.9c0,2,0.2,3.8,0.5,5.7C6.4,53.5,13,54.4,20,54c0.1-1.2,0.3-2.5,0.5-3.7 c0.4-2.5,1-5,1.8-7.4C17.3,37,6.9,33,3.5,31.8z"></path> <linearGradient id="SVGID_10_" gradientUnits="userSpaceOnUse" x1="29.2738" y1="-20.0184" x2="20.0133" y2="-43.7915" gradientTransform="matrix(1 0 0 1 0 60.93)"> <stop offset="0.1697" style="stop-color:#FCF668"></stop> <stop offset="1" style="stop-color:#F3BE0F"></stop> </linearGradient> <path class="st8" d="M42.9,18.9C39,17,34.6,16,30,16C18.5,16,8.6,22.4,3.5,31.8C7,33.1,17.3,37,22.2,43 C26,31.5,33.8,22.7,42.9,18.9z"></path> <linearGradient id="SVGID_12_" gradientUnits="userSpaceOnUse" x1="27.4209" y1="-14.4018" x2="51.5658" y2="-35.9634" gradientTransform="matrix(1 0 0 1 0 60.93)"> <stop offset="0.1697" style="stop-color:#FDD16F"></stop> <stop offset="1" style="stop-color:#C5681D"></stop> </linearGradient> <path class="st9" d="M42.9,18.9c-11,4.5-20,16.4-22.5,31.4c-0.2,1.2-0.4,2.5-0.5,3.7c1.2-0.1,2.4-0.2,3.5-0.3 c15.3-1.9,28-9.8,33.8-19.9C54.5,27.3,49.3,22,42.9,18.9z"></path> <radialGradient id="SVGID_14_" cx="28.4415" cy="-15.2611" r="26.8367" gradientTransform="matrix(1 0 0 1 0 60.93)" gradientUnits="userSpaceOnUse"> <stop offset="0" style="stop-color:#FBE15C"></stop> <stop offset="0.9879" style="stop-color:#FFFFFF;stop-opacity:0"></stop> </radialGradient> <circle class="st10" cx="28.4" cy="45.7" r="26.8"></circle> <radialGradient id="SVGID_15_" cx="30.0018" cy="-14.9045" r="29.9126" gradientTransform="matrix(1 0 0 1 0 60.93)" gradientUnits="userSpaceOnUse"> <stop offset="0.6303" style="stop-color:#FFFFFF;stop-opacity:0"></stop> <stop offset="1" style="stop-color:#000000"></stop> </radialGradient> <circle class="st11" cx="30" cy="46" r="29.9"></circle> <linearGradient id="SVGID_16_" gradientUnits="userSpaceOnUse" x1="37.1573" y1="-8.2569" x2="14.4876" y2="-28.9416" gradientTransform="matrix(1 0 0 1 0 60.93)"> <stop offset="0" style="stop-color:#000000"></stop> <stop offset="1" style="stop-color:#FFFFFF;stop-opacity:0"></stop> </linearGradient> <path class="st12" d="M39.3,48.4c-3.4-0.1-15.6-0.5-24.3-0.6l4.1-17.5c1.1-0.2,2.3-0.4,3.5-0.4c9.2,0,16.7,7.5,16.7,16.7 C39.4,47.3,39.3,47.9,39.3,48.4L39.3,48.4z"></path> <linearGradient id="SVGID_17_" gradientUnits="userSpaceOnUse" x1="10.1395" y1="-38.8207" x2="35.2119" y2="-13.2782" gradientTransform="matrix(1 0 0 1 0 60.93)"> <stop offset="0" style="stop-color:#000000"></stop> <stop offset="1" style="stop-color:#FFFFFF;stop-opacity:0"></stop> </linearGradient> <path class="st13" d="M43.4,33.6c-3.1,0.8-9.8-4.2-12.5-3.8c-9.6,1.4-14.6,9.3-14.6,9.3l-1.1,9.1c-0.8,0-1.6,0-2.4,0 c-4.3,0-9.1,0.5-11.6,0.8c-0.1-0.9-0.1-1.9-0.1-2.9c0-16,12.9-28.9,28.8-28.9c5.5,0,10.6,1.5,14.9,4.1 C43.9,25.3,47.2,32.7,43.4,33.6L43.4,33.6z"></path> <linearGradient id="SVGID_18_" gradientUnits="userSpaceOnUse" x1="70.1248" y1="-26.3316" x2="39.395" y2="-23.8447" gradientTransform="matrix(1 0 0 1 0 60.93)"> <stop offset="0" style="stop-color:#000000"></stop> <stop offset="1" style="stop-color:#FFFFFF;stop-opacity:0"></stop> </linearGradient> <path class="st14" d="M58.7,49.6c-2.3-0.1-7-0.2-12.7-0.4V22.5c7.8,5.2,12.9,14,12.9,24C58.8,47.5,58.8,48.6,58.7,49.6L58.7,49.6 z"></path> <linearGradient id="SVGID_19_" gradientUnits="userSpaceOnUse" x1="26.6632" y1="-30.1905" x2="40.453" y2="-5.4314" gradientTransform="matrix(1 0 0 1 0 60.93)"> <stop offset="0" style="stop-color:#999999"></stop> <stop offset="1" style="stop-color:#FFFFFF"></stop> </linearGradient> <path class="st15" d="M42.1,18.5v12.1c-3.4-2.8-7.1-4.4-11.8-4.4c-10.9,0-19.7,8.8-19.7,19.7s8.8,19.7,19.7,19.7 c10.5,0,19.1-8.3,19.7-18.7h0V23.7c0,0-1.5-1.4-3.3-2.6C44.9,19.9,42.1,18.5,42.1,18.5z M30.4,57.8c-6.6,0-11.9-5.3-11.9-11.9 s5.3-11.9,11.9-11.9s11.9,5.3,11.9,11.9S36.9,57.8,30.4,57.8z"></path> <path class="st16" d="M42.8,18.8v11.8c-3.4-2.8-7.7-4.4-12.4-4.4c-10.9,0-19.7,8.8-19.7,19.7s8.8,19.7,19.7,19.7 c10.5,0,19.1-8.3,19.7-18.7h0V23.7c0,0-1.5-1.4-3.3-2.6C44.9,19.9,42.8,18.8,42.8,18.8z M30.4,58.5c-7,0-12.6-5.7-12.6-12.6 s5.6-12.6,12.6-12.6c7,0,12.6,5.7,12.6,12.7S37.3,58.5,30.4,58.5z"></path> </g> </g> <g class="st1"> <path class="st17" d="M74.1,70c-0.2-0.8-0.6-1.6-1.6-1.6c-0.9,0-1.3,0.7-1.3,1.3c0,0.8,0.6,1.2,1.6,1.7c1,0.5,2.1,1.1,2.1,2.4 c0,1.3-1.1,2.3-2.8,2.3c-0.5,0-0.9-0.1-1.2-0.2s-0.5-0.2-0.6-0.3c-0.1-0.2-0.3-1.3-0.4-1.9l0.4-0.1c0.2,0.8,0.8,2,2.1,2 c0.9,0,1.4-0.5,1.4-1.4c0-0.8-0.7-1.3-1.6-1.8c-0.8-0.4-2-1-2-2.4c0-1.2,1-2.2,2.6-2.2c0.6,0,1.1,0.1,1.6,0.3 c0,0.4,0.1,0.9,0.2,1.7L74.1,70z"></path> <path class="st17" d="M87.2,75.9v-0.4c1-0.1,1.1-0.1,1.1-1.2v-4.7c0-1-0.1-1.1-1.1-1.2v-0.4h3.3v0.4c-1,0-1.1,0.1-1.1,1.2v4.7 c0,1,0.1,1.1,1.1,1.2v0.4L87.2,75.9L87.2,75.9z"></path> <path class="st17" d="M111.7,68.5c-0.7,0-1,0.2-1,0.7c0,0.4-0.1,0.9-0.1,2.1v4.8h-0.4l-5.4-6.2l0,0v2.9c0,1.1,0,1.7,0.1,2 c0,0.6,0.4,0.8,1.2,0.8V76h-2.9v-0.4c0.7,0,1-0.2,1.1-0.8c0-0.4,0.1-0.9,0.1-2.1v-2.6c0-0.9,0-0.9-0.3-1.2 c-0.3-0.3-0.5-0.4-1.1-0.4v-0.4h1.9l5.2,5.9h0v-2.8c0-1.1,0-1.6-0.1-2c0-0.6-0.4-0.7-1.2-0.8v-0.4h2.9V68.5z"></path> <path class="st17" d="M131.6,73.9c-0.2,0.6-0.5,1.5-0.7,1.9c-0.4,0.1-1.4,0.4-2.4,0.4c-3.2,0-4.6-2.1-4.6-4c0-2.5,2.1-4.2,4.9-4.2 c1.1,0,1.9,0.3,2.3,0.4c0.1,0.7,0.2,1.2,0.3,1.9l-0.4,0.1c-0.4-1.3-1.2-1.9-2.5-1.9c-2.1,0-3.2,1.7-3.2,3.5c0,2.3,1.4,3.8,3.3,3.8 c1.2,0,2-0.7,2.6-1.9L131.6,73.9z"></path> <path class="st17" d="M150.3,74c-0.1,0.4-0.3,1.6-0.4,2h-6v-0.4c1.1-0.1,1.2-0.2,1.2-1.2v-4.7c0-1.1-0.1-1.1-1.1-1.2v-0.4h5.6 c0,0.3,0,1.1,0.1,1.8l-0.4,0c-0.1-0.5-0.3-0.8-0.4-1c-0.2-0.3-0.5-0.4-1.4-0.4h-0.9c-0.4,0-0.4,0-0.4,0.4v2.7h1.1 c1.1,0,1.2-0.1,1.3-0.9h0.4v2.4h-0.4c-0.2-0.9-0.3-0.9-1.3-0.9h-1.1v2.2c0,0.6,0,0.8,0.3,1c0.2,0.1,0.7,0.1,1.2,0.1 c0.9,0,1.2-0.1,1.6-0.4c0.2-0.3,0.4-0.7,0.6-1.2L150.3,74z"></path> <path class="st17" d="M182.5,74.3c-0.2,0.5-0.3,1.1-0.4,1.6h-4.6v-0.3c0.7-0.7,1.4-1.3,2-2c0.8-0.8,1.5-1.8,1.5-2.9 c0-1-0.5-1.6-1.4-1.6c-0.8,0-1.3,0.7-1.7,1.1l-0.3-0.3l0.7-1c0.4-0.4,1-0.7,1.6-0.7c1.1,0,2.1,0.8,2.1,2.1c0,1-0.4,1.7-1.6,2.9 l-1.7,1.7h2.2c0.7,0,0.8,0,1.2-0.8L182.5,74.3z"></path> <path class="st17" d="M197.5,68.4c1.8,0,2.5,2,2.5,3.9c0,1.7-0.7,3.9-2.5,3.9s-2.5-2-2.5-3.8C195,70.5,195.7,68.4,197.5,68.4 L197.5,68.4z M197.5,68.8c-1.1,0-1.3,1.8-1.3,3.4s0.3,3.5,1.4,3.5s1.3-1.8,1.3-3.5C198.9,70.5,198.6,68.8,197.5,68.8L197.5,68.8z"></path> <path class="st17" d="M215,68.4c1.8,0,2.5,2,2.5,3.9c0,1.7-0.7,3.9-2.5,3.9s-2.5-2-2.5-3.8C212.5,70.5,213.2,68.4,215,68.4 L215,68.4z M215,68.8c-1.1,0-1.3,1.8-1.3,3.4s0.3,3.5,1.4,3.5s1.3-1.8,1.3-3.5C216.4,70.5,216.1,68.8,215,68.8L215,68.8z"></path> <path class="st17" d="M235.3,68.6c-1.2,2.4-2.3,4.9-3.5,7.3l-1,0.1l-0.1-0.1c1.3-2,2.7-4.5,3.7-6.5h-2.7c-0.8,0-0.9,0.1-1.2,0.9 h-0.4c0.1-0.7,0.2-1.3,0.3-1.8h4.7L235.3,68.6z"></path> </g> <g class="st1"> <path class="st2" d="M242.6,13.8c4.1,0,7.4,3.3,7.4,7.4s-3.3,7.4-7.4,7.4c-4.1,0-7.4-3.4-7.4-7.4 C235.2,17.2,238.5,13.8,242.6,13.8z M242.6,15.4c-3.3,0-5.9,2.6-5.9,5.9c0,3.3,2.6,5.9,5.9,5.9c3.3,0,5.9-2.6,5.9-5.9 C248.5,17.9,245.9,15.4,242.6,15.4z"></path> <path class="st2" d="M239.8,17.5L239.8,17.5c1,0,2,0,2.9,0c0.5,0,1,0.1,1.5,0.3c0.7,0.3,1.1,0.9,1.2,1.7c0,0.4,0,0.8-0.1,1.2 c-0.2,0.5-0.5,0.8-0.9,1c-0.1,0-0.2,0.1-0.3,0.2c0.1,0.1,0.1,0.2,0.2,0.4c0.5,0.9,0.9,1.7,1.4,2.6c0,0,0,0.1,0,0.1 c0,0-0.1,0-0.1,0c-0.5,0-1,0-1.5,0c0,0-0.1,0-0.1-0.1c-0.4-0.9-0.9-1.7-1.3-2.6c0,0-0.1-0.1-0.1-0.1c-0.4,0-0.7,0-1.1,0 c0,0,0,0-0.1,0c0,0.9,0,1.9,0,2.8c-0.5,0-1,0-1.6,0C239.8,22.5,239.8,20,239.8,17.5z M241.4,21L241.4,21c0.5,0,0.9,0,1.4,0 c0.3,0,0.5-0.1,0.7-0.3c0.2-0.2,0.4-0.5,0.4-0.8c0-0.3,0-0.6-0.2-0.8c-0.2-0.3-0.5-0.4-0.8-0.4c-0.5,0-0.9,0-1.4,0h0 C241.4,19.5,241.4,20.3,241.4,21z"></path> </g> </g> <g class="st0"> <g class="st1"> <g> <g> <path d="M14.2,60.2c2.6,0.2,5.3,0.6,7.8,1.2c2.6,0.6,5.1,1.1,7.7,1.7c2.5,0.6,5,1.1,7.5,1.6c2.4,0.5,4.9,0.7,7.3,0.7 c2.4,0,4.7-0.3,7-0.9c2.3-0.6,4.6-1.6,7-3l0.3-0.2l0.6,0.9l-0.3,0.2c-2.6,2.1-5.3,3.6-7.8,4.5c-2.5,0.8-5.1,1.3-7.7,1.3 c-2.7,0-5.4-0.3-8-1c-2.6-0.7-5.4-1.4-8.1-2.3c-2.7-0.8-5.5-1.6-8.3-2.4c-2.8-0.7-10.4-1.2-13.4-1.3h-6.3v-1.1h0.4 c1.3,0,2.2-0.1,2.7-0.3c0.5-0.2,0.6-1.1,0.6-1.9V25.2c0-0.6-0.1-1-0.2-1.3c-0.1-0.3-0.3-0.5-0.5-0.6c-0.3-0.1-0.6-0.2-1-0.3 c-0.5,0-1-0.1-1.7-0.1h-0.4v-1.1H9.9V23H9.5c-0.6,0-1.2,0-1.7,0.1c-0.4,0-0.8,0.1-1,0.2c-0.2,0.1-0.4,0.3-0.5,0.6 c-0.1,0.3-0.2,0.7-0.2,1.3v32.6c0,1.2,0.3,1.6,0.5,1.8c0.3,0.3,5.6,0.5,6.5,0.5h0"></path> </g> </g> <g> <g> <g> <path d="M58.9,55.8c-0.7,0-1.3,0-1.8-0.1c-0.4-0.1-0.7-0.2-1-0.4c-0.3-0.2-0.6-0.5-0.8-0.9c-0.2-0.4-0.6-1-0.9-1.7l-14-30.8 h-0.7l-14,31c-0.4,0.8-0.7,1.4-0.9,1.8c-0.3,0.4-0.6,0.7-0.9,0.8c-0.3,0.2-0.7,0.3-1.1,0.3c-0.5,0-1.1,0.1-1.8,0.1h-0.4v1.1 h9.8v-1.1H30c-0.8,0-1.4,0-1.9-0.1c-0.4-0.1-0.7-0.2-0.9-0.4c-0.2-0.2-0.2-0.6-0.2-1c0.1-0.6,0.3-1.3,0.7-2.2l4-9H47l3.8,8.4 c0.5,1.1,0.9,2,1.1,2.7c0.3,0.8,0.3,1.1,0.2,1.3c0,0.1-0.1,0.3-0.4,0.4c-0.4,0.1-0.9,0.1-1.7,0.1h-0.4v1.1h9.6v-1.1L58.9,55.8 L58.9,55.8z M32.3,41.5l7.1-15.9l7.1,15.9H32.3z"></path> </g> </g> </g> <g> <g> <g> <path d="M128.6,55.8c-0.7,0-1.3,0-1.8-0.1c-0.4-0.1-0.7-0.2-1-0.4c-0.3-0.2-0.6-0.5-0.8-0.9c-0.3-0.4-0.6-1-0.9-1.7l-14-30.8 h-0.7l-14,31c-0.4,0.8-0.7,1.4-0.9,1.8c-0.3,0.4-0.6,0.7-0.9,0.8c-0.3,0.2-0.7,0.3-1.1,0.3c-0.5,0-1.1,0.1-1.8,0.1h-0.4v1.1 h9.8v-1.1h-0.4c-0.8,0-1.4,0-1.9-0.1c-0.4-0.1-0.7-0.2-0.9-0.4c-0.2-0.2-0.2-0.6-0.2-1c0.1-0.6,0.3-1.3,0.7-2.2l4-9h15.4 l3.8,8.4c0.5,1.1,0.9,2,1.1,2.7c0.3,0.8,0.3,1.1,0.2,1.3c0,0.1-0.1,0.3-0.4,0.4c-0.4,0.1-0.9,0.1-1.7,0.1h-0.3v1.1h9.6v-1.1 L128.6,55.8L128.6,55.8z M102,41.5l7.1-15.9l7.1,15.9H102z"></path> </g> </g> </g> <g> <g> <g> <g> <path d="M250.2,55.8c-0.7,0-1.3,0-1.8-0.1c-0.4-0.1-0.7-0.2-1-0.4c-0.3-0.2-0.6-0.5-0.8-0.9c-0.2-0.4-0.6-1-0.9-1.7l-14-30.8 h-0.7l-14,31c-0.4,0.8-0.7,1.4-0.9,1.8c-0.3,0.4-0.6,0.7-0.9,0.8c-0.3,0.2-0.7,0.3-1.1,0.3c-0.5,0-1.1,0.1-1.8,0.1h-0.4v1.1 h9.8v-1.1h-0.4c-0.8,0-1.4,0-1.9-0.1c-0.4-0.1-0.7-0.2-0.9-0.4c-0.2-0.2-0.2-0.6-0.2-1c0.1-0.6,0.3-1.3,0.7-2.2l4-9h15.4 l3.8,8.4c0.5,1.1,0.9,2,1.1,2.7c0.3,0.8,0.3,1.1,0.2,1.3c0,0.1-0.1,0.3-0.4,0.4c-0.4,0.1-0.9,0.1-1.7,0.1h-0.4v1.1h9.6v-1.1 H250.2z M223.5,41.5l7.1-15.9l7.1,15.9H223.5z"></path> </g> </g> </g> </g> <g> <g> <path d="M91.6,48.1L89,56.9H60.9v-1l26-32.8H70.7c-1.3,0-2.4,0.1-3.1,0.2c-0.7,0.2-1.3,0.5-1.7,0.9c-0.5,0.5-0.9,1.2-1.2,2.2 c-0.3,1-0.8,2.3-1.3,4.1l-0.1,0.3L62,30.6l2.6-8.8h26.9L66.3,53.7c-1,1.2-1,1.7-0.9,1.8c0,0,0,0.1,0.2,0.2h17.4 c1.3,0,2.4-0.1,3.2-0.2c0.7-0.2,1.3-0.5,1.7-0.9c0.5-0.5,0.9-1.2,1.2-2.2c0.4-1,0.8-2.4,1.4-4l0.1-0.3L91.6,48.1z"></path> </g> </g> <g> <g> <path d="M159,30.5l-1.1,0.3l-0.1-0.3c-0.6-1.9-1.1-3.3-1.5-4.3c-0.4-1-0.9-1.7-1.3-2.2c-0.5-0.4-1-0.7-1.7-0.8 c-0.7-0.1-1.7-0.1-2.9-0.1h-12.9v14.6h7.7c1.5,0,2.1-0.2,2.4-0.5c0.4-0.3,0.7-0.9,0.9-1.7l0.1-0.3h0.9v6.3h-0.9l-0.1-0.3 c-0.2-0.8-0.5-1.4-0.9-1.7c-0.3-0.2-0.9-0.5-2.4-0.5h-7.7v14.5c0,0.7,0.1,1.7,0.6,1.9c0.5,0.2,1.5,0.3,2.8,0.3h0.4v1.1h-10.5 v-1.1h0.4c1.3,0,2.2-0.1,2.8-0.3c0.5-0.2,0.6-1.1,0.6-1.9V25.1c0-0.6-0.1-1-0.2-1.3c-0.1-0.3-0.3-0.5-0.5-0.6 c-0.2-0.1-0.6-0.2-1-0.2c-0.5,0-1-0.1-1.7-0.1h-0.4v-1.1h25.6L159,30.5z"></path> </g> </g> <g> <g> <path d="M170.3,25.1v28.5c0,0.7,0.1,1.7,0.6,1.9c0.5,0.2,1.5,0.3,2.8,0.3h0.4v1.1h-10.5v-1.1h0.4c1.3,0,2.2-0.1,2.8-0.3 s0.6-1.1,0.6-1.9V25.1c0-0.6-0.1-1-0.2-1.3c-0.1-0.3-0.3-0.5-0.5-0.6c-0.2-0.1-0.6-0.2-1-0.2c-0.5,0-1-0.1-1.7-0.1h-0.4v-1.1 h10.5v1.1h-0.4c-0.6,0-1.2,0-1.7,0.1c-0.4,0-0.8,0.1-1,0.2c-0.2,0.1-0.4,0.3-0.5,0.6C170.4,24.1,170.3,24.5,170.3,25.1z"></path> </g> </g> <g> <g> <path d="M210,55.9c-0.6,0-1.1-0.3-1.6-0.8c-0.6-0.6-1.1-1.3-1.7-2.2c-0.6-0.9-1.2-1.9-1.8-3c-0.7-1.1-1.4-2.2-2.4-3.3 c-0.9-1.1-2-2-3.2-2.8c-0.8-0.6-1.7-1-2.8-1.3c1.8-0.4,3.4-1.1,4.6-2c1.6-1.2,2.8-2.5,3.6-4.1c0.8-1.6,1-3.2,0.9-4.9 c-0.2-1.7-0.8-3.3-1.8-4.7c-1-1.4-2.6-2.6-4.5-3.5c-1.9-0.9-4.3-1.4-7.1-1.4h-13.4v1.1h0.4c0.6,0,1.2,0,1.7,0.1 c0.4,0,0.8,0.1,1,0.3c0.2,0.1,0.4,0.3,0.5,0.6c0.1,0.3,0.2,0.7,0.2,1.3v28.5c0,0.7-0.1,1.7-0.6,1.9s-1.4,0.3-2.7,0.3h-0.4v1.1 h10.4v-1.1h-0.4c-1.3,0-2.2-0.1-2.7-0.3c-0.5-0.2-0.6-1.1-0.6-1.9V42.9h6.5c1.7,0,3.3,0.5,4.6,1.4c1.4,1,2.6,2.2,3.6,3.6 c1.1,1.4,2,2.9,2.8,4.5c0.8,1.6,1.5,3,2,4.3l0.1,0.2h5.3v-1L210,55.9L210,55.9z M185.4,39.4V23.1h6.4v0.1h0.4 c2.3,0,4.2,0.5,5.7,1.4c1.5,0.9,2.7,2.1,3.4,3.4c0.8,1.3,1.2,2.8,1.2,4.4c0,1.6-0.4,3.1-1.2,4.4c-0.8,1.3-1.9,2.5-3.4,3.4 c-1.5,0.9-3.4,1.4-5.7,1.4h-4.3c-1.2,0-1.7-0.2-2-0.3C185.7,41.1,185.4,40.7,185.4,39.4z"></path> </g> </g> </g> <g class="st1"> <path d="M70.9,61.3h0.9v4.6c0,1.8-0.9,2.4-2.1,2.4c-0.3,0-0.7-0.1-0.9-0.2l0.1-0.7c0.2,0.1,0.4,0.1,0.7,0.1c0.8,0,1.3-0.4,1.3-1.7 V61.3z"></path> <path d="M77.5,64.9h-2.6v2.5h2.9v0.7H74v-6.9h3.7V62h-2.8v2.2h2.6L77.5,64.9L77.5,64.9z"></path> <path d="M80.8,68.1l-1.7-6.9H80l0.8,3.5c0.2,0.9,0.4,1.7,0.5,2.4h0c0.1-0.7,0.3-1.5,0.6-2.4l0.9-3.5h0.9l0.8,3.5 c0.2,0.8,0.4,1.6,0.5,2.4h0c0.1-0.8,0.3-1.5,0.5-2.4l0.9-3.5h0.9l-1.9,6.9h-0.9l-0.9-3.6c-0.2-0.9-0.4-1.6-0.4-2.2h0 c-0.1,0.7-0.3,1.3-0.5,2.2l-1,3.6L80.8,68.1L80.8,68.1z"></path> <path d="M92.4,64.9h-2.6v2.5h2.9v0.7h-3.8v-6.9h3.7V62h-2.8v2.2h2.6L92.4,64.9L92.4,64.9z"></path> <path d="M94.6,61.3h0.9v6.1h2.9v0.7h-3.8V61.3z"></path> <path d="M100.1,61.3c0.4-0.1,1.1-0.1,1.7-0.1c0.9,0,1.5,0.2,2,0.6c0.3,0.3,0.5,0.8,0.5,1.3c0,0.9-0.6,1.5-1.3,1.7v0 c0.5,0.2,0.8,0.7,1,1.4c0.2,1,0.4,1.6,0.5,1.9h-0.9c-0.1-0.2-0.3-0.8-0.5-1.6c-0.2-0.9-0.6-1.3-1.4-1.3h-0.8v3H100L100.1,61.3 L100.1,61.3z M100.9,64.5h0.9c0.9,0,1.5-0.5,1.5-1.3c0-0.9-0.6-1.3-1.6-1.3c-0.4,0-0.7,0-0.9,0.1V64.5z"></path> <path d="M107.7,68.1v-2.9l-2.1-3.9h1l0.9,1.9c0.3,0.5,0.5,0.9,0.7,1.4h0c0.2-0.5,0.4-0.9,0.7-1.4l1-1.9h1l-2.3,3.9v2.9L107.7,68.1 L107.7,68.1z"></path> </g> </g> <g class="st0"> <g class="st1"> <path class="st18" d="M241.7,10.2c4.6,0,8.3,3.7,8.3,8.3s-3.7,8.3-8.4,8.3c-4.6,0-8.3-3.8-8.3-8.4C233.4,14,237.1,10.2,241.7,10.2 z M241.7,12c-3.7,0-6.7,3-6.7,6.7c0,3.7,3,6.7,6.7,6.7c3.7,0,6.7-3,6.7-6.7C248.3,14.9,245.4,12,241.7,12z"></path> <path class="st18" d="M238.5,14.4L238.5,14.4c1.1,0,2.2,0,3.3,0c0.6,0,1.2,0.1,1.7,0.4c0.8,0.4,1.2,1,1.3,1.9c0.1,0.5,0,1-0.2,1.4 c-0.2,0.6-0.6,0.9-1,1.2c-0.1,0.1-0.3,0.2-0.3,0.2c0.1,0.2,0.2,0.3,0.3,0.4c0.6,1,1,2,1.6,3c0,0.1,0.1,0.1,0.1,0.2 c-0.1,0-0.1,0-0.1,0c-0.6,0-1.2,0-1.7,0c-0.1,0-0.1,0-0.2-0.1c-0.5-1-1-2-1.5-3c-0.1-0.1-0.1-0.1-0.2-0.1c-0.4,0-0.8,0-1.2,0 c-0.1,0-0.1,0-0.1,0c0,1,0,2.1,0,3.1c-0.6,0-1.2,0-1.8,0C238.5,20,238.5,17.2,238.5,14.4z M240.3,18.3L240.3,18.3 c0.6,0,1.1,0,1.6,0c0.3,0,0.6-0.1,0.8-0.3c0.3-0.3,0.4-0.6,0.4-0.9c0-0.3-0.1-0.7-0.3-0.9c-0.3-0.3-0.6-0.4-0.9-0.4 c-0.6,0-1,0-1.6,0h-0.1C240.3,16.6,240.3,17.5,240.3,18.3z"></path> </g> <path class="st19" d="M69.9,23.3c0,0,0.1-0.1,0.1-0.2c0.3-2.1,1.8-3,3.8-3.1c1.8,0,3.6,0,5.5,0c6.3,0,12.5,0,18.8,0 c0.3,0,0.5,0,0.8,0c0,0.7,0,1.4,0,2.1c-3.9,0-7.9,0-11.8,0c0,10.9,0,21.7,0,32.6c-1.6,0-3.1,0-4.7,0c0-10.8,0-21.6,0-32.4 c-0.1-0.1-0.1-0.1-0.2-0.1c-2.1,0-4.3,0-6.4,0.1c-2.9,0.3-4.6,2.3-4.8,5.1c0,0.2,0,0.5-0.1,0.7c-0.4,0-0.7,0-1,0 C69.9,26.5,69.9,24.9,69.9,23.3z"></path> <path class="st19" d="M116,31.1c0,7.8,0,15.7,0,23.6c-0.9,0-1.7,0-2.5,0c-0.1,0-0.3-0.2-0.4-0.3c-0.5-0.5-0.9-1-1.3-1.5 c-0.3-0.3-0.5-0.4-0.8,0c-2.4,2.1-5.3,2.7-8.3,2.3c-1.7-0.2-3.3-0.7-4.6-1.9c-1.5-1.4-2.3-3.2-2.4-5.2c-0.2-2.2-0.1-4.5-0.2-6.7 c0-2.3,0-4.5-0.1-6.7c0-0.4-0.1-0.9-0.2-1.3c-0.4-1.4-1.4-2.1-2.8-2.2c-0.3,0-0.6,0-1,0c-0.3-0.9-0.2-1,0.7-1c1.6,0,3.2,0,4.8,0.1 c1.7,0.1,2.7,0.9,3,2.6c0.2,0.9,0.3,1.9,0.3,2.9c0,3.3,0,6.6,0,9.9c0,1.2,0.2,2.4,0.5,3.5c1,3.3,4.6,4.8,7.7,3.3 c1-0.5,1.8-1.2,2.6-1.9c0.2-0.2,0.3-0.6,0.3-1c0-6.2,0-12.3,0-18.5c0-0.3,0-0.5,0-0.9c0.3,0,0.5,0,0.6,0c2.8,0,5.6,0,8.4,0 c0.5,0,0.9,0,1.4,0.1c1.3,0.2,2.3,0.9,2.8,2.2c0.5-0.4,0.9-0.7,1.3-1c2-1.4,4.1-2,6.5-1.8c1.9,0.2,3,1.4,3.8,3.1 c-0.6,0.5-1.3,1-2,1.5c-0.8-0.9-1.9-1.3-3-1.5c-2.3-0.3-4.3,0.2-5.9,2.1c-0.2,0.3-0.4,0.7-0.4,1.1c0,6,0,12,0,18.1 c0,0.3,0,0.5,0,0.8c-1.6,0-3.1,0-4.7,0c0-0.3,0-0.5,0-0.8c0-5.8,0-11.5,0-17.2c0-1,0-2.1-0.3-3C119.5,31.7,118,30.8,116,31.1z"></path> <path class="st20" d="M213.3,21c0-0.4,0-0.6,0-0.9c0.3,0,0.5,0,0.7,0c1.6,0,3.2,0,4.8,0c0.5,0,0.9,0,1.3,0.2c1.2,0.3,2,1.1,2.2,2.3 c0.2,1.1,0.4,2.3,0.4,3.4c0,5,0,10,0,15.1c0,0.2,0,0.5,0,0.9c0.3-0.3,0.4-0.5,0.5-0.6c2-2.6,4-5.1,6-7.7c1.3-1.7,2.9-3,5.2-3.3 c1.1-0.1,2.1-0.1,3.2-0.2c0,0.5,0,0.9,0,1.2c-0.5,0.1-1.1,0.2-1.6,0.3c-1.3,0.3-2.4,0.9-3.2,2c-2,2.4-3.9,4.9-5.8,7.4 c0,0-0.1,0.1-0.1,0.3c1.6,2.1,3.3,4.2,5,6.3c1.2,1.5,2.5,3,3.8,4.4c0.9,0.9,2,1.5,3.2,1.8c0.3,0.1,0.5,0.1,0.5,0.5 c0,0.4-0.1,0.6-0.5,0.8c-2.6,0.7-5,0.3-7.1-1.3c-1.1-0.8-2-1.8-2.8-2.9c-2-2.4-3.8-5-5.6-7.5c-0.1-0.2-0.3-0.3-0.5-0.6 c0,4.1,0,8,0,12c-1.6,0-3.2,0-4.8,0c0-0.3,0-0.5,0-0.8c0-9.3,0-18.7,0-28c0-0.6,0-1.2-0.1-1.8c-0.3-2-1.4-3-3.4-3 C214.1,21,213.7,21,213.3,21z"></path> <path class="st20" d="M157.8,30c0,0.5,0,0.8,0,1.2c-0.4,0-0.9,0.1-1.2,0.2c-1.3,0.3-2.5,0.8-3.4,1.8c-2.1,2.5-4.1,5.1-6.2,7.7 c0.3,0.5,0.7,0.9,1,1.3c2,2.5,3.9,5,5.9,7.5c0.8,1,1.8,1.9,2.8,2.7c0.6,0.5,1.5,0.8,2.2,1c0.3,0.1,0.6,0.1,0.6,0.6 c0,0.4-0.1,0.6-0.5,0.7c-2.9,0.8-5.6,0.1-7.9-1.8c-0.8-0.6-1.4-1.4-2-2.2c-1.9-2.5-3.8-5-5.7-7.5c-0.1-0.2-0.3-0.3-0.5-0.5 c0,3.9,0,7.9,0,11.8c-1.6,0-3.1,0-4.7,0c0-0.3,0-0.5,0-0.8c0-9.1,0-18.2,0-27.4c0-0.9,0-1.8-0.2-2.7c-0.3-1.9-1.5-2.7-3.4-2.8 c-0.4,0-0.7,0-1.1,0c0-0.3,0-0.6,0-0.9c0,0,0,0,0.1,0c2,0,4-0.1,6,0c2,0.1,2.9,1.2,3.1,3.3c0.1,0.8,0.1,1.6,0.1,2.4 c0,5,0,10,0,15.1c0,0.3,0,0.5,0,0.7c0,0,0.1,0,0.1,0c0.1-0.1,0.3-0.3,0.4-0.5c2.3-2.8,4.5-5.7,6.8-8.6c1.5-1.8,3.5-2.6,5.9-2.7 C156.6,30,157.2,30,157.8,30z"></path> <path class="st20" d="M187.1,54.7c-1.6,0-3.1,0-4.7,0c0-0.3,0-0.5,0-0.8c0-6,0-12,0-18.1c0-0.8-0.1-1.6-0.3-2.4 c-0.4-1.5-1.4-2.3-3-2.3c-0.5,0-0.9,0-1.4,0c0-0.3,0-0.6,0-0.9c0,0,0,0,0.1,0c2.1,0,4.1,0,6.1,0.1c1.4,0.1,2,0.6,3,1.9 c0.3-0.2,0.6-0.4,0.9-0.6c2.9-1.9,6.1-2.4,9.5-1.5c3.2,0.9,4.9,3.1,5.4,6.2c0.2,1,0.3,2,0.3,3c0,4.9,0,9.8,0,14.7 c0,0.3,0,0.5,0,0.8c-1.6,0-3.1,0-4.7,0c0-0.3,0-0.5,0-0.8c0-4.9,0-9.7,0-14.6c0-1.4-0.1-2.7-0.6-4c-1.2-3.1-4.6-4.4-7.6-3 c-0.4,0.2-0.7,0.4-1.1,0.6c-1.3,0.8-2,1.8-2,3.5c0.1,5.8,0,11.6,0,17.4C187.1,54.1,187.1,54.4,187.1,54.7z"></path> <path class="st20" d="M166,54.6c-1.6,0-3.1,0-4.7,0c0-0.3,0-0.5,0-0.7c0-9.4,0-18.7,0-28.1c0-0.6,0-1.2-0.1-1.8 c-0.3-2.1-1.4-3.1-3.5-3.1c-0.3,0-0.6,0-1,0c0-0.3,0-0.6,0-0.9c0,0,0-0.1,0.1-0.1c2.1,0,4.3,0,6.4,0.1c1.2,0.1,2.1,0.8,2.4,2 c0.3,1.2,0.5,2.3,0.5,3.5c0,9.5,0,19,0,28.5C166,54.3,166,54.4,166,54.6z"></path> <path class="st20" d="M167.3,31c0-0.4,0-0.6,0-1c0.4,0,0.8,0,1.1,0c1.5,0,3.1,0,4.6,0.1c2.4,0.2,3.3,1.2,3.5,3.6 c0.1,0.9,0.1,1.8,0.1,2.7c0,5.9,0,11.7,0,17.6c0,0.2,0,0.5,0,0.7c-1.6,0-3.1,0-4.7,0c0-0.3,0-0.5,0-0.8c0-5.9,0-11.8,0-17.7 c0-0.9-0.1-1.8-0.3-2.7c-0.4-1.6-1.5-2.4-3.1-2.4C168.2,31,167.7,31,167.3,31z"></path> <path class="st20" d="M203.7,31c0-0.4,0-0.6,0-0.9c0.1,0,0.1-0.1,0.2-0.1c1.9,0,3.7,0,5.6,0c2.3,0.1,3.3,1.1,3.5,3.4 c0.1,0.9,0.1,1.7,0.1,2.5c0,5.9,0,11.9,0,17.8c0,0.3,0,0.5,0,0.8c-1.5,0-3,0-4.6,0c0-0.2,0-0.5,0-0.7c0-5.5,0-11,0-16.6 c0-1.1,0-2.3-0.2-3.3c-0.3-2.1-1.4-2.9-3.5-2.9C204.4,31,204.1,31,203.7,31z"></path> <path class="st20" d="M209.9,21.1c1.1,0,2,0.6,2.5,1.5c0.6,1,0.7,2.1,0.1,3.2c-0.6,1-2.2,1.3-3.4,0.6c-1.2-0.7-1.9-2.4-1.5-3.7 C207.9,21.7,208.6,21.2,209.9,21.1z"></path> <path class="st20" d="M176.4,24.9c0.1,1.8-2.2,2.3-3.5,1.6c-1.4-0.7-2.2-2.6-1.6-4.1c0.5-1.3,2.2-1.8,3.5-1 C175.9,22.1,176.3,23.2,176.4,24.9z"></path> <g class="st1"> <path class="st18" d="M71.4,72.4c0.3-0.6,0.6-1.2,0.8-1.8c0.1-0.3,0.5-1.2,1-2.7l0.6-1.6c0.5-1.2,0.8-2,0.9-2.3 c0.3-0.6,0.6-0.9,0.9-1c0.3,0,0.4,0,0.4,0.2c0,0.1,0,0.3,0,0.5c0,0.1-0.1,0.7-0.3,1.6c-0.2,0.9-0.2,1.9-0.2,3 c0,0.8,0.1,1.4,0.2,1.9c0,0.1,0.1,0.3,0.1,0.5c0,0.2,0.1,0.4,0.2,0.6c0.2-0.4,0.4-0.9,0.6-1.7c0.2-0.7,0.5-1.8,0.9-3.4 c0.4-1.5,0.9-3.1,1.4-4.7c0.5-1.4,1.1-2.7,1.8-4.2c0.3-0.7,0.6-1,0.9-1.1c0.1,0,0.3,0,0.4,0.1s0.1,0.2,0.2,0.3 c0,0.1-0.1,0.5-0.5,1.2c-0.6,1.3-1.2,2.6-1.8,4.1c-0.6,1.7-1.3,4.1-2.1,7.2c-0.3,1.4-0.6,2.4-0.9,3c-0.2,0.6-0.6,0.9-1,1 c-0.4,0.1-0.7,0-0.9-0.3c-0.3-0.3-0.4-0.7-0.6-1.4c-0.2-1-0.3-2.3-0.2-3.9c-0.3,0.5-0.5,1.1-0.8,2c-0.2,0.6-0.4,1.2-0.6,1.8 c-0.3,0.9-0.5,1.4-0.6,1.7c-0.1,0.5-0.3,0.8-0.5,1.1c-0.1,0.2-0.3,0.3-0.6,0.4c-0.3,0-0.5,0-0.7-0.3c-0.1-0.1-0.2-0.3-0.3-0.6 c-0.3-1.7,0-4.8,0.9-9.5c0.5-2.3,0.7-3.6,0.7-4.2c0-0.5,0.1-0.8,0.2-0.9c0.1-0.2,0.3-0.3,0.5-0.4c0.3,0,0.5,0,0.5,0.4 c0,0.4,0,0.9-0.1,1.7c-0.1,0.9-0.4,2.1-0.8,3.8c-0.3,1.1-0.4,2-0.5,2.5C71.5,69.8,71.3,71.6,71.4,72.4z"></path> <path class="st18" d="M82.1,68c0.4-0.6,0.9-1.2,1.3-1.7c0.6-0.6,1-0.9,1.3-1c0.1,0,0.3,0,0.4,0.1c0.1,0.1,0.2,0.2,0.3,0.4 c0,0.2,0,0.5-0.3,1c-0.4,0.9-0.7,1.7-0.9,2.4c-0.2,0.6-0.2,1-0.2,1.2c0,0.2,0.1,0.3,0.3,0.2c0.4-0.1,0.9-0.9,1.5-2.4 c0.1-0.3,0.3-0.5,0.4-0.5c0.1,0,0.2,0,0.3,0.2c0,0.3-0.1,0.9-0.5,1.7c-0.3,0.8-0.7,1.4-1.2,1.8c-0.3,0.3-0.6,0.5-0.9,0.6 c-0.3,0-0.5,0-0.7-0.3c-0.1-0.1-0.2-0.3-0.2-0.5c-0.1-0.6,0-1.4,0.3-2.3c0-0.2,0.3-0.8,0.6-1.8c-1.3,1-2.2,2.8-2.7,5.4 c0,0.3-0.1,0.5-0.3,0.5c-0.1,0-0.3,0-0.4-0.1c-0.1-0.1-0.2-0.2-0.2-0.3c0-0.2,0-0.9,0.3-2.1c0.5-2.2,0.9-4,1.4-5.5 c0.5-1.5,1-3.2,1.5-4.8c0.1-0.4,0.3-0.7,0.3-0.9c0.1-0.1,0.2-0.2,0.3-0.3c0.1,0,0.3,0,0.4,0.1c0.1,0.1,0.1,0.2,0.2,0.3 c0,0.2,0,0.5-0.2,0.9c-0.5,1.3-1,2.7-1.5,4.3C82.5,66.3,82.2,67.4,82.1,68z"></path> <path class="st18" d="M86.9,70.5l0,0.2c0,0.1,0.1,0.3,0.2,0.4c0.2,0.2,0.5,0.3,0.9,0.2c0.9-0.2,1.8-1,2.7-2.6 c0.2-0.3,0.3-0.4,0.5-0.5c0.1,0,0.1,0,0.2,0.1c0,0,0.1,0.1,0.1,0.1c0,0.3-0.2,0.8-0.7,1.6c-0.4,0.6-0.9,1.2-1.5,1.6 c-0.5,0.5-1.1,0.7-1.6,0.8c-0.5,0.1-1,0-1.4-0.3c-0.3-0.2-0.4-0.5-0.5-1c-0.2-1.2,0.1-2.4,1-3.8c0.7-1.1,1.5-1.7,2.1-1.8 c0.2,0,0.4,0,0.5,0.1c0.2,0.1,0.3,0.3,0.4,0.5c0.1,0.4,0,0.9-0.3,1.5C89.2,68.8,88.3,69.8,86.9,70.5z M87,69.6 c0.5-0.3,0.8-0.5,1-0.8c0.4-0.5,0.7-1,0.9-1.5c0.1-0.2,0.1-0.3,0-0.5c0-0.1-0.1-0.2-0.3-0.2c-0.2,0-0.4,0.2-0.7,0.6 C87.6,67.9,87.2,68.7,87,69.6z"></path> <path class="st18" d="M93,68.7c0.1-0.1,0.1-0.2,0.2-0.3c1.2-1.7,2-2.6,2.5-2.7c0.3,0,0.5,0.1,0.5,0.4c0,0.2,0,0.5-0.2,0.8 c-1,1.8-1.5,3.3-1.2,4.5c0.1,0.4,0.3,0.7,0.5,1c0.1,0.1,0.2,0.3,0.2,0.3c0,0.1,0,0.2-0.1,0.3c-0.1,0.1-0.2,0.2-0.3,0.2 c-0.3,0-0.6-0.1-0.9-0.4c-0.3-0.3-0.4-0.7-0.5-1.2c-0.2-0.9,0-2.1,0.5-3.3c-0.9,0.8-1.5,2.1-2,3.8c-0.1,0.4-0.3,0.6-0.6,0.7 c-0.1,0-0.2,0-0.3,0c-0.1-0.1-0.2-0.2-0.2-0.3c-0.1-0.4,0.2-1.5,0.7-3.2c0.3-0.9,0.5-1.7,0.7-2.1s0.4-0.7,0.6-0.7 c0.1,0,0.2,0,0.3,0.1c0.1,0.1,0.2,0.2,0.2,0.3c0,0.1,0,0.4-0.2,0.7C93.3,67.8,93.1,68.3,93,68.7z"></path> <path class="st18" d="M104.5,69.2c-0.5,0.9-0.9,1.5-1.2,1.9c-0.6,0.9-1.2,1.3-1.6,1.4c-0.2,0-0.5,0-0.6-0.1 c-0.1-0.1-0.2-0.3-0.3-0.5c-0.1-0.8,0.1-1.8,0.8-3.3c0.7-1.5,1.2-2.2,1.6-2.3c0.1,0,0.2,0,0.3,0.1c0.1,0,0.1,0.1,0.2,0.3 c0,0.1,0,0.3,0,0.4c0,0.1-0.2,0.4-0.5,0.9c-0.3,0.5-0.6,1-0.9,1.5c-0.3,0.6-0.4,1.1-0.3,1.3c0,0.1,0.1,0.2,0.3,0.2 c0.3,0,0.7-0.5,1.4-1.5c0.4-0.6,0.7-1.1,0.9-1.4c0-0.1,0.2-0.5,0.5-1.2c0.3-0.6,0.5-0.9,0.5-1.1c0.2-0.3,0.3-0.5,0.5-0.5 c0.1,0,0.2,0,0.3,0.1c0.1,0.1,0.2,0.2,0.2,0.3c0,0.2,0,0.6-0.2,1.1c-0.2,0.6-0.4,1.2-0.6,1.8c-0.3,0.9-0.5,1.6-0.6,2.3 c0.4-0.3,0.8-0.7,1-1.2c0.5-0.8,0.8-1.3,0.9-1.6c0.1-0.3,0.2-0.5,0.3-0.5c0.2,0,0.3,0,0.4,0.2c0.1,0.4-0.1,1-0.6,1.8 c-0.6,1-1.4,2-2.4,2.8c-0.3,1.5-0.6,2.8-1,3.9c-0.6,1.9-1.5,3-2.5,3.2c-0.4,0.1-0.8,0-1.1-0.3c-0.3-0.2-0.4-0.5-0.5-0.9 c-0.2-1.1,0.3-2.4,1.7-3.8c0.4-0.4,1-1,1.8-1.7c0.3-0.3,0.6-0.5,0.7-0.6c0-0.3,0.2-0.8,0.3-1.4C104.2,70.2,104.4,69.6,104.5,69.2z M103.4,73.7c-0.7,0.5-1.3,1.2-2,2.1c-0.6,0.9-0.9,1.6-0.8,2.3c0,0.1,0.1,0.2,0.2,0.3c0.1,0.1,0.3,0.1,0.5,0.1 c0.5-0.1,1-0.8,1.5-2c0-0.2,0.3-0.9,0.5-2C103.2,74.2,103.3,74,103.4,73.7z"></path> <path class="st18" d="M110.7,65c0.6-0.1,0.9,0.2,1.1,0.9c0.2,0.9,0,2.2-0.6,3.8c-0.6,1.8-1.4,2.7-2.3,2.8c-0.4,0.1-0.7,0-1-0.4 c-0.1-0.2-0.2-0.4-0.3-0.6c-0.2-0.9,0-1.9,0.4-3.1c0.4-1.1,0.9-2,1.6-2.7C109.9,65.3,110.3,65.1,110.7,65z M110.3,69.2 c-0.2-0.1-0.3-0.2-0.3-0.3c0,0,0.1-0.2,0.3-0.5c0.5-0.9,0.7-1.5,0.6-1.9c0,0,0-0.1-0.1-0.2c-0.1-0.1-0.2-0.1-0.3-0.1 c-0.2,0-0.5,0.3-0.9,0.9c-0.5,0.7-0.8,1.3-1,2c-0.2,0.8-0.3,1.4-0.2,1.8c0,0.1,0.1,0.2,0.2,0.3c0.1,0.1,0.3,0.1,0.4,0.1 c0.3,0,0.6-0.4,0.9-0.9c0.1-0.3,0.2-0.5,0.3-0.7C110.3,69.4,110.4,69.2,110.3,69.2z"></path> <path class="st18" d="M114.9,70.5c-0.2,0.5-0.4,0.9-0.6,1.2c-0.3,0.5-0.7,0.9-1.1,0.9c-0.3,0-0.6,0-0.9-0.3 c-0.2-0.2-0.3-0.5-0.3-0.7c-0.2-0.9,0-2,0.6-3.3c0.3-0.6,0.5-1.1,0.8-1.5c0.2-0.3,0.4-0.5,0.6-0.5c0.1,0,0.2,0,0.3,0.1 c0.1,0,0.1,0.1,0.1,0.2c0,0.1,0,0.4-0.3,0.7c-0.5,0.8-0.8,1.5-1,2.2c-0.2,0.8-0.3,1.3-0.2,1.7c0,0.1,0,0.2,0.1,0.2 c0.1,0,0.1,0,0.2,0c0.4,0,0.8-0.7,1.2-1.8c0.2-0.6,0.4-1.2,0.5-1.9c0-0.4,0.2-0.7,0.3-1c0.1-0.3,0.3-0.5,0.5-0.5 c0.1,0,0.2,0,0.3,0.1c0.1,0.1,0.2,0.2,0.2,0.3c0,0.3-0.1,0.9-0.4,1.8c-0.2,0.7-0.3,1.2-0.2,1.6s0.3,0.8,0.6,1 c0.1,0.1,0.3,0.2,0.6,0.3c0.2,0,0.3,0.2,0.3,0.4c0,0.1,0,0.3-0.1,0.4c-0.1,0.1-0.2,0.2-0.4,0.2c-0.3,0-0.7,0-1-0.2 c-0.3-0.2-0.5-0.5-0.7-1C115,71,115,70.8,114.9,70.5z"></path> <path class="st18" d="M122.9,68.7c-0.1,0.6-0.2,1.1-0.2,1.4c0,0.3,0,0.6,0,0.7c0,0.2,0.1,0.3,0.3,0.2c0.3,0,0.5-0.3,0.9-0.9 c0.1-0.3,0.3-0.7,0.6-1.4c0.1-0.3,0.2-0.4,0.4-0.5c0.2,0,0.3,0,0.3,0.2c0,0.3-0.2,1-0.7,2c-0.5,1.1-1.1,1.7-1.7,1.8 c-0.3,0-0.5,0-0.7-0.2c-0.1-0.1-0.3-0.3-0.3-0.6c-0.1-0.4,0-0.9,0-1.7c0.1-0.7,0.3-1.7,0.6-2.7c0.7-2.7,1.5-5.1,2.5-7 c0.8-1.5,1.5-2.3,2.1-2.4c0.2,0,0.4,0,0.6,0.1s0.3,0.3,0.3,0.5c0.2,1-0.4,2.8-1.7,5.4c-0.6,1.2-1.3,2.4-2.2,3.6 C123.7,67.8,123.4,68.2,122.9,68.7z M123.4,67c1.2-1.5,2.2-3.4,3-5.5c0.4-1.1,0.6-1.8,0.5-2.1c0-0.1-0.1-0.2-0.3-0.2 c-0.4,0.1-0.9,1-1.7,2.7C124.4,63.2,123.8,64.9,123.4,67z"></path> <path class="st18" d="M128.6,65c0.6-0.1,0.9,0.2,1.1,0.9c0.2,0.9,0,2.2-0.6,3.8c-0.6,1.8-1.4,2.7-2.3,2.8c-0.4,0.1-0.7,0-1-0.4 c-0.1-0.2-0.2-0.4-0.3-0.6c-0.2-0.9,0-1.9,0.4-3.1c0.4-1.1,0.9-2,1.6-2.7C127.8,65.3,128.2,65.1,128.6,65z M128.3,69.2 c-0.2-0.1-0.3-0.2-0.3-0.3c0,0,0.1-0.2,0.3-0.5c0.5-0.9,0.7-1.5,0.6-1.9c0,0,0-0.1-0.1-0.2c-0.1-0.1-0.2-0.1-0.3-0.1 c-0.2,0-0.5,0.3-0.9,0.9c-0.5,0.7-0.8,1.3-1,2c-0.2,0.8-0.3,1.4-0.2,1.8c0,0.1,0.1,0.2,0.2,0.3c0.1,0.1,0.3,0.1,0.4,0.1 c0.3,0,0.6-0.4,0.9-0.9c0.1-0.3,0.2-0.5,0.3-0.7C128.3,69.4,128.3,69.2,128.3,69.2z"></path> <path class="st18" d="M132.9,65c0.6-0.1,0.9,0.2,1.1,0.9c0.2,0.9,0,2.2-0.6,3.8c-0.6,1.8-1.4,2.7-2.3,2.8c-0.4,0.1-0.7,0-1-0.4 c-0.1-0.2-0.2-0.4-0.3-0.6c-0.2-0.9,0-1.9,0.4-3.1c0.4-1.1,0.9-2,1.6-2.7C132.2,65.3,132.6,65.1,132.9,65z M132.6,69.2 c-0.2-0.1-0.3-0.2-0.3-0.3c0,0,0.1-0.2,0.3-0.5c0.5-0.9,0.7-1.5,0.6-1.9c0,0,0-0.1-0.1-0.2c-0.1-0.1-0.2-0.1-0.3-0.1 c-0.2,0-0.5,0.3-0.9,0.9c-0.5,0.7-0.8,1.3-1,2c-0.2,0.8-0.3,1.4-0.2,1.8c0,0.1,0.1,0.2,0.2,0.3c0.1,0.1,0.3,0.1,0.4,0.1 c0.3,0,0.6-0.4,0.9-0.9c0.1-0.3,0.2-0.5,0.3-0.7C132.6,69.4,132.6,69.2,132.6,69.2z"></path> <path class="st18" d="M138,67.5c-0.2,1.2-0.3,2.1-0.2,2.7c0,0.3,0.2,0.5,0.3,0.7c0.2,0.2,0.4,0.3,0.6,0.3c0.5-0.1,1-0.5,1.5-1.3 c0.3-0.5,0.6-0.9,0.8-1.4c0.1-0.3,0.3-0.5,0.4-0.5c0.2,0,0.3,0,0.3,0.2c0,0.3-0.2,0.9-0.6,1.8c-0.7,1.4-1.5,2.2-2.4,2.4 c-0.5,0.1-1-0.1-1.3-0.6c-0.3-0.4-0.4-0.7-0.5-1.2c0-0.4-0.1-0.9,0-1.6c-0.4,0.5-0.9,1.5-1.5,3.2c-0.2,0.5-0.4,0.7-0.6,0.7 c-0.1,0-0.2,0-0.3-0.1c-0.1-0.1-0.1-0.2-0.2-0.3c0-0.3,0.1-1.3,0.6-3c0.8-3,1.7-5.6,2.8-7.8c0.6-1.2,1.2-2.1,1.7-2.7 c0.5-0.5,0.9-0.9,1.2-0.9c0.1,0,0.3,0,0.5,0.1c0.2,0.1,0.3,0.3,0.3,0.5c0.1,0.6,0,1.4-0.5,2.5c-0.5,1.1-1.4,2.5-2.7,4.1 c-0.7,0.9-1.4,1.7-2,2.3c0,0.2-0.2,0.8-0.5,1.8c0.7-1.1,1.3-1.9,1.7-2.4c0.3-0.3,0.7-0.6,1.2-0.9c0.3-0.2,0.6-0.4,0.8-0.4 c0.1,0,0.2,0,0.3,0c0.1,0,0.1,0.1,0.2,0.2c0,0.2-0.1,0.4-0.4,0.6C138.9,66.7,138.4,67.1,138,67.5z M136.7,65.9 c1-1,1.9-2.2,2.7-3.5c0.4-0.7,0.7-1.3,0.9-1.9c0.1-0.4,0.2-0.7,0.2-0.9s-0.1-0.2-0.3-0.2c-0.4,0.1-1,0.8-1.7,2.2 C137.8,62.8,137.2,64.2,136.7,65.9z"></path> <path class="st18" d="M149.2,71.2c0.6-0.7,1.1-1.3,1.4-1.8c0.4-0.8,0.7-1.4,0.9-1.8c0.1-0.2,0.2-0.3,0.3-0.3c0.2,0,0.3,0,0.3,0.2 c0,0.2,0,0.5-0.2,1c-0.6,1.5-1.6,2.9-3,4.2c-0.5,1.8-0.8,3-1.1,3.6c-0.7,1.7-1.5,2.7-2.3,2.8c-0.5,0.1-0.8,0-1.1-0.3 c-0.1-0.2-0.3-0.4-0.3-0.7c-0.2-1.1,0.3-2.3,1.5-3.6c0.2-0.2,1-0.9,2.4-2.1c0.2-0.7,0.3-1.3,0.4-1.7c-0.6,0.9-1.1,1.4-1.6,1.5 c-0.3,0-0.6,0-0.8-0.3c-0.1-0.2-0.2-0.4-0.3-0.6c-0.1-0.5,0-1.2,0.3-2.1c0.4-1.3,0.9-2.3,1.6-3.1c0.6-0.7,1.2-1.1,1.7-1.2 c0.3,0,0.5,0,0.8,0.2c0.2,0.1,0.3,0.3,0.3,0.6c0,0.3,0,0.7-0.1,1.3c0.2,0.1,0.3,0.2,0.3,0.3c0,0,0,0.1,0,0.2 c-0.1,0.3-0.3,0.9-0.6,1.6C149.6,69.9,149.4,70.5,149.2,71.2z M147.6,73.8c-0.9,0.6-1.5,1.3-2.1,2.3c-0.3,0.4-0.4,0.9-0.5,1.3 c0,0.1,0,0.3,0,0.3s0,0.2,0.1,0.2c0.1,0.1,0.2,0.1,0.4,0.1c0.4-0.1,0.9-0.6,1.3-1.7C147.1,75.5,147.3,74.6,147.6,73.8z M148.7,68.8c-0.1-0.1-0.2-0.1-0.2-0.2c0,0,0-0.1,0.1-0.3c0.3-0.4,0.5-0.8,0.6-1.2c0.1-0.3,0.2-0.6,0.1-0.7c0-0.2-0.1-0.3-0.3-0.2 c-0.3,0-0.7,0.4-1.1,1.1c-0.5,0.8-0.9,1.7-1.1,2.6c-0.1,0.5-0.1,0.8-0.1,1c0,0.1,0.1,0.2,0.1,0.3c0,0,0.2,0,0.3,0 c0.3,0,0.5-0.4,0.9-0.9c0.2-0.4,0.4-0.7,0.5-1.1C148.6,69,148.7,68.8,148.7,68.8z"></path> <path class="st18" d="M154.9,65c0.6-0.1,0.9,0.2,1.1,0.9c0.2,0.9,0,2.2-0.6,3.8c-0.6,1.8-1.4,2.7-2.3,2.8c-0.4,0.1-0.7,0-1-0.4 c-0.1-0.2-0.2-0.4-0.3-0.6c-0.2-0.9,0-1.9,0.4-3.1c0.4-1.1,0.9-2,1.6-2.7C154.2,65.3,154.5,65.1,154.9,65z M154.6,69.2 c-0.2-0.1-0.3-0.2-0.3-0.3c0,0,0.1-0.2,0.3-0.5c0.5-0.9,0.7-1.5,0.6-1.9c0,0,0-0.1-0.1-0.2c-0.1-0.1-0.2-0.1-0.3-0.1 c-0.2,0-0.5,0.3-0.9,0.9c-0.5,0.7-0.8,1.3-1,2c-0.2,0.8-0.3,1.4-0.2,1.8c0,0.1,0.1,0.2,0.2,0.3c0.1,0.1,0.3,0.1,0.4,0.1 c0.3,0,0.6-0.4,0.9-0.9c0.1-0.3,0.2-0.5,0.3-0.7C154.5,69.4,154.6,69.2,154.6,69.2z"></path> <path class="st18" d="M159.2,65c0.6-0.1,0.9,0.2,1.1,0.9c0.2,0.9,0,2.2-0.6,3.8c-0.6,1.8-1.4,2.7-2.3,2.8c-0.4,0.1-0.7,0-1-0.4 c-0.1-0.2-0.2-0.4-0.3-0.6c-0.2-0.9,0-1.9,0.4-3.1c0.4-1.1,0.9-2,1.6-2.7C158.5,65.3,158.8,65.1,159.2,65z M158.9,69.2 c-0.2-0.1-0.3-0.2-0.3-0.3c0,0,0.1-0.2,0.3-0.5c0.5-0.9,0.7-1.5,0.6-1.9c0,0,0-0.1-0.1-0.2c-0.1-0.1-0.2-0.1-0.3-0.1 c-0.2,0-0.5,0.3-0.9,0.9c-0.5,0.7-0.8,1.3-1,2c-0.2,0.8-0.3,1.4-0.2,1.8c0,0.1,0.1,0.2,0.2,0.3c0.1,0.1,0.3,0.1,0.4,0.1 c0.3,0,0.6-0.4,0.9-0.9c0.1-0.3,0.2-0.5,0.3-0.7C158.9,69.4,158.9,69.2,158.9,69.2z"></path> <path class="st18" d="M163.9,65.7c0.4-1.6,0.9-3,1.2-4.2c0.4-1.2,0.7-1.9,0.9-2.2c0.2-0.3,0.4-0.5,0.6-0.6c0.1,0,0.2,0,0.3,0.1 c0.1,0.1,0.2,0.2,0.2,0.3c0,0.2,0,0.5-0.2,0.9c-0.7,1.8-1.3,3.7-1.8,5.5c-0.6,2.2-0.8,3.7-0.6,4.7c0.1,0.4,0.2,0.7,0.4,0.9 c0,0,0.2,0.1,0.5,0.3c0,0,0.1,0.1,0.1,0.2c0,0.1,0,0.3-0.1,0.4c-0.1,0.1-0.2,0.2-0.3,0.3c-0.2,0-0.4,0-0.6-0.2 c-0.3-0.2-0.6-0.5-0.7-0.9c0-0.1-0.1-0.4-0.3-0.9c-0.5,1.5-1,2.3-1.7,2.4c-0.4,0.1-0.7-0.1-1-0.5c-0.2-0.3-0.3-0.6-0.4-0.9 c-0.2-1.1,0-2.3,0.6-3.5c0.6-1.2,1.3-2,2.2-2.1C163.3,65.5,163.6,65.6,163.9,65.7z M163.7,66.6c-0.2-0.1-0.4-0.1-0.5-0.1 c-0.6,0.1-1.1,0.6-1.5,1.4c-0.5,1.1-0.7,2.1-0.5,2.9c0,0.1,0,0.2,0.1,0.3c0.1,0.2,0.3,0.2,0.4,0.2c0.3,0,0.5-0.3,0.8-0.9 c0.3-0.7,0.6-1.5,0.9-2.5c0.1-0.3,0.2-0.6,0.2-0.9l0-0.2L163.7,66.6z"></path> <path class="st18" d="M166.6,71.7c0.3,0,0.5,0.1,0.6,0.5c0.1,0.6,0,1.5-0.6,2.7c-0.2,0.5-0.5,0.9-0.8,1.4 c-0.2,0.3-0.4,0.4-0.5,0.5c-0.1,0-0.3,0-0.4-0.1c-0.1-0.1-0.1-0.2-0.1-0.3c0-0.1,0.1-0.4,0.3-0.7c0.7-1,1-2.1,1-3.2 c0-0.2,0-0.4,0.2-0.5C166.3,71.7,166.5,71.7,166.6,71.7z"></path> <path class="st18" d="M177.5,69.2c-0.5,0.9-0.9,1.5-1.2,1.9c-0.6,0.9-1.2,1.3-1.6,1.4c-0.2,0-0.5,0-0.6-0.1 c-0.1-0.1-0.2-0.3-0.3-0.5c-0.1-0.8,0.1-1.8,0.8-3.3c0.7-1.5,1.2-2.2,1.6-2.3c0.1,0,0.2,0,0.3,0.1c0.1,0,0.1,0.1,0.2,0.3 c0,0.1,0,0.3,0,0.4c0,0.1-0.2,0.4-0.5,0.9c-0.3,0.5-0.6,1-0.9,1.5c-0.3,0.6-0.4,1.1-0.3,1.3c0,0.1,0.1,0.2,0.3,0.2 c0.3,0,0.7-0.5,1.4-1.5c0.4-0.6,0.7-1.1,0.9-1.4c0-0.1,0.2-0.5,0.5-1.2c0.3-0.6,0.5-0.9,0.5-1.1c0.2-0.3,0.3-0.5,0.5-0.5 c0.1,0,0.2,0,0.3,0.1s0.2,0.2,0.2,0.3c0,0.2,0,0.6-0.2,1.1c-0.2,0.6-0.4,1.2-0.6,1.8c-0.3,0.9-0.5,1.6-0.6,2.3 c0.4-0.3,0.8-0.7,1-1.2c0.5-0.8,0.8-1.3,0.9-1.6c0.1-0.3,0.2-0.5,0.3-0.5c0.2,0,0.3,0,0.4,0.2c0.1,0.4-0.1,1-0.6,1.8 c-0.6,1-1.4,2-2.4,2.8c-0.3,1.5-0.6,2.8-1,3.9c-0.6,1.9-1.5,3-2.5,3.2c-0.4,0.1-0.8,0-1.1-0.3c-0.3-0.2-0.4-0.5-0.5-0.9 c-0.2-1.1,0.3-2.4,1.7-3.8c0.4-0.4,1-1,1.8-1.7c0.3-0.3,0.6-0.5,0.7-0.6c0-0.3,0.2-0.8,0.3-1.4C177.2,70.2,177.3,69.6,177.5,69.2z M176.3,73.7c-0.7,0.5-1.3,1.2-2,2.1c-0.6,0.9-0.9,1.6-0.8,2.3c0,0.1,0.1,0.2,0.2,0.3c0.1,0.1,0.3,0.1,0.5,0.1 c0.5-0.1,1-0.8,1.5-2c0-0.2,0.2-0.9,0.5-2C176.2,74.2,176.3,74,176.3,73.7z"></path> <path class="st18" d="M183.6,65c0.6-0.1,0.9,0.2,1.1,0.9c0.2,0.9,0,2.2-0.6,3.8c-0.6,1.8-1.4,2.7-2.3,2.8c-0.4,0.1-0.7,0-1-0.4 c-0.1-0.2-0.2-0.4-0.3-0.6c-0.2-0.9,0-1.9,0.4-3.1c0.4-1.1,0.9-2,1.6-2.7C182.8,65.3,183.2,65.1,183.6,65z M183.3,69.2 c-0.2-0.1-0.3-0.2-0.3-0.3c0,0,0.1-0.2,0.3-0.5c0.5-0.9,0.7-1.5,0.6-1.9c0,0,0-0.1-0.1-0.2c-0.1-0.1-0.2-0.1-0.3-0.1 c-0.2,0-0.5,0.3-0.9,0.9c-0.5,0.7-0.8,1.3-1,2c-0.2,0.8-0.3,1.4-0.2,1.8c0,0.1,0.1,0.2,0.2,0.3c0.1,0.1,0.3,0.1,0.4,0.1 c0.3,0,0.6-0.4,0.9-0.9c0.1-0.3,0.2-0.5,0.3-0.7C183.3,69.4,183.3,69.2,183.3,69.2z"></path> <path class="st18" d="M187.8,70.5c-0.2,0.5-0.4,0.9-0.6,1.2c-0.3,0.5-0.7,0.9-1.1,0.9c-0.3,0-0.6,0-0.9-0.3 c-0.2-0.2-0.3-0.5-0.3-0.7c-0.2-0.9,0-2,0.6-3.3c0.3-0.6,0.5-1.1,0.8-1.5c0.2-0.3,0.4-0.5,0.6-0.5c0.1,0,0.2,0,0.3,0.1 c0.1,0,0.1,0.1,0.1,0.2c0,0.1,0,0.4-0.3,0.7c-0.5,0.8-0.8,1.5-1,2.2c-0.2,0.8-0.3,1.3-0.2,1.7c0,0.1,0,0.2,0.1,0.2 c0,0,0.1,0,0.2,0c0.4,0,0.8-0.7,1.2-1.8c0.2-0.6,0.4-1.2,0.5-1.9c0-0.4,0.2-0.7,0.3-1c0.1-0.3,0.3-0.5,0.5-0.5 c0.1,0,0.2,0,0.3,0.1c0.1,0.1,0.2,0.2,0.2,0.3c0,0.3-0.1,0.9-0.4,1.8c-0.2,0.7-0.3,1.2-0.2,1.6s0.3,0.8,0.6,1 c0.1,0.1,0.3,0.2,0.6,0.3c0.2,0,0.3,0.2,0.3,0.4c0,0.1,0,0.3-0.1,0.4c-0.1,0.1-0.2,0.2-0.4,0.2c-0.3,0-0.7,0-1-0.2 c-0.3-0.2-0.5-0.5-0.7-1C188,71,187.9,70.8,187.8,70.5z"></path> <path class="st18" d="M195.6,67.4c0.6-2.5,1.3-4.6,2.1-6.2c0.5-1.1,0.9-1.9,1.3-2.5c0.3-0.4,0.5-0.6,0.7-0.6c0.1,0,0.2,0,0.2,0 c0.1,0,0.2,0.1,0.2,0.3c0,0.1,0,0.4-0.2,0.7c-1.2,2.1-2.2,4.4-3,7.2c1-0.6,1.8-1,2.2-1.1c0.3,0,0.6,0,0.9,0.1 c0.3,0.1,0.4,0.3,0.5,0.5c0,0.1,0,0.2,0,0.3c-0.1,0.1-0.2,0.3-0.4,0.3c-0.1,0-0.4,0-0.8-0.2c-0.1,0-0.2,0-0.4,0 c-0.7,0.1-1.5,0.6-2.3,1.4c0.5,0.1,0.8,0.3,1,0.6c0.3,0.4,0.6,0.9,0.7,1.6c0.3,1.7,0.2,3.6-0.5,5.7c-0.3,0.9-0.6,1.6-0.9,2.1 c-0.4,0.5-0.8,0.9-1.2,0.9c-0.3,0-0.7,0-1-0.3c-0.2-0.3-0.4-0.6-0.5-1.1c-0.2-1-0.1-2.7,0.3-4.9c0-0.3,0.2-1,0.5-2.1 c0-0.3,0.1-0.6,0.2-0.9c0,0-0.1,0-0.1,0c-0.2,0-0.3,0-0.3-0.3C194.5,68.7,194.8,68.1,195.6,67.4z M196.2,68.7 c-0.3,0.8-0.5,2.1-0.9,3.9c-0.3,1.8-0.4,3.2-0.2,4.1c0,0.2,0.1,0.3,0.2,0.5c0.1,0.1,0.3,0.2,0.4,0.1c0.4-0.1,0.9-0.9,1.3-2.5 c0.5-1.8,0.6-3.3,0.3-4.7c-0.1-0.5-0.3-0.9-0.5-1.1C196.7,68.9,196.5,68.8,196.2,68.7z"></path> <path class="st18" d="M200.1,70.5l0,0.2c0,0.1,0.1,0.3,0.2,0.4c0.2,0.2,0.5,0.3,0.9,0.2c0.9-0.2,1.8-1,2.7-2.6 c0.2-0.3,0.3-0.4,0.5-0.5c0.1,0,0.2,0,0.2,0.1c0,0,0.1,0.1,0.1,0.1c0,0.3-0.2,0.8-0.7,1.6c-0.4,0.6-0.9,1.2-1.5,1.6 c-0.5,0.5-1.1,0.7-1.6,0.8c-0.5,0.1-1,0-1.4-0.3c-0.3-0.2-0.4-0.5-0.5-1c-0.2-1.2,0.1-2.4,1-3.8c0.7-1.1,1.5-1.7,2.1-1.8 c0.2,0,0.4,0,0.5,0.1c0.2,0.1,0.3,0.3,0.4,0.5c0.1,0.4,0,0.9-0.3,1.5C202.4,68.8,201.5,69.8,200.1,70.5z M200.2,69.6 c0.5-0.3,0.8-0.5,1-0.8c0.4-0.5,0.7-1,0.9-1.5c0.1-0.2,0.1-0.3,0-0.5c0-0.1-0.1-0.2-0.3-0.2c-0.2,0-0.4,0.2-0.7,0.6 C200.7,67.9,200.4,68.7,200.2,69.6z"></path> <path class="st18" d="M205.4,70.5l0,0.2c0,0.1,0.1,0.3,0.2,0.4c0.2,0.2,0.5,0.3,0.9,0.2c0.9-0.2,1.8-1,2.7-2.6 c0.2-0.3,0.3-0.4,0.5-0.5c0.1,0,0.2,0,0.2,0.1c0,0,0.1,0.1,0.1,0.1c0,0.3-0.2,0.8-0.7,1.6c-0.4,0.6-0.9,1.2-1.5,1.6 c-0.5,0.5-1.1,0.7-1.6,0.8c-0.5,0.1-1,0-1.4-0.3c-0.3-0.2-0.4-0.5-0.5-1c-0.2-1.2,0.1-2.4,1-3.8c0.7-1.1,1.5-1.7,2.1-1.8 c0.2,0,0.4,0,0.5,0.1c0.2,0.1,0.3,0.3,0.4,0.5c0.1,0.4,0,0.9-0.3,1.5C207.6,68.8,206.7,69.8,205.4,70.5z M205.4,69.6 c0.5-0.3,0.8-0.5,1-0.8c0.4-0.5,0.7-1,0.9-1.5c0.1-0.2,0.1-0.3,0-0.5c0-0.1-0.1-0.2-0.3-0.2c-0.2,0-0.4,0.2-0.7,0.6 C206,67.9,205.6,68.7,205.4,69.6z"></path> <path class="st18" d="M211.2,68.7c-0.1,0.6-0.2,1.1-0.2,1.4c0,0.3,0,0.6,0,0.7c0,0.2,0.1,0.3,0.3,0.2c0.3,0,0.5-0.3,0.9-0.9 c0.1-0.3,0.3-0.7,0.6-1.4c0.1-0.3,0.2-0.4,0.4-0.5s0.3,0,0.3,0.2c0,0.3-0.2,1-0.7,2c-0.5,1.1-1.1,1.7-1.7,1.8 c-0.3,0-0.5,0-0.7-0.2c-0.1-0.1-0.3-0.3-0.3-0.6c-0.1-0.4,0-0.9,0-1.7c0.1-0.7,0.3-1.7,0.6-2.7c0.7-2.7,1.5-5.1,2.5-7 c0.8-1.5,1.5-2.3,2.1-2.4c0.2,0,0.4,0,0.6,0.1c0.2,0.1,0.3,0.3,0.3,0.5c0.2,1-0.4,2.8-1.7,5.4c-0.6,1.2-1.3,2.4-2.2,3.6 C212,67.8,211.6,68.2,211.2,68.7z M211.6,67c1.2-1.5,2.2-3.4,3-5.5c0.4-1.1,0.6-1.8,0.5-2.1c0-0.1-0.1-0.2-0.3-0.2 c-0.4,0.1-0.9,1-1.7,2.7C212.6,63.2,212.1,64.9,211.6,67z"></path> <path class="st18" d="M221.8,71.2c0.6-0.7,1.1-1.3,1.4-1.8c0.4-0.8,0.7-1.4,0.9-1.8c0.1-0.2,0.2-0.3,0.3-0.3c0.2,0,0.3,0,0.3,0.2 c0,0.2,0,0.5-0.2,1c-0.6,1.5-1.6,2.9-3,4.2c-0.5,1.8-0.8,3-1.1,3.6c-0.7,1.7-1.5,2.7-2.3,2.8c-0.5,0.1-0.8,0-1.1-0.3 c-0.1-0.2-0.3-0.4-0.3-0.7c-0.2-1.1,0.3-2.3,1.5-3.6c0.2-0.2,1-0.9,2.4-2.1c0.2-0.7,0.3-1.3,0.4-1.7c-0.6,0.9-1.1,1.4-1.6,1.5 c-0.3,0-0.6,0-0.8-0.3c-0.1-0.2-0.2-0.4-0.3-0.6c-0.1-0.5,0-1.2,0.3-2.1c0.4-1.3,0.9-2.3,1.6-3.1c0.6-0.7,1.2-1.1,1.7-1.2 c0.3,0,0.5,0,0.8,0.2c0.2,0.1,0.3,0.3,0.3,0.6c0,0.3,0,0.7-0.1,1.3c0.2,0.1,0.3,0.2,0.3,0.3c0,0,0,0.1,0,0.2 c-0.1,0.3-0.3,0.9-0.6,1.6C222.2,69.9,222,70.5,221.8,71.2z M220.2,73.8c-0.9,0.6-1.5,1.3-2.1,2.3c-0.3,0.4-0.4,0.9-0.5,1.3 c0,0.1,0,0.3,0,0.3s0,0.2,0.1,0.2c0.1,0.1,0.2,0.1,0.4,0.1c0.4-0.1,0.9-0.6,1.3-1.7C219.7,75.5,220,74.6,220.2,73.8z M221.3,68.8 c-0.1-0.1-0.2-0.1-0.2-0.2c0,0,0-0.1,0.1-0.3c0.3-0.4,0.5-0.8,0.6-1.2c0.1-0.3,0.2-0.6,0.1-0.7c0-0.2-0.1-0.3-0.3-0.2 c-0.3,0-0.7,0.4-1.1,1.1c-0.5,0.8-0.9,1.7-1.1,2.6c-0.1,0.5-0.1,0.8-0.1,1c0,0.1,0.1,0.2,0.1,0.3c0,0,0.2,0,0.3,0 c0.3,0,0.5-0.4,0.9-0.9c0.2-0.4,0.4-0.7,0.5-1.1C221.2,69,221.3,68.8,221.3,68.8z"></path> <path class="st18" d="M227.5,65c0.6-0.1,0.9,0.2,1.1,0.9c0.2,0.9,0,2.2-0.6,3.8c-0.6,1.8-1.4,2.7-2.3,2.8c-0.4,0.1-0.7,0-1-0.4 c-0.1-0.2-0.2-0.4-0.3-0.6c-0.2-0.9,0-1.9,0.4-3.1c0.4-1.1,0.9-2,1.6-2.7C226.7,65.3,227.1,65.1,227.5,65z M227.2,69.2 c-0.2-0.1-0.3-0.2-0.3-0.3c0,0,0.1-0.2,0.3-0.5c0.5-0.9,0.7-1.5,0.6-1.9c0,0,0-0.1-0.1-0.2c-0.1-0.1-0.2-0.1-0.3-0.1 c-0.2,0-0.5,0.3-0.9,0.9c-0.5,0.7-0.8,1.3-1,2c-0.2,0.8-0.3,1.4-0.2,1.8c0,0.1,0.1,0.2,0.2,0.3c0.1,0.1,0.3,0.1,0.4,0.1 c0.3,0,0.6-0.4,0.9-0.9c0.1-0.3,0.2-0.5,0.3-0.7C227.2,69.4,227.2,69.2,227.2,69.2z"></path> <path class="st18" d="M231.8,65c0.6-0.1,0.9,0.2,1.1,0.9c0.2,0.9,0,2.2-0.6,3.8c-0.6,1.8-1.4,2.7-2.3,2.8c-0.4,0.1-0.7,0-1-0.4 c-0.1-0.2-0.2-0.4-0.3-0.6c-0.2-0.9,0-1.9,0.4-3.1c0.4-1.1,0.9-2,1.6-2.7C231.1,65.3,231.5,65.1,231.8,65z M231.5,69.2 c-0.2-0.1-0.3-0.2-0.3-0.3c0,0,0.1-0.2,0.3-0.5c0.5-0.9,0.7-1.5,0.6-1.9c0,0,0-0.1-0.1-0.2c-0.1-0.1-0.2-0.1-0.3-0.1 c-0.2,0-0.5,0.3-0.9,0.9c-0.5,0.7-0.8,1.3-1,2c-0.2,0.8-0.3,1.4-0.2,1.8c0,0.1,0.1,0.2,0.2,0.3c0.1,0.1,0.3,0.1,0.4,0.1 c0.3,0,0.6-0.4,0.9-0.9c0.1-0.3,0.2-0.5,0.3-0.7C231.5,69.4,231.5,69.2,231.5,69.2z"></path> <path class="st18" d="M236.5,65.7c0.4-1.6,0.9-3,1.2-4.2c0.4-1.2,0.7-1.9,0.9-2.2c0.2-0.3,0.4-0.5,0.6-0.6c0.1,0,0.2,0,0.3,0.1 c0.1,0.1,0.2,0.2,0.2,0.3c0,0.2,0,0.5-0.2,0.9c-0.7,1.8-1.3,3.7-1.8,5.5c-0.6,2.2-0.8,3.7-0.6,4.7c0.1,0.4,0.2,0.7,0.4,0.9 c0,0,0.2,0.1,0.5,0.3c0,0,0.1,0.1,0.1,0.2c0,0.1,0,0.3-0.1,0.4c-0.1,0.1-0.2,0.2-0.3,0.3c-0.2,0-0.4,0-0.6-0.2 c-0.3-0.2-0.6-0.5-0.7-0.9c0-0.1-0.1-0.4-0.3-0.9c-0.5,1.5-1,2.3-1.7,2.4c-0.4,0.1-0.7-0.1-1-0.5c-0.2-0.3-0.3-0.6-0.4-0.9 c-0.2-1.1,0-2.3,0.6-3.5c0.6-1.2,1.3-2,2.2-2.1C235.9,65.5,236.2,65.6,236.5,65.7z M236.3,66.6c-0.2-0.1-0.4-0.1-0.5-0.1 c-0.6,0.1-1.1,0.6-1.5,1.4c-0.5,1.1-0.7,2.1-0.5,2.9c0,0.1,0,0.2,0.1,0.3c0.1,0.2,0.3,0.2,0.4,0.2c0.3,0,0.5-0.3,0.8-0.9 c0.3-0.7,0.6-1.5,0.9-2.5c0.1-0.3,0.2-0.6,0.2-0.9l0-0.2L236.3,66.6z"></path> </g> <g class="st1"> <path class="st21" d="M29.1,54.4c1.1-3.9,2.9-7,5.5-9.4c0.4-0.3,0.7-0.6,1.1-0.9c-1.4-0.6-2.9-1.7-4.4-3.2 c-0.9-0.9-1.7-1.8-2.2-2.5c-0.5,0.7-1.3,1.6-2.2,2.5c-1.5,1.5-3,2.6-4.4,3.2c0.4,0.3,0.7,0.6,1.1,0.9 C26.2,47.4,28.1,50.5,29.1,54.4z"></path> <path class="st21" d="M12.2,48.7C10.1,48,8.1,48,6.5,48.2c0.3,0.8,0.7,1.6,1,2.4c1.6,3.4,3.6,6.6,5.7,9.6 c-0.6-3.5-0.8-7.1-0.9-10.3C12.3,49.5,12.2,49.1,12.2,48.7z"></path> <path class="st21" d="M13.8,42.9c0.4,1.8,0.5,4.2,0.7,7c0.2,4.7,0.5,10.5,2.3,15c1.5,1.9,3.2,3.7,4.8,5.5c2,2.2,4.2,4.3,6.4,6.3 l-0.1-17C26.5,46,17.8,43.3,13.8,42.9z"></path> <path class="st21" d="M46,48.7c0,0.4,0,0.9-0.1,1.3c-0.1,3.4-0.3,7.3-1.1,11.1c0,0,0.1-0.1,0.1-0.1c2.9-4,5.4-8.1,7.1-12.7 C50.5,48,48.3,48,46,48.7z"></path> <path class="st21" d="M41.3,65.3c2-4.6,2.2-10.6,2.5-15.4c0.1-2.8,0.2-5.2,0.7-7c-4,0.5-12.7,3.1-14,16.9l-0.2,17.4 c0.1-0.1,0.2-0.2,0.3-0.3c3.7-3.4,7.2-7,10.4-10.8l0,0C41.1,65.8,41.2,65.5,41.3,65.3z"></path> <path class="st22" d="M58,8c-4.3,0-8.6,0-12.9,0c-0.5,0-0.5,0-0.5-0.5c0-0.5-0.1-0.7-0.7-0.7c-2.5,0-5.1,0-7.6,0 c-0.5,0-0.7,0.2-0.7,0.7c0,1.5,0,3,0,4.5c0,0.6,0.1,0.7,0.7,0.7c2.4,0,4.9,0,7.3,0c0.9,0,0.9,0,1-0.8c0,0,0,0,0,0 c3.2,0,6.4,0,9.7,0c0,0.2,0,0.3,0,0.4c0,8.4,0,16.7,0,25.1c0,0.9-0.1,1.9-0.2,2.8c-0.2,2-0.7,4-1.3,6c-1.7-0.3-4.1-0.4-6.7,0.2 c0.1-1.9,0.4-3.4,0.8-4.2l0.9-1.6H46c-1.4,0-4.6,0.2-7.9,1.9c-3.1-0.3-6.9-4.8-8.1-6.6l-0.9-1.3l-0.9,1.3c-1.2,1.8-5,6.3-8.1,6.6 c-3.3-1.7-6.4-1.9-7.9-1.9h-1.8l0.9,1.6c0.4,0.8,0.7,2.3,0.8,4.2c-2.4-0.6-4.6-0.5-6.3-0.3c-0.9-2.8-1.4-5.7-1.4-8.7 c0-8.4,0-16.8,0-25.2c0-0.3,0.1-0.4,0.4-0.4c3,0,5.9,0,8.9,0c0.1,0,0.2,0,0.3,0c0.1,0.7,0.2,0.9,0.7,0.9c2.6,0,5.2,0,7.8,0 c0.4,0,0.6-0.1,0.6-0.5c0-1.6,0-3.2,0-4.8c0-0.4-0.2-0.6-0.6-0.6c-2.6,0-5.2,0-7.8,0c-0.4,0-0.6,0.2-0.6,0.6c0,0.2,0,0.4,0,0.6 C9.2,8,4.6,8,0,8c0,0.2,0,0.3,0,0.5c0,9.9,0,19.8,0,29.7c0,1,0.1,2.1,0.2,3.1c0.3,2.7,1,5.3,2,7.8c1.7,4.4,3.9,8.4,6.6,12.2 c5.7,8.2,12.7,15.4,20.4,21.8c0.1,0,0.1,0.1,0.2,0.1c0.1-0.1,0.2-0.1,0.3-0.2C36.6,77,43,70.5,48.5,63c3-4,5.6-8.3,7.4-12.9 c1.5-3.8,2.5-7.7,2.5-11.8c0-9.9,0-19.9,0-29.8C58.6,8,58.6,8,58,8z M26.9,40.8c0.9-0.9,1.7-1.8,2.2-2.5c0.5,0.7,1.3,1.6,2.2,2.5 c1.5,1.5,3,2.6,4.4,3.2c-0.4,0.3-0.7,0.6-1.1,0.9c-2.6,2.4-4.4,5.5-5.5,9.4c-1.1-3.9-2.9-7-5.5-9.4c-0.4-0.3-0.7-0.6-1.1-0.9 C23.9,43.5,25.4,42.4,26.9,40.8z M7.5,50.6c-0.4-0.8-0.7-1.6-1-2.4C8.1,48,10,48,12.2,48.7c0,0.4,0,0.9,0.1,1.3 c0.1,3.1,0.3,6.8,0.9,10.3C11.1,57.2,9.1,54,7.5,50.6z M21.6,70.4c-1.7-1.8-3.3-3.6-4.8-5.5c-1.8-4.6-2.1-10.4-2.3-15 c-0.1-2.8-0.2-5.2-0.7-7c4,0.5,12.7,3.1,14.1,16.9l0.1,17C25.8,74.7,23.7,72.6,21.6,70.4z M30.6,76.8c-0.1,0.1-0.2,0.2-0.3,0.3 l0.2-17.4c1.4-13.8,10-16.4,14-16.9c-0.4,1.8-0.5,4.2-0.7,7c-0.2,4.8-0.5,10.8-2.5,15.4c-0.1,0.2-0.2,0.5-0.3,0.7l0,0 C37.8,69.8,34.3,73.4,30.6,76.8z M44.9,61c0.8-3.8,0.9-7.7,1.1-11.1c0-0.4,0-0.9,0.1-1.3c2.3-0.7,4.4-0.6,6.1-0.4 c-1.8,4.6-4.3,8.7-7.1,12.7C44.9,61,44.9,61,44.9,61z"></path> </g> </g> <g class="st0"> <g class="st1"> <path d="M107,69.3c3.9,6.8,8.7,11,16.6,10.9c-9.3,5.7-19,3.5-25.8-5.1c-9.6,4.8-21.5,7.6-34.4,7.6c-31.6,0-57.1-17-57.1-38 c0-21,25.6-38,57.1-38c31.6,0,57.1,17,57.1,38C120.6,54.1,115.5,62.7,107,69.3L107,69.3z"></path> <path class="st21" d="M66.2,82.3c-10.3,0-18.6-8.3-18.6-18.6c0-10.3,8.3-18.6,18.6-18.6"></path> <line class="st21" x1="120.5" y1="42.4" x2="66.2" y2="45"></line> <path class="st23" d="M120.5,42.4L66.2,45c-10.3,0-18.6,8.3-18.6,18.6c0,17.2,18.6,19,18.6,19C78.1,82.3,89,79.5,97.9,75 c6.8,8.6,16.5,10.8,25.8,5.1c-7.9,0.1-12.7-4-16.6-10.9c8.5-6.6,13.6-15.2,13.6-24.6C120.6,43.9,120.6,43.2,120.5,42.4L120.5,42.4 z"></path> <path class="st16" d="M66.2,45V6.8C55.6,6.8,47,15.4,47,26C47,37,55.4,45,66.2,45z"></path> <path class="st24" d="M115.5,78.3c-6.7,2.2-11.9,1.2-17.5-3.1c6.8,8.4,16.4,10.5,25.6,4.9C120.7,80.2,118.1,79.6,115.5,78.3z"></path> <path class="st25" d="M66.2,6.8V45l54.3-2.6C118.8,23.1,95.4,7.7,66.2,6.8z"></path> <path class="st26" d="M66.2,32v13l54.3-2.6C113.4,32.7,74.8,30.3,66.2,32z"></path> <g> <path d="M60.8,18.2c1.5,0,2.6-1.2,2.6-2.6c0-1.5-1.2-2.6-2.6-2.6c-1.5,0-2.6,1.2-2.6,2.6C58.2,17,59.4,18.2,60.8,18.2z"></path> <path class="st16" d="M62,14.9c0.8,0,1.4-0.6,1.4-1.4c0-0.8-0.6-1.4-1.4-1.4c-0.8,0-1.4,0.6-1.4,1.4S61.3,14.9,62,14.9z"></path> </g> <path class="st23" d="M8.1,52.1c0-17.5,17.8-32.2,42-36.6c3.4-5.3,9.4-8.8,16.1-8.8c-0.9,0-1.8,0-2.8,0c-31.6,0-57.1,17-57.1,38 c0,3.4,0.7,6.7,1.9,9.8C8.2,53.7,8.1,52.9,8.1,52.1z"></path> <path class="st27" d="M66.2,14.2c26.1,0.3,47.9,12.2,54.3,28.2C118.8,23.1,95.4,7.7,66.2,6.8V14.2z"></path> <path class="st28" d="M66.2,41.7C56.1,41,48.4,33.2,48.4,22.7c0-2.2,0.4-4.3,1-6.2c-1.6,2.8-2.5,6-2.5,9.5c0,11,8.5,19,19.3,19 L66.2,41.7L66.2,41.7z"></path> <path class="st24" d="M71.7,49.2l48.8-2.3c0.1-1.5,0.1-3,0-4.5L66.2,45c-10.3,0-18.6,8.3-18.6,18.6c0,6,2.3,10.2,5.3,13 c0.5,0.5,1.1,0.9,1.6,1.4c-1.7-2.6-2.8-5.8-2.8-10.1C51.6,55.8,60.8,49.7,71.7,49.2L71.7,49.2z"></path> <g> <circle class="st16" cx="18.9" cy="45" r="4.3"></circle> <ellipse transform="matrix(0.1602 -0.9871 0.9871 0.1602 -17.6083 69.3029)" class="st16" cx="31.9" cy="45" rx="4.3" ry="4.3"></ellipse> <ellipse transform="matrix(0.1602 -0.9871 0.9871 0.1602 -6.637 82.1982)" class="st16" cx="45" cy="45" rx="4.3" ry="4.3"></ellipse> </g> </g> <g class="st1"> <path d="M140.7,27.1v11.6h-2.9V27.1h-4.2v-2.4h11.2v2.4H140.7z"></path> <path d="M155,24.5c2,0,3.6,0.6,4.8,1.9c1.3,1.4,1.9,3.1,1.9,5.3c0,2.1-0.6,3.9-1.9,5.3c-1.2,1.3-2.8,1.9-4.8,1.9 c-2,0-3.6-0.6-4.8-1.9c-1.3-1.4-1.9-3.2-1.9-5.3c0-2.1,0.6-3.9,1.9-5.3C151.5,25.1,153.1,24.5,155,24.5z M155,27 c-1.2,0-2.2,0.5-2.9,1.5c-0.6,0.8-0.9,1.9-0.9,3.3c0,1.5,0.4,2.7,1.2,3.6c0.7,0.8,1.6,1.1,2.7,1.1c1.2,0,2.2-0.5,2.9-1.5 c0.6-0.8,0.9-1.9,0.9-3.3c0-1.5-0.4-2.7-1.2-3.6C157,27.3,156.1,27,155,27z"></path> <path d="M178,29.4h-2.7c-0.4-1.6-1.4-2.4-3-2.4c-1.2,0-2.1,0.5-2.8,1.4c-0.6,0.8-0.8,2-0.8,3.4c0,1.6,0.4,2.8,1.1,3.6 c0.6,0.7,1.4,1.1,2.5,1.1c0.9,0,1.6-0.2,2.1-0.7c0.5-0.5,0.8-1.1,0.9-2h2.8c-0.1,1.7-0.7,3-1.9,3.9c-1,0.8-2.4,1.2-4,1.2 c-2.1,0-3.7-0.7-4.8-2.2c-1-1.3-1.5-2.9-1.5-5c0-2.4,0.7-4.2,1.9-5.5c1.1-1.1,2.6-1.7,4.4-1.7c2.2,0,3.8,0.7,4.9,2.2 C177.6,27.4,177.9,28.3,178,29.4z"></path> <path d="M188.8,24.5c2,0,3.6,0.6,4.8,1.9c1.3,1.4,1.9,3.1,1.9,5.3c0,2.1-0.7,3.9-1.9,5.3c-1.2,1.3-2.8,1.9-4.8,1.9 c-2,0-3.6-0.6-4.8-1.9c-1.3-1.4-1.9-3.2-1.9-5.3c0-2.1,0.6-3.9,1.9-5.3C185.2,25.1,186.8,24.5,188.8,24.5z M188.8,27 c-1.2,0-2.2,0.5-2.9,1.5c-0.6,0.8-0.9,1.9-0.9,3.3c0,1.5,0.4,2.7,1.2,3.6c0.7,0.8,1.6,1.1,2.7,1.1c1.2,0,2.2-0.5,2.9-1.5 c0.6-0.8,0.9-1.9,0.9-3.3c0-1.5-0.4-2.7-1.2-3.6C190.7,27.3,189.8,27,188.8,27z"></path> <path d="M200.1,38.7v-14h6.2c1.4,0,2.5,0.3,3.3,1c0.8,0.7,1.3,1.6,1.3,2.7c0,0.6-0.1,1.1-0.4,1.5c-0.3,0.4-0.8,0.9-1.5,1.3 c1.5,0.9,2.3,2,2.3,3.4c0,1.2-0.5,2.2-1.4,3c-0.8,0.7-2,1-3.5,1H200.1z M203,27.1v3.2h3.1c1.3,0,2-0.5,2-1.6c0-1.1-0.7-1.6-2-1.6 H203z M203,32.7v3.6h3.4c1.4,0,2.1-0.6,2.1-1.8c0-1.2-0.7-1.8-2.1-1.8H203z"></path> <path d="M222.3,24.5c2,0,3.6,0.6,4.8,1.9c1.3,1.4,1.9,3.1,1.9,5.3c0,2.1-0.7,3.9-1.9,5.3c-1.2,1.3-2.8,1.9-4.8,1.9 c-2,0-3.6-0.6-4.8-1.9c-1.3-1.4-1.9-3.2-1.9-5.3c0-2.1,0.6-3.9,1.9-5.3C218.7,25.1,220.3,24.5,222.3,24.5z M222.3,27 c-1.2,0-2.2,0.5-2.9,1.5c-0.6,0.8-0.9,1.9-0.9,3.3c0,1.5,0.4,2.7,1.2,3.6c0.7,0.8,1.6,1.1,2.7,1.1c1.2,0,2.2-0.5,2.9-1.5 c0.6-0.8,0.9-1.9,0.9-3.3c0-1.5-0.4-2.7-1.2-3.6C224.2,27.3,223.3,27,222.3,27z"></path> <path d="M239.6,27.1v11.6h-2.9V27.1h-4.2v-2.4h11.2v2.4H239.6z"></path> <g> <path class="st25" d="M138.2,71.8h-2.5l-0.4,1.3h-1.4l2.3-6.6h1.5l2.3,6.6h-1.4L138.2,71.8z M137.8,70.7l-0.9-2.6l-0.9,2.6H137.8 z"></path> <path class="st25" d="M142.8,66.6v6.6h-1.4v-6.6H142.8z"></path> <path class="st25" d="M147.2,73.1v-6.6h2.6c1,0,1.7,0.3,2.1,0.8c0.5,0.6,0.8,1.5,0.8,2.5c0,1.1-0.3,1.9-0.8,2.5 c-0.4,0.5-1.1,0.8-2.1,0.8H147.2z M148.5,72h1.2c1,0,1.5-0.7,1.5-2.2c0-1.4-0.5-2.2-1.5-2.2h-1.2V72z"></path> <path class="st25" d="M155.7,66.6v6.6h-1.4v-6.6H155.7z"></path> <path class="st25" d="M161.5,71.8H159l-0.4,1.3h-1.4l2.3-6.6h1.5l2.3,6.6h-1.4L161.5,71.8z M161.1,70.7l-0.9-2.6l-0.9,2.6H161.1z "></path> <path class="st25" d="M166.2,66.6V72h3.2v1.1h-4.5v-6.6H166.2z"></path> <path class="st25" d="M173.6,66.5c0.9,0,1.7,0.3,2.2,0.9c0.6,0.6,0.9,1.5,0.9,2.5c0,1-0.3,1.8-0.9,2.5c-0.6,0.6-1.3,0.9-2.2,0.9 c-0.9,0-1.7-0.3-2.3-0.9c-0.6-0.7-0.9-1.5-0.9-2.5c0-1,0.3-1.8,0.9-2.5C171.9,66.8,172.7,66.5,173.6,66.5z M173.6,67.6 c-0.6,0-1.1,0.2-1.4,0.7c-0.3,0.4-0.4,0.9-0.4,1.5c0,0.7,0.2,1.3,0.6,1.7c0.3,0.4,0.7,0.5,1.3,0.5c0.6,0,1-0.2,1.4-0.7 c0.3-0.4,0.4-0.9,0.4-1.5c0-0.7-0.2-1.3-0.6-1.7C174.6,67.8,174.1,67.6,173.6,67.6z"></path> <path class="st25" d="M184.2,69.6v3.6h-0.8l-0.2-0.9c-0.5,0.7-1.1,1-2,1c-1,0-1.7-0.4-2.3-1.1c-0.5-0.6-0.8-1.4-0.8-2.3 c0-1.1,0.3-1.9,1-2.6c0.6-0.6,1.3-0.8,2.2-0.8c0.8,0,1.5,0.2,2.1,0.7c0.5,0.4,0.7,0.9,0.8,1.5h-1.3c-0.3-0.7-0.8-1-1.6-1 c-0.6,0-1.1,0.2-1.4,0.7c-0.3,0.4-0.4,0.9-0.4,1.6c0,0.7,0.2,1.3,0.6,1.7c0.3,0.4,0.8,0.6,1.3,0.6c0.5,0,1-0.2,1.3-0.6 c0.2-0.2,0.3-0.5,0.3-0.8h-1.5v-1.1H184.2z"></path> </g> <path d="M136.5,49.2v2.9c0,1.1,0.8,1.8,1.9,1.8h7c1.3,0,1.6-0.8,1.6-1.7v-5.6h2.8v6.8c0,1.8-1.4,3.3-3.3,3.3h-8.1 c-2.6,0-4.6-2-4.6-4.6v-2.9H136.5z M137.7,44.9c0-0.9,0.8-1.6,1.6-1.6c0.9,0,1.6,0.7,1.6,1.6c0,0.9-0.7,1.6-1.6,1.6 C138.5,46.6,137.7,45.8,137.7,44.9z M142.1,44.9c0-0.9,0.7-1.6,1.6-1.6c0.9,0,1.6,0.7,1.6,1.6c0,0.9-0.7,1.6-1.6,1.6 C142.9,46.6,142.1,45.8,142.1,44.9z"></path> <path d="M162.5,56.8h-1v0.9c0,2.9-2.9,4.9-8.1,3.5v-2.6c4.2,0.8,5.4-0.2,5.4-1.7v-0.3h-2.3c-2.5,0-4.5-2.1-4.5-4.7v-1.2 c0-2.7,2-4.7,4.7-4.7h0.2c2.7,0,4.7,2,4.7,4.7V54h1V56.8z M156.4,54h2.2v-3.2c0-1.2-0.8-2-1.9-2h-0.2c-1.2,0-1.9,0.8-1.9,2V52 C154.6,53.1,155.5,54,156.4,54z"></path> <path d="M166.8,54v2.8h-4.7V54H166.8z"></path> <path d="M171.1,54v2.8h-4.7V54H171.1z"></path> <path d="M175.4,54v2.8h-4.7V54H175.4z"></path> <path d="M174.9,54h1.9c0.4,0,0.8-0.2,0.8-0.9V47h2.8v7.2c0,1.5-1.2,2.7-2.7,2.7h-2.9V54z M176.5,60.9c0-0.9,0.7-1.6,1.6-1.6 c0.9,0,1.6,0.8,1.6,1.6c0,0.9-0.7,1.6-1.6,1.6C177.3,62.5,176.5,61.8,176.5,60.9z"></path> <path d="M193.2,56.8h-1v0.9c0,2.9-2.9,4.9-8.1,3.5v-2.6c4.2,0.8,5.4-0.2,5.4-1.7v-0.3h-2.3c-2.5,0-4.5-2.1-4.5-4.7v-1.2 c0-2.7,2-4.7,4.7-4.7h0.2c2.7,0,4.7,2,4.7,4.7V54h1V56.8z M187.1,54h2.2v-3.2c0-1.2-0.8-2-1.9-2h-0.2c-1.2,0-2,0.8-2,2V52 C185.3,53.1,186.1,54,187.1,54z"></path> <path d="M197.5,54v2.8h-4.7V54H197.5z"></path> <path d="M201.8,54v2.8h-4.7V54H201.8z"></path> <path d="M215,52.8c0,2.2-1.8,4-4,4h-9.5l-1.2-0.4v-1.9l1.2-0.4h9.3c0.9,0,1.5-0.7,1.5-1.6c0-1.2-0.9-1.7-2.1-1.7h-7l-0.3-1.2 l4.1-7.1l2.2,0.9l-2.4,4.7h3.4C212.9,48,215,50.1,215,52.8z"></path> <path d="M228,56.8h-1v0.9c0,2.9-2.9,4.9-8.1,3.5v-2.6c4.2,0.8,5.4-0.2,5.4-1.7v-0.3h-2.3c-2.5,0-4.5-2.1-4.5-4.7v-1.2 c0-2.7,2-4.7,4.7-4.7h0.2c2.7,0,4.7,2,4.7,4.7V54h1V56.8z M221.9,54h2.2v-3.2c0-1.2-0.8-2-1.9-2h-0.2c-1.2,0-2,0.8-2,2V52 C220.1,53.1,221,54,221.9,54z"></path> <path d="M232.3,54v2.8h-4.7V54H232.3z"></path> <path d="M236.6,54v2.8h-4.7V54H236.6z"></path> <path d="M236.2,54h3.2c0.4,0,0.8-0.2,0.8-0.9V47h2.8v7.2c0,1.5-1.2,2.7-2.7,2.7h-4.2V54z"></path> <path d="M235.8,44c0-0.9,0.7-1.6,1.6-1.6s1.6,0.8,1.6,1.6c0,0.9-0.7,1.6-1.6,1.6S235.8,44.8,235.8,44z"></path> <path d="M240.2,44c0-0.9,0.7-1.6,1.6-1.6c0.9,0,1.6,0.8,1.6,1.6c0,0.9-0.7,1.6-1.6,1.6C240.9,45.6,240.2,44.8,240.2,44z"></path> <g> <path class="st25" d="M198,71.8v1.3h-0.3c-0.6,0-1.1-0.2-1.4-0.6c-0.3,0.4-0.8,0.6-1.5,0.6c-1.2,0-2.1-1-2.1-2.2v-0.5 c0-1.2,0.9-2.2,2.2-2.2h2.3v3.1c0,0.3,0.2,0.5,0.5,0.5H198z M193.2,66.8c0-0.4,0.3-0.8,0.8-0.8c0.4,0,0.8,0.4,0.8,0.8 c0,0.4-0.3,0.8-0.8,0.8C193.6,67.5,193.2,67.2,193.2,66.8z M195.8,69.5h-1c-0.5,0-0.9,0.4-0.9,0.9v0.5c0,0.5,0.4,0.9,0.8,0.9 c0.4,0,0.8-0.2,1.1-0.5V69.5z M195.3,66.8c0-0.4,0.3-0.8,0.8-0.8c0.4,0,0.8,0.4,0.8,0.8c0,0.4-0.3,0.8-0.8,0.8 C195.6,67.5,195.3,67.2,195.3,66.8z"></path> <path class="st25" d="M202.6,71.8v1.3h-1.1c-0.5,0-0.9-0.2-1.2-0.5c-0.3,0.3-0.7,0.5-1.4,0.5h-1l-0.6-0.2V72l0.6-0.2h1 c0.6,0,0.7-0.4,0.7-0.8v-1.2l0-1.3h1.3v1.9c0,0.1,0,0.2,0,0.3v0.2c0,0.4,0.1,0.8,0.7,0.8H202.6z M199.8,74.7 c0,0.4-0.3,0.8-0.8,0.8c-0.4,0-0.8-0.3-0.8-0.8c0-0.4,0.3-0.7,0.8-0.7C199.4,74,199.8,74.3,199.8,74.7z M201.9,74.7 c0,0.4-0.3,0.8-0.8,0.8c-0.4,0-0.8-0.3-0.8-0.8c0-0.4,0.3-0.7,0.8-0.7C201.5,74,201.9,74.3,201.9,74.7z"></path> <path class="st25" d="M208.8,71.3c0,1-0.8,1.8-1.9,1.8h-4.4l-0.6-0.2V72l0.6-0.2h4.3c0.4,0,0.7-0.3,0.7-0.7c0-0.5-0.4-0.8-1-0.8 h-3.3l-0.1-0.6l1.9-3.3l1,0.4l-1.1,2.2h1.6C207.8,69.1,208.8,70,208.8,71.3z"></path> <path class="st25" d="M209.9,71.8h1.8c0.5,0,0.9-0.4,0.9-0.9v-0.5c0-0.5-0.4-0.9-1-0.9h-0.9v-1.3h0.9c1.2,0,2.3,1,2.3,2.2v0.8 c0,1.1-0.9,1.9-2,1.9h-2V71.8z M210.9,66.5c0-0.4,0.3-0.8,0.8-0.8c0.4,0,0.8,0.4,0.8,0.8c0,0.4-0.3,0.8-0.8,0.8 C211.3,67.2,210.9,66.9,210.9,66.5z"></path> <path class="st25" d="M222.2,71.8v1.3h-0.3c-0.6,0-1.1-0.2-1.4-0.6c-0.3,0.4-0.8,0.6-1.5,0.6c-1.2,0-2.1-1-2.1-2.2v-0.5 c0-1.2,0.9-2.2,2.2-2.2h2.3v3.1c0,0.3,0.2,0.5,0.5,0.5H222.2z M217.4,66.8c0-0.4,0.3-0.8,0.8-0.8c0.4,0,0.8,0.4,0.8,0.8 c0,0.4-0.3,0.8-0.8,0.8C217.8,67.5,217.4,67.2,217.4,66.8z M220,69.5h-1c-0.5,0-0.9,0.4-0.9,0.9v0.5c0,0.5,0.4,0.9,0.8,0.9 c0.4,0,0.8-0.2,1.1-0.5V69.5z M219.5,66.8c0-0.4,0.3-0.8,0.8-0.8c0.4,0,0.8,0.4,0.8,0.8c0,0.4-0.3,0.8-0.8,0.8 C219.9,67.5,219.5,67.2,219.5,66.8z"></path> <path class="st25" d="M229.7,68.3v2.9c0,1-0.9,1.9-1.9,1.9c-0.6,0-1-0.2-1.3-0.5c-0.4,0.3-0.9,0.5-1.4,0.5 c-0.5,0-0.9-0.2-1.3-0.5c-0.3,0.3-0.8,0.5-1.3,0.5h-0.4l-0.6-0.2V72l0.6-0.2h0.4c0.4,0,0.6-0.2,0.6-0.6v-1.9h1.3v1.9 c0,0.4,0.2,0.6,0.7,0.6c0.4,0,0.7-0.2,0.7-0.6v-1.9h1.3v1.9c0,0.4,0.3,0.6,0.7,0.6c0.4,0,0.6-0.3,0.6-0.6v-2.9H229.7z M224.5,67.3c0-0.4,0.3-0.7,0.8-0.7c0.4,0,0.8,0.3,0.8,0.7c0,0.4-0.3,0.8-0.8,0.8C224.8,68,224.5,67.7,224.5,67.3z M225.5,65.7 c0-0.4,0.3-0.7,0.8-0.7c0.4,0,0.8,0.3,0.8,0.7c0,0.4-0.3,0.8-0.8,0.8C225.9,66.4,225.5,66.1,225.5,65.7z M227.3,66.5 c0.4,0,0.8,0.3,0.8,0.7c0,0.4-0.3,0.8-0.8,0.8c-0.4,0-0.8-0.3-0.8-0.8C226.5,66.9,226.9,66.5,227.3,66.5z"></path> <path class="st25" d="M230.9,71.8h1.8c0.5,0,0.9-0.4,0.9-0.9v-0.5c0-0.5-0.4-0.9-1-0.9h-0.9v-1.3h0.9c1.2,0,2.3,1,2.3,2.2v0.8 c0,1.1-0.9,1.9-2,1.9h-2V71.8z"></path> <path class="st25" d="M235.3,74h0.5c0.5,0,0.9-0.3,0.9-0.8v-4.7h1.3v4.7c0,1.2-0.9,2.1-2.2,2.1h-0.5V74z"></path> <path class="st25" d="M239,71.8h1.8c0.5,0,0.9-0.4,0.9-0.9v-0.5c0-0.5-0.4-0.9-1-0.9h-0.9v-1.3h0.9c1.2,0,2.3,1,2.3,2.2v0.8 c0,1.1-0.9,1.9-2,1.9h-2V71.8z"></path> </g> </g> </g> <g> <g> <g> <polygon class="st29" points="17.3,24.3 17.3,47.5 4.4,38.5 1,36.1 1,12.7 "></polygon> <polygon class="st29" points="64.7,12.5 64.7,35.9 61.1,38.3 47.6,47.5 47.6,24.1 "></polygon> <path class="st30" d="M64.7,41.3v11.7c0,12.4-6.9,23.1-17.1,28.5c-4.4,2.3-9.4,3.7-14.7,3.7c-5.6,0-10.9-1.5-15.5-4.1 C7.6,75.7,1,65.2,1,53.1V41.4l1.7,1.3l14.6,10.7l0,0c0.1,8.2,6.8,14.9,15.1,14.9c8.3,0,15.1-6.7,15.1-15l0,0l15.3-10.7L64.7,41.3 z"></path> </g> <g> <g> <path class="st30" d="M96.8,34.3c0,6.1-3.1,9.3-8.4,9.3c-5.3,0-8.4-3.2-8.4-9.3V21.6h3.1v12.3c0,4.1,1.3,7,5.3,7 c4,0,5.3-2.8,5.3-7V21.6h3.1V34.3z"></path> <path class="st30" d="M102.3,21.6h3.1v18.9h9v2.7h-12.1L102.3,21.6L102.3,21.6z"></path> <path class="st30" d="M122.1,24.3h-6.7v-2.7h16.5v2.7h-6.7v18.9h-3.1L122.1,24.3L122.1,24.3z"></path> <path class="st30" d="M135,21.6h3.1v21.6H135V21.6z"></path> <path class="st30" d="M143.6,21.6h5.1l6.8,17.9l6.6-17.9h5.1v21.6h-3.1V24.5h-0.1L157,43.2h-3l-7.2-18.7h-0.1v18.7h-3.1 L143.6,21.6L143.6,21.6z"></path> <path class="st30" d="M173,21.6H185v2.7h-9v6.3h8.2v2.7H176v7.1h9v2.7H173V21.6z"></path> <path class="st30" d="M189.8,21.6h5.3c4.3,0,8.4,0.7,8.4,5.9c0,2.6-2,4.5-4.5,4.9v0.1c1,0.4,1.4,0.8,2.1,2.2l4.1,8.6h-3.5 l-3.3-7.5c-1-2.1-2-2.1-3.6-2.1H193v9.6h-3.1V21.6z M192.9,30.9h2.6c2.9,0,4.7-1.3,4.7-3.4c0-2-1.5-3.2-4.3-3.2h-3V30.9z"></path> <path class="st30" d="M223.8,25.2c-1.4-0.8-2.9-1.2-4.5-1.2c-5,0-8.3,3.6-8.3,8.4c0,5.1,3.6,8.5,8.1,8.5c1.6,0,3.6-0.4,4.7-1 l0.2,3c-1.6,0.7-3.6,0.8-4.9,0.8c-6.8,0-11.4-4.4-11.4-11.3c0-6.6,4.8-11.1,11.4-11.1c1.7,0,3.3,0.3,4.9,0.9L223.8,25.2z"></path> <path class="st30" d="M228,21.6H240v2.7h-9v6.3h8.2v2.7H231v7.1h9v2.7H228V21.6z"></path> </g> <g> <path class="st30" d="M236.7,48.1h3.1v21.6h-3.1V48.1z"></path> <polygon class="st30" points="225.4,48.1 225.4,67 217.6,67 217.6,69.7 228.5,69.7 228.5,48.1 "></polygon> <polygon class="st30" points="201.9,67 198.7,67 198.7,58 196,58 196,67 184.3,67 184.3,69.8 201.9,69.8 "></polygon> <polygon class="st30" points="213.4,67 213.4,58 210.7,58 210.7,67 201.7,67 201.7,69.8 213.4,69.7 217.8,69.7 217.8,67 "></polygon> <polygon class="st30" points="126.5,58 126.5,69.8 123.8,69.8 80,69.8 80,67 104.1,67 104.1,58 106.8,58 106.8,67 113.9,67 113.9,58 116.6,58 116.6,67 123.8,67 123.8,58 "></polygon> <path class="st30" d="M156.9,67V58h-2.7v9h-11.8c0,0.6,0,2.5,0,2.8l14.5,0H169c0.1-0.9,0.2-1.8,0.3-2.7H156.9z"></path> <path class="st30" d="M176.6,60c4.8,0,8,3.5,8,8.3c0,4.5-3.3,8.3-8,8.3c-4.8,0-8-3.7-8-8.3C168.5,63.5,171.7,60,176.6,60z M176.6,74.1c3.4,0,4.9-3.1,4.9-5.9c0-3-1.8-5.9-4.9-5.9c-3.1,0-5,2.9-5,5.9C171.6,71,173.1,74.1,176.6,74.1z"></path> <g> <rect x="210.7" y="53.9" class="st30" width="2.6" height="2.6"></rect> <rect x="210.7" y="49.5" class="st30" width="2.6" height="2.6"></rect> </g> <g> <rect x="198.2" y="72.3" class="st30" width="2.6" height="2.6"></rect> <rect x="193.9" y="72.3" class="st30" width="2.6" height="2.6"></rect> </g> <g> <rect x="156.4" y="72.3" class="st30" width="2.6" height="2.6"></rect> <rect x="152.1" y="72.3" class="st30" width="2.6" height="2.6"></rect> </g> <path class="st30" d="M136.9,59.9l-0.7,2.3c2.1,0.8,3.3,3.2,3.3,5.6c0,2.8-1.5,5.9-4.9,5.9c-0.7,0-1.2-0.1-1.7-0.3l-0.7,2.3 c0.8,0.2,1.6,0.4,2.5,0.4c4.7,0,8-3.7,8-8.3C142.6,63.9,140.4,60.9,136.9,59.9z"></path> </g> </g> </g> <g> <path class="st30" d="M242.5,4.7c4.1,0,7.5,3.3,7.5,7.5s-3.3,7.5-7.5,7.5c-4.1,0-7.5-3.4-7.5-7.5C235.1,8.1,238.4,4.7,242.5,4.7z M242.5,6.3c-3.3,0-6,2.7-6,6c0,3.3,2.7,6,6,6c3.3,0,6-2.7,6-6C248.5,8.9,245.9,6.3,242.5,6.3z"></path> <path class="st30" d="M239.7,8.4L239.7,8.4c1,0,2,0,2.9,0c0.5,0,1,0.1,1.5,0.3c0.7,0.3,1.1,0.9,1.2,1.7c0,0.5,0,0.9-0.1,1.3 c-0.2,0.5-0.5,0.8-0.9,1c-0.1,0-0.2,0.1-0.3,0.2c0.1,0.1,0.1,0.2,0.2,0.4c0.5,0.9,0.9,1.8,1.4,2.7c0,0,0,0.1,0,0.1 c0,0-0.1,0-0.1,0c-0.5,0-1,0-1.5,0c0,0-0.1,0-0.1-0.1c-0.5-0.9-0.9-1.8-1.4-2.7c0,0-0.1-0.1-0.1-0.1c-0.4,0-0.7,0-1.1,0 c0,0,0,0-0.1,0c0,0.9,0,1.9,0,2.8c-0.5,0-1,0-1.6,0C239.7,13.5,239.7,11,239.7,8.4z M241.3,11.9L241.3,11.9c0.5,0,0.9,0,1.4,0 c0.3,0,0.5-0.1,0.7-0.3c0.2-0.2,0.4-0.5,0.4-0.8c0-0.3,0-0.6-0.2-0.8c-0.2-0.3-0.5-0.4-0.8-0.4c-0.5,0-0.9,0-1.4,0h0 C241.3,10.4,241.3,11.2,241.3,11.9z"></path> </g> </g> </svg> 