<?xml version="1.0" encoding="UTF-8"?> <svg xmlns="http://www.w3.org/2000/svg" xmlns:xlink="http://www.w3.org/1999/xlink" version="1.1" id="Layer_1" x="0px" y="0px" width="61px" height="61px" viewBox="0 0 61 61" xml:space="preserve"> <g id="Shape_1_copy_1_"> <g id="Shape_1_copy"> <g> <path fill="#E58036" d="M30.5,1.121C14.274,1.121,1.122,14.275,1.122,30.5c0,16.225,13.152,29.379,29.378,29.379 c16.227,0,29.378-13.152,29.378-29.379C59.878,14.274,46.727,1.121,30.5,1.121z M30.5,57.734 c-15.042,0-27.236-12.191-27.236-27.233S15.458,3.263,30.5,3.263s27.234,12.194,27.234,27.236S45.542,57.734,30.5,57.734z"></path> </g> </g> </g> <g id="Shape_1"> <g> <polygon fill-rule="evenodd" clip-rule="evenodd" fill="#FFFFFF" points="45.01,28.008 45.01,45.831 15.105,45.831 15.105,15.694 45.01,15.694 45.01,16.161 46.13,15.055 46.13,14.565 13.984,14.565 13.984,46.96 46.13,46.96 46.13,26.838 "></polygon> </g> </g> <g id="Shape_1_copy_2_"> <g> <polygon fill-rule="evenodd" clip-rule="evenodd" fill="#FFFFFF" points="42.116,31.03 42.116,42.912 18.001,42.912 18.001,18.61 42.116,18.61 42.116,19.019 43.019,18.127 43.019,17.7 17.097,17.7 17.097,43.823 43.019,43.823 43.019,30.088 "></polygon> </g> </g> <g id="Shape_2"> <g> <polygon fill-rule="evenodd" clip-rule="evenodd" fill="#FFFFFF" points="51.462,20.022 47.16,15.721 32.643,30.238 25.417,23.012 20.788,27.641 32.373,39.227 37.002,34.598 36.944,34.54 "></polygon> </g> </g> </svg> 