<?xml version="1.0" encoding="UTF-8"?> <svg xmlns="http://www.w3.org/2000/svg" xmlns:xlink="http://www.w3.org/1999/xlink" version="1.1" id="Layer_1" x="0px" y="0px" width="61px" height="61px" viewBox="0 0 61 61" xml:space="preserve"> <g id="Shape_1_copy_1_"> <g id="Shape_1_copy"> <g> <path fill="#E58036" d="M30.5,1.121C14.274,1.121,1.122,14.275,1.122,30.5S14.274,59.879,30.5,59.879S59.878,46.726,59.878,30.5 S46.726,1.121,30.5,1.121z M30.5,57.735c-15.042,0-27.236-12.192-27.236-27.234S15.458,3.263,30.5,3.263 s27.235,12.194,27.235,27.236S45.542,57.735,30.5,57.735z"></path> </g> </g> </g> <g> <path fill="#FFFFFF" d="M34.479,16.968c2.16,0,3.912,1.752,3.912,3.915c0,2.16-1.752,3.914-3.912,3.914 c-2.163,0-3.915-1.753-3.915-3.914C30.563,18.721,32.315,16.968,34.479,16.968L34.479,16.968z"></path> <g> <path fill="#FFFFFF" d="M36.53,29.255c1.39,0,2.516,1.125,2.516,2.515c0,1.389-1.126,2.519-2.516,2.519 c-1.391,0-2.517-1.13-2.517-2.519C34.014,30.38,35.14,29.255,36.53,29.255L36.53,29.255z"></path> <path fill="#FFFFFF" d="M23.989,50.712h22.569c0,0-6.552-5.264-6.414-11.034c0.082-3.217,6.414-7.311,6.381-16.244 C46.503,18.94,42.146,11.47,34.748,10.54c-7.403-0.933-12.94,0.697-15.361,5.26c-2.422,4.56-2.605,8.565-2.42,9.307 c0.188,0.747,0.978,2.144,0.978,2.144s-3.724,5.725-3.493,6.653c0.236,0.935,2.79,1.436,2.79,1.436s0.232,0.648-0.236,1.902 c-0.466,1.259,0.867,2.717,1.267,3.228c0.394,0.508-0.56,2.094-0.235,2.979c0.325,0.882,1.863,1.952,3.629,1.722 c1.771-0.234,4.041-0.65,4.83-0.793C28.278,48.566,23.989,50.712,23.989,50.712L23.989,50.712z M40.693,33.653l-0.766,1.177 l-0.743-0.489c-0.341,0.351-0.757,0.637-1.224,0.831l0.184,0.876l-1.368,0.284l-0.185-0.873c-0.512,0.007-1.005-0.088-1.454-0.272 l-0.488,0.744l-1.175-0.767l0.489-0.745c-0.351-0.34-0.639-0.755-0.833-1.222l-0.874,0.184l-0.289-1.372l0.876-0.183 c-0.008-0.507,0.086-1,0.272-1.453l-0.745-0.489l0.768-1.173l0.745,0.487c0.339-0.353,0.755-0.637,1.223-0.833l-0.186-0.874 l1.37-0.287l0.185,0.875c0.506-0.008,1.001,0.087,1.453,0.271l0.489-0.745l1.171,0.765l-0.485,0.747 c0.351,0.341,0.638,0.753,0.833,1.223l0.87-0.182l0.29,1.372l-0.873,0.181c0.007,0.509-0.088,1.002-0.273,1.454L40.693,33.653z M27.877,18.24l1.354,0.313c0.311-0.696,0.76-1.335,1.338-1.873l-0.737-1.179l1.849-1.156l0.736,1.18 c0.737-0.285,1.505-0.41,2.268-0.382l0.311-1.351l2.126,0.488l-0.313,1.351c0.697,0.312,1.332,0.76,1.87,1.339l1.178-0.736 l1.156,1.848l-1.181,0.734c0.286,0.737,0.41,1.509,0.382,2.269l1.353,0.313l-0.491,2.125l-1.352-0.314 c-0.308,0.696-0.76,1.335-1.338,1.873l0.737,1.178l-1.848,1.154l-0.736-1.177c-0.738,0.286-1.51,0.412-2.271,0.383l-0.313,1.349 l-2.122-0.49l0.312-1.351c-0.696-0.308-1.334-0.759-1.87-1.339l-1.179,0.737l-1.155-1.849l1.181-0.735 c-0.284-0.738-0.411-1.507-0.384-2.267l-1.352-0.313L27.877,18.24z"></path> </g> </g> </svg> 