<?xml version="1.0" encoding="UTF-8"?> <svg xmlns="http://www.w3.org/2000/svg" xmlns:xlink="http://www.w3.org/1999/xlink" version="1.1" id="Layer_1" x="0px" y="0px" width="61px" height="61px" viewBox="0 0 61 61" xml:space="preserve"> <g id="Shape_1_copy_1_"> <g id="Shape_1_copy"> <g> <path fill="#E58036" d="M30.5,1.121C14.274,1.121,1.122,14.275,1.122,30.5S14.274,59.879,30.5,59.879S59.878,46.726,59.878,30.5 S46.726,1.121,30.5,1.121z M30.5,57.735c-15.042,0-27.236-12.193-27.236-27.235S15.458,3.263,30.5,3.263 s27.235,12.194,27.235,27.236S45.542,57.735,30.5,57.735z"></path> </g> </g> </g> <g> <path fill="#FFFFFF" d="M34.144,36.173c2.443-1.032,4.372-2.434,5.784-4.207c1.414-1.775,2.121-3.707,2.121-5.797 s-0.707-4.022-2.121-5.796c-1.413-1.774-3.341-3.177-5.785-4.207c-2.443-1.03-5.102-1.545-7.973-1.545 c-2.872,0-5.53,0.515-7.974,1.545s-4.372,2.432-5.785,4.207s-2.12,3.706-2.12,5.796c0,1.79,0.534,3.475,1.602,5.054 c1.068,1.577,2.534,2.909,4.398,3.992c-0.15,0.36-0.304,0.69-0.462,0.992c-0.158,0.301-0.347,0.589-0.564,0.867 c-0.218,0.28-0.387,0.497-0.507,0.654c-0.12,0.158-0.316,0.38-0.587,0.664c-0.271,0.287-0.443,0.475-0.519,0.564 c0-0.015-0.031,0.02-0.091,0.103c-0.06,0.082-0.094,0.119-0.101,0.112c-0.008-0.008-0.038,0.03-0.091,0.112 s-0.079,0.125-0.079,0.125l-0.056,0.111c-0.023,0.046-0.038,0.091-0.046,0.135c-0.008,0.045-0.012,0.096-0.012,0.148 c0,0.051,0.008,0.1,0.022,0.146c0.031,0.194,0.117,0.353,0.261,0.475c0.143,0.118,0.296,0.18,0.462,0.18h0.068 c0.75-0.105,1.397-0.227,1.938-0.36c2.315-0.603,4.406-1.564,6.27-2.888c1.354,0.24,2.678,0.361,3.971,0.361 C29.042,37.717,31.699,37.203,34.144,36.173L34.144,36.173z M34.144,36.173"></path> <path fill="#FFFFFF" d="M49.107,37.006c1.068-1.57,1.602-3.258,1.602-5.063c0-1.851-0.563-3.581-1.691-5.189 c-1.128-1.609-2.663-2.947-4.602-4.015c0.346,1.127,0.519,2.271,0.519,3.428c0,2.015-0.503,3.925-1.511,5.73 c-1.008,1.805-2.451,3.397-4.33,4.78c-1.745,1.265-3.73,2.233-5.956,2.91s-4.548,1.016-6.969,1.016 c-0.45,0-1.112-0.029-1.985-0.091c3.022,1.984,6.571,2.978,10.646,2.978c1.294,0,2.617-0.119,3.971-0.361 c1.864,1.324,3.954,2.286,6.27,2.888c0.543,0.136,1.188,0.256,1.939,0.36c0.182,0.016,0.349-0.037,0.497-0.157 c0.15-0.12,0.248-0.286,0.292-0.496c-0.006-0.091,0-0.14,0.023-0.146c0.023-0.009,0.02-0.058-0.011-0.147s-0.044-0.136-0.044-0.136 l-0.058-0.112c-0.015-0.029-0.04-0.071-0.078-0.124c-0.038-0.052-0.067-0.091-0.091-0.112c-0.022-0.023-0.056-0.061-0.102-0.112 c-0.044-0.053-0.074-0.086-0.09-0.102c-0.074-0.09-0.247-0.278-0.518-0.563c-0.271-0.287-0.466-0.509-0.588-0.665 c-0.12-0.158-0.289-0.377-0.507-0.655c-0.218-0.277-0.406-0.566-0.563-0.868c-0.158-0.3-0.313-0.631-0.463-0.992 C46.575,39.905,48.041,38.578,49.107,37.006L49.107,37.006z M49.107,37.006"></path> </g> </svg> 