<?xml version="1.0" encoding="UTF-8"?> <svg xmlns="http://www.w3.org/2000/svg" xmlns:xlink="http://www.w3.org/1999/xlink" version="1.1" id="Layer_1" x="0px" y="0px" viewBox="0 0 472 200" style="enable-background:new 0 0 472 200;" xml:space="preserve"> <style type="text/css"> .st0{fill-rule:evenodd;clip-rule:evenodd;fill:#E0A043;} .st1{fill:#FFFFFF;} .st2{fill-rule:evenodd;clip-rule:evenodd;fill:#FFFFFF;} </style> <g> <g> <path id="SVGID_9_" class="st0" d="M350.3,162.7c3.7-3.7,6.1-9,6.1-14.9c0-0.1,0-0.2,0-0.3h111.2v15.2H350.3L350.3,162.7z M319.4,147.8c0,5.9,2.3,11.2,6.1,14.9H4.4v-15.2h315C319.4,147.6,319.4,147.7,319.4,147.8L319.4,147.8z"></path> </g> </g> <g> <g> <path id="SVGID_11_" class="st1" d="M48.7,138.7c-6.3,0-9.6-3.6-12-6.9c-3.3,3.3-8.6,6.9-14.1,6.9c-8,0-17.8-4.5-17.8-29.5 c0-20.4,3.5-25.8,25.9-41.8c4.1-2.9,4.1-4.5,4.1-12c0-8-2-10-8.6-10c-5.9,0-14.5,4.2-18.2,7.5c-0.4,0.4-1,0.5-1.6,0.5 c-0.4,0-0.6-0.4-0.6-0.9c0-2.2,11.6-14.9,23.1-14.9c7.3,0,20.2,4,20.2,22.7v66c0,2.4,0.8,4.5,2.7,4.5c2,0,4.3-0.9,5.9-3.1 c0.4-0.4,0.6-0.7,1-0.7s0.6,0.4,0.6,0.9C58.5,133.2,53.8,138.7,48.7,138.7L48.7,138.7z M34.8,72.5h-0.4 C23.2,81,19.9,87.4,19.9,105.9c0,20.7,2.2,24.9,6.7,24.9s8.2-5.6,8.2-10.7V72.5L34.8,72.5z M88.5,138.7h-27 c-0.6,0-1.2-0.2-1.2-0.7c0-0.4,0.4-0.9,0.8-1.3l6.3-6.4c0.4-0.4,0.4-0.9,0.4-1.6V11c0-0.7-0.2-1.1-0.6-1.5l-6.1-5.3 c-0.4-0.4-0.8-0.9-0.8-1.3c0-0.5,0.6-0.7,1.2-0.7h19.6c0.6,0,1,0.4,1,1.1v125.4c0,0.7,0,1.3,0.4,1.6l6.3,6.4 c0.4,0.4,0.8,0.9,0.8,1.3C89.7,138.5,89.3,138.7,88.5,138.7L88.5,138.7z M151.3,138.7h-26.9c-0.8,0-1.2-0.2-1.2-0.7 c0-0.4,0.4-0.9,0.8-1.3l6.3-6.4c0.4-0.4,0.4-0.9,0.4-1.6V55.9c0-6.9-2.2-10.6-6.9-10.6c-4.9,0-10.2,6-10.2,15.8v67.5 c0,0.7,0,1.3,0.2,1.6l6.3,6.4c0.6,0.4,1,0.9,1,1.3c0,0.5-0.6,0.7-1.2,0.7H93c-0.8,0-1.2-0.2-1.2-0.7c0-0.4,0.2-0.9,0.8-1.3 l6.3-6.4c0.4-0.4,0.4-0.9,0.4-1.6V11c0-0.7-0.2-1.1-0.8-1.5l-5.9-5.3c-0.6-0.4-0.8-0.9-0.8-1.3c0-0.5,0.4-0.7,1.2-0.7h19.4 c0.8,0,1.2,0.4,1.2,1.1v40.6h0.4c3.7-3.5,7.1-6.4,14.1-6.4c10.2,0,16.9,6.4,16.9,18.6v72.6c0,0.7,0,1.3,0.4,1.6l6.3,6.4 c0.4,0.4,0.8,0.9,0.8,1.3C152.5,138.5,151.9,138.7,151.3,138.7L151.3,138.7z M214,138.7h-19c-0.8,0-1.4-0.4-1.4-0.7v-6.2h-0.4 c-3.5,3.6-7.1,6.9-13.7,6.9c-11.8,0-17.3-6.2-17.3-18.6V46.3c0-0.7-0.2-1.1-0.6-1.5l-6.1-5.1c-0.4-0.5-0.8-1.1-0.8-1.5 c0-0.5,0.6-0.7,1.2-0.7h19.6c0.6,0,1,0.4,1,1.1v81.7c0,6.9,2.7,10.6,8,10.6c4.9,0,9.2-5.6,9.2-14.6v-70c0-0.7-0.2-1.1-0.6-1.5 l-5.9-5.1c-0.6-0.5-1-1.1-1-1.5c0-0.5,0.6-0.7,1.2-0.7H207c0.8,0,1,0.4,1,1.1v90.1c0,0.7,0,1.3,0.2,1.6l6.3,6.4 c0.6,0.4,1,0.9,1,1.3C215.4,138.5,214.8,138.7,214,138.7L214,138.7z M256.2,75c-0.6,0-1-0.7-1.2-1.6c-1.2-5.6-2.7-11.1-6.1-18.9 c-2.7-5.8-5.5-9.1-9.4-9.1c-4.3,0-5.1,4.4-5.1,9.8c0,7.6,4.3,18,12.4,29.7c7.8,11.1,13.3,23.8,13.3,35.7c0,11.3-9,18.2-17.5,18.2 c-5.7,0-9.2-2.4-12.2-5.8l-5.3,4.9c-0.6,0.4-1.2,0.9-2,0.9c-0.4,0-0.6-0.5-0.6-1.3v-34.9c0-0.5,0.2-1.3,0.8-1.3c1,0,1,0.7,1.2,1.6 c3.3,14.7,8,28,15.5,28c4.5,0,6.5-3.1,6.5-7.8c0-11.3-6.5-23.3-13.1-32.8C226,79.4,221.7,68.1,221.7,57c0-11.8,8.2-19.5,15.5-19.5 c4.9,0,8.6,2.2,12,5.8l5.9-4.7c0.4-0.4,0.8-1.1,1.4-1.1c0.4,0,0.8,0.9,0.8,1.8v34.2C257.4,74.3,257,75,256.2,75L256.2,75z M314.1,138.7c-6.3,0-9.6-3.6-12-6.9c-3.3,3.3-8.6,6.9-14.1,6.9c-8,0-17.8-4.5-17.8-29.5c0-20.4,3.5-25.8,25.9-41.8 c4.1-2.9,4.1-4.5,4.1-12c0-8-2-10-8.6-10c-5.9,0-14.5,4.2-18.2,7.5c-0.4,0.4-1,0.5-1.6,0.5c-0.4,0-0.6-0.4-0.6-0.9 c0-2.2,11.6-14.9,23.1-14.9c7.3,0,20.2,4,20.2,22.7v66c0,2.4,0.8,4.5,2.7,4.5c2,0,4.3-0.9,5.9-3.1c0.4-0.4,0.6-0.7,1-0.7 s0.6,0.4,0.6,0.9C323.9,133.2,319.2,138.7,314.1,138.7L314.1,138.7z M300.3,72.5h-0.4c-11.2,8.6-14.5,14.9-14.5,33.5 c0,20.7,2.2,24.9,6.7,24.9s8.2-5.6,8.2-10.7L300.3,72.5L300.3,72.5z M372.3,39.7l-5.1,4.4c-1,0.9-1.4,2-1.6,3.3l-13.7,98.4 c-1.6,11.8-7.3,16.9-13.7,16.9c-10.2,0-14.5-11.6-14.5-17.3c0-0.7,0.2-1.3,0.8-1.3c0.8,0,1.2,0.5,1.6,1.3c2.9,5.1,5.3,9.5,9.6,9.5 c4.7,0,6.5-4,6.5-10.4c0-3.8-0.6-10.6-1.4-16l-12.2-81.1c-0.2-0.9-0.8-2.2-1.4-2.7l-4.5-4.9c-0.4-0.5-0.8-1.1-0.8-1.5 c0-0.5,0.4-0.7,1.2-0.7h22.7c0.6,0,1.2,0.2,1.2,0.7c0,0.4-0.2,0.9-0.6,1.5l-3.9,4.5c-0.6,0.9-1,2-0.8,3.5l7.3,52.8h0.4l5.9-52.8 c0.2-1.5-0.2-2.7-1-3.5l-4.5-4.5c-0.4-0.4-0.8-1.1-0.8-1.5c0-0.5,0.6-0.7,1.2-0.7h21.6c0.6,0,1.2,0.2,1.2,0.7 C373.1,38.6,372.9,39.3,372.3,39.7L372.3,39.7z M434.5,138.7h-26.9c-0.8,0-1.2-0.2-1.2-0.7c0-0.4,0.4-0.9,0.8-1.3l6.3-6.4 c0.4-0.4,0.4-0.9,0.4-1.6V55.9c0-6.9-2.2-10.6-6.9-10.6c-4.9,0-10.2,6-10.2,15.8v67.5c0,0.7,0,1.3,0.2,1.6l6.3,6.4 c0.6,0.4,1,0.9,1,1.3c0,0.5-0.6,0.7-1.2,0.7h-26.9c-0.8,0-1.2-0.2-1.2-0.7c0-0.4,0.2-0.9,0.8-1.3l6.3-6.4c0.4-0.4,0.4-0.9,0.4-1.6 V46.3c0-0.7-0.2-1.1-0.6-1.5l-6.1-5.1c-0.4-0.5-0.8-1.1-0.8-1.5c0-0.5,0.6-0.7,1.2-0.7h19.6c0.8,0,1,0.4,1,1.1v5.3h0.4 c3.7-3.5,7.1-6.4,14.1-6.4c10.2,0,16.9,6.4,16.9,18.6v72.6c0,0.7,0,1.3,0.4,1.6l6.3,6.4c0.4,0.4,0.8,0.9,0.8,1.3 C435.8,138.5,435.1,138.7,434.5,138.7L434.5,138.7z M466,138.7h-27c-0.6,0-1.2-0.2-1.2-0.7c0-0.4,0.4-0.9,0.8-1.3l6.3-6.4 c0.4-0.4,0.4-0.9,0.4-1.6V46.3c0-0.7-0.2-1.1-0.6-1.5l-6.1-5.1c-0.4-0.5-0.8-1.1-0.8-1.5c0-0.5,0.6-0.7,1.2-0.7h19.6 c0.6,0,1,0.4,1,1.1v90.1c0,0.7,0,1.3,0.4,1.6l6.3,6.4c0.4,0.4,0.8,0.9,0.8,1.3C467.2,138.5,466.8,138.7,466,138.7L466,138.7z"></path> </g> </g> <g> <path id="SVGID_13_" class="st2" d="M461.2,24l-10-9.7l0,0l0,0l-9.9,9.6c-0.2-0.9-0.4-1.8-0.4-2.8c0-5.8,4.7-10.4,10.4-10.4 c5.8,0,10.4,4.7,10.4,10.4C461.6,22.1,461.4,23.1,461.2,24L461.2,24z M451.1,20.3l7.9,7.6c-1.9,2.2-4.7,3.6-7.9,3.6 c-3.2,0-6-1.4-7.9-3.6L451.1,20.3L451.1,20.3z"></path> <path class="st1" d="M58.7,127c-0.4,0-0.6,0.4-1,0.7c-1.6,2.2-3.9,3.1-5.9,3.1c-1.8,0-2.7-2.2-2.7-4.5v-66 c0-18.7-12.9-22.7-20.2-22.7c-11.4,0-23.1,12.7-23.1,14.9c0,0.5,0.2,0.9,0.6,0.9c0.6,0,1.2-0.2,1.6-0.5c3.7-3.3,12.2-7.5,18.2-7.5 c6.5,0,8.6,2,8.6,10c0,7.5,0,9.1-4.1,12C8.3,83.4,4.8,88.8,4.8,109.2c0,24.9,9.8,29.5,17.8,29.5c5.5,0,10.8-3.6,14.1-6.9 c2.4,3.3,5.7,6.9,12,6.9c5.1,0,9.8-5.5,10.6-10.7C59.3,127.4,59.1,127,58.7,127z M34.8,120.1c0,5.1-3.7,10.7-8.2,10.7 s-6.7-4.2-6.7-24.9c0-18.6,3.3-24.9,14.5-33.5h0.4V120.1z"></path> <path class="st1" d="M88.5,138.7h-27c-0.6,0-1.2-0.2-1.2-0.7c0-0.4,0.4-0.9,0.8-1.3l6.3-6.4c0.4-0.4,0.4-0.9,0.4-1.6V11 c0-0.7-0.2-1.1-0.6-1.5l-6.1-5.3c-0.4-0.4-0.8-0.9-0.8-1.3c0-0.5,0.6-0.7,1.2-0.7h19.6c0.6,0,1,0.4,1,1.1v125.4 c0,0.7,0,1.3,0.4,1.6l6.3,6.4c0.4,0.4,0.8,0.9,0.8,1.3C89.7,138.5,89.3,138.7,88.5,138.7L88.5,138.7z"></path> <path class="st1" d="M151.3,138.7h-26.9c-0.8,0-1.2-0.2-1.2-0.7c0-0.4,0.4-0.9,0.8-1.3l6.3-6.4c0.4-0.4,0.4-0.9,0.4-1.6V55.9 c0-6.9-2.2-10.6-6.9-10.6c-4.9,0-10.2,6-10.2,15.8v67.5c0,0.7,0,1.3,0.2,1.6l6.3,6.4c0.6,0.4,1,0.9,1,1.3c0,0.5-0.6,0.7-1.2,0.7H93 c-0.8,0-1.2-0.2-1.2-0.7c0-0.4,0.2-0.9,0.8-1.3l6.3-6.4c0.4-0.4,0.4-0.9,0.4-1.6V11c0-0.7-0.2-1.1-0.8-1.5l-5.9-5.3 c-0.6-0.4-0.8-0.9-0.8-1.3c0-0.5,0.4-0.7,1.2-0.7h19.4c0.8,0,1.2,0.4,1.2,1.1v40.6h0.4c3.7-3.5,7.1-6.4,14.1-6.4 c10.2,0,16.9,6.4,16.9,18.6v72.6c0,0.7,0,1.3,0.4,1.6l6.3,6.4c0.4,0.4,0.8,0.9,0.8,1.3C152.5,138.5,151.9,138.7,151.3,138.7 L151.3,138.7z"></path> <path class="st1" d="M214,138.7h-19c-0.8,0-1.4-0.4-1.4-0.7v-6.2h-0.4c-3.5,3.6-7.1,6.9-13.7,6.9c-11.8,0-17.3-6.2-17.3-18.6V46.3 c0-0.7-0.2-1.1-0.6-1.5l-6.1-5.1c-0.4-0.5-0.8-1.1-0.8-1.5c0-0.5,0.6-0.7,1.2-0.7h19.6c0.6,0,1,0.4,1,1.1v81.7 c0,6.9,2.7,10.6,8,10.6c4.9,0,9.2-5.6,9.2-14.6v-70c0-0.7-0.2-1.1-0.6-1.5l-5.9-5.1c-0.6-0.5-1-1.1-1-1.5c0-0.5,0.6-0.7,1.2-0.7 H207c0.8,0,1,0.4,1,1.1v90.1c0,0.7,0,1.3,0.2,1.6l6.3,6.4c0.6,0.4,1,0.9,1,1.3C215.4,138.5,214.8,138.7,214,138.7L214,138.7z"></path> <path class="st1" d="M256.2,75c-0.6,0-1-0.7-1.2-1.6c-1.2-5.6-2.7-11.1-6.1-18.9c-2.7-5.8-5.5-9.1-9.4-9.1c-4.3,0-5.1,4.4-5.1,9.8 c0,7.6,4.3,18,12.4,29.7c7.8,11.1,13.3,23.8,13.3,35.7c0,11.3-9,18.2-17.5,18.2c-5.7,0-9.2-2.4-12.2-5.8l-5.3,4.9 c-0.6,0.4-1.2,0.9-2,0.9c-0.4,0-0.6-0.5-0.6-1.3v-34.9c0-0.5,0.2-1.3,0.8-1.3c1,0,1,0.7,1.2,1.6c3.3,14.7,8,28,15.5,28 c4.5,0,6.5-3.1,6.5-7.8c0-11.3-6.5-23.3-13.1-32.8C226,79.4,221.7,68.1,221.7,57c0-11.8,8.2-19.5,15.5-19.5c4.9,0,8.6,2.2,12,5.8 l5.9-4.7c0.4-0.4,0.8-1.1,1.4-1.1c0.4,0,0.8,0.9,0.8,1.8v34.2C257.4,74.3,257,75,256.2,75L256.2,75z"></path> <path class="st1" d="M324.2,127c-0.4,0-0.6,0.4-1,0.7c-1.6,2.2-3.9,3.1-5.9,3.1c-1.8,0-2.7-2.2-2.7-4.5v-66 c0-18.7-12.9-22.7-20.2-22.7c-11.4,0-23,12.7-23,14.9c0,0.5,0.2,0.9,0.6,0.9c0.6,0,1.2-0.2,1.6-0.5c3.7-3.3,12.3-7.5,18.2-7.5 c6.5,0,8.6,2,8.6,10c0,7.5,0,9.1-4.1,12c-22.4,16-25.9,21.5-25.9,41.8c0,24.9,9.8,29.5,17.8,29.5c5.5,0,10.8-3.6,14.1-6.9 c2.5,3.3,5.7,6.9,12,6.9c5.1,0,9.8-5.5,10.6-10.7C324.8,127.4,324.5,127,324.2,127z M300.3,120.1c0,5.1-3.7,10.7-8.2,10.7 s-6.7-4.2-6.7-24.9c0-18.6,3.3-24.9,14.5-33.5h0.4L300.3,120.1L300.3,120.1z"></path> <path class="st1" d="M372.3,39.7l-5.1,4.4c-1,0.9-1.4,2-1.6,3.3l-13.7,98.4c-1.6,11.8-7.3,16.9-13.7,16.9 c-10.2,0-14.5-11.6-14.5-17.3c0-0.7,0.2-1.3,0.8-1.3c0.8,0,1.2,0.5,1.6,1.3c2.9,5.1,5.3,9.5,9.6,9.5c4.7,0,6.5-4,6.5-10.4 c0-3.8-0.6-10.6-1.4-16l-12.2-81.1c-0.2-0.9-0.8-2.2-1.4-2.7l-4.5-4.9c-0.4-0.5-0.8-1.1-0.8-1.5c0-0.5,0.4-0.7,1.2-0.7h22.7 c0.6,0,1.2,0.2,1.2,0.7c0,0.4-0.2,0.9-0.6,1.5l-3.9,4.5c-0.6,0.9-1,2-0.8,3.5l7.3,52.8h0.4l5.9-52.8c0.2-1.5-0.2-2.7-1-3.5 l-4.5-4.5c-0.4-0.4-0.8-1.1-0.8-1.5c0-0.5,0.6-0.7,1.2-0.7h21.6c0.6,0,1.2,0.2,1.2,0.7C373.1,38.6,372.9,39.3,372.3,39.7 L372.3,39.7z"></path> <path class="st1" d="M434.5,138.7h-26.9c-0.8,0-1.2-0.2-1.2-0.7c0-0.4,0.4-0.9,0.8-1.3l6.3-6.4c0.4-0.4,0.4-0.9,0.4-1.6V55.9 c0-6.9-2.2-10.6-6.9-10.6c-4.9,0-10.2,6-10.2,15.8v67.5c0,0.7,0,1.3,0.2,1.6l6.3,6.4c0.6,0.4,1,0.9,1,1.3c0,0.5-0.6,0.7-1.2,0.7 h-26.9c-0.8,0-1.2-0.2-1.2-0.7c0-0.4,0.2-0.9,0.8-1.3l6.3-6.4c0.4-0.4,0.4-0.9,0.4-1.6V46.3c0-0.7-0.2-1.1-0.6-1.5l-6.1-5.1 c-0.4-0.5-0.8-1.1-0.8-1.5c0-0.5,0.6-0.7,1.2-0.7h19.6c0.8,0,1,0.4,1,1.1v5.3h0.4c3.7-3.5,7.1-6.4,14.1-6.4 c10.2,0,16.9,6.4,16.9,18.6v72.6c0,0.7,0,1.3,0.4,1.6l6.3,6.4c0.4,0.4,0.8,0.9,0.8,1.3C435.8,138.5,435.1,138.7,434.5,138.7 L434.5,138.7z"></path> <path class="st1" d="M466,138.7h-27c-0.6,0-1.2-0.2-1.2-0.7c0-0.4,0.4-0.9,0.8-1.3l6.3-6.4c0.4-0.4,0.4-0.9,0.4-1.6V46.3 c0-0.7-0.2-1.1-0.6-1.5l-6.1-5.1c-0.4-0.5-0.8-1.1-0.8-1.5c0-0.5,0.6-0.7,1.2-0.7h19.6c0.6,0,1,0.4,1,1.1v90.1c0,0.7,0,1.3,0.4,1.6 l6.3,6.4c0.4,0.4,0.8,0.9,0.8,1.3C467.2,138.5,466.8,138.7,466,138.7L466,138.7z"></path> </g> <g> <path class="st1" d="M21.5,189.7H19v-16.4l-5.3,11.2h-1.5l-5.3-11.2v16.4H4.6v-19H8l5.1,10.6l4.9-10.6h3.5V189.7z"></path> <path class="st1" d="M42.4,182.9H31.9c0,0.9,0.1,1.6,0.4,2.3s0.6,1.2,1.1,1.6c0.4,0.4,1,0.7,1.6,0.9s1.3,0.3,2,0.3 c1,0,1.9-0.2,2.9-0.6s1.7-0.8,2.1-1.1h0.1v2.6c-0.8,0.3-1.6,0.6-2.5,0.9c-0.8,0.2-1.7,0.3-2.7,0.3c-2.4,0-4.2-0.6-5.5-1.9 s-2-3.1-2-5.5c0-2.3,0.6-4.2,1.9-5.6c1.3-1.4,2.9-2.1,5-2.1c1.9,0,3.4,0.6,4.5,1.7c1,1.1,1.6,2.7,1.6,4.8 C42.4,181.5,42.4,182.9,42.4,182.9z M40.1,181c0-1.3-0.3-2.2-1-2.9c-0.6-0.7-1.6-1-2.9-1c-1.3,0-2.3,0.4-3.1,1.1 c-0.8,0.8-1.2,1.7-1.3,2.8L40.1,181L40.1,181z"></path> <path class="st1" d="M61.6,189.7h-2.4v-1.5c-0.7,0.6-1.4,1.1-2.2,1.4c-0.7,0.3-1.6,0.5-2.4,0.5c-1.7,0-3.1-0.7-4.1-2 S49,185,49,182.6c0-1.2,0.2-2.3,0.5-3.2s0.8-1.8,1.4-2.4c0.6-0.6,1.3-1.1,2-1.5c0.8-0.3,1.6-0.5,2.4-0.5c0.7,0,1.4,0.1,2,0.2 c0.6,0.2,1.2,0.4,1.8,0.7v-6.2h2.4L61.6,189.7L61.6,189.7z M59.2,186.2V178c-0.6-0.3-1.2-0.5-1.7-0.6s-1.1-0.2-1.7-0.2 c-1.3,0-2.4,0.5-3.1,1.4c-0.8,0.9-1.1,2.3-1.1,4s0.3,3,0.9,3.9s1.5,1.3,2.8,1.3c0.7,0,1.4-0.2,2.1-0.5S58.6,186.7,59.2,186.2z"></path> <path class="st1" d="M73,173.1h-2.7v-2.5H73V173.1z M72.8,189.7h-2.4v-14.3h2.4V189.7z"></path> <path class="st1" d="M92.2,188.8c-0.8,0.4-1.6,0.7-2.3,0.9s-1.5,0.3-2.3,0.3c-1,0-2-0.2-2.8-0.5c-0.9-0.3-1.6-0.8-2.2-1.4 c-0.6-0.6-1.1-1.4-1.4-2.3c-0.3-0.9-0.5-2-0.5-3.3c0-2.3,0.6-4.2,1.9-5.5s3-2,5.1-2c0.8,0,1.6,0.1,2.4,0.3s1.5,0.5,2.2,0.8v2.7H92 c-0.7-0.6-1.5-1-2.3-1.3s-1.5-0.5-2.3-0.5c-1.4,0-2.4,0.5-3.2,1.4s-1.2,2.3-1.2,4s0.4,3,1.2,4c0.8,0.9,1.9,1.4,3.3,1.4 c0.5,0,1-0.1,1.5-0.2c0.5-0.1,1-0.3,1.4-0.5c0.3-0.2,0.7-0.4,1-0.6s0.5-0.4,0.7-0.5h0.1V188.8z"></path> <path class="st1" d="M110.4,189.7H108v-1.5c-0.2,0.1-0.5,0.3-0.9,0.6s-0.7,0.5-1.1,0.6c-0.4,0.2-0.9,0.4-1.4,0.5s-1.1,0.2-1.8,0.2 c-1.3,0-2.4-0.4-3.3-1.3c-0.9-0.9-1.3-1.9-1.3-3.3c0-1.1,0.2-2,0.7-2.6c0.5-0.7,1.1-1.2,2-1.6c0.9-0.4,1.9-0.6,3.1-0.8 c1.2-0.1,2.5-0.2,3.9-0.3v-0.4c0-0.5-0.1-1-0.3-1.4c-0.2-0.4-0.5-0.6-0.8-0.8s-0.7-0.3-1.2-0.4c-0.5-0.1-1-0.1-1.5-0.1 c-0.6,0-1.3,0.1-2.1,0.3c-0.8,0.2-1.6,0.4-2.4,0.7h-0.1v-2.4c0.5-0.1,1.1-0.3,2-0.4c0.9-0.2,1.8-0.2,2.6-0.2c1,0,1.9,0.1,2.6,0.2 c0.7,0.2,1.4,0.5,1.9,0.9s0.9,0.9,1.2,1.5c0.3,0.6,0.4,1.4,0.4,2.3v9.7H110.4z M108,186.2v-4c-0.7,0-1.6,0.1-2.6,0.2 c-1,0.1-1.8,0.2-2.4,0.4c-0.7,0.2-1.2,0.5-1.7,0.9c-0.4,0.4-0.6,1-0.6,1.7c0,0.8,0.2,1.4,0.7,1.8c0.5,0.4,1.2,0.6,2.3,0.6 c0.8,0,1.6-0.2,2.3-0.5C106.7,187.1,107.4,186.7,108,186.2z"></path> <path class="st1" d="M121.5,189.7h-2.4v-19.9h2.4V189.7z"></path> <path class="st1" d="M157.6,178.1v1.2c0,0.8-0.1,1.7-0.3,2.8c-0.2,1-0.6,2-1.1,2.9l4.8,4.7h-3.1l-2.9-2.9c-1,1.2-2,2.1-3,2.5 c-1,0.5-2.1,0.7-3.2,0.7c-1.8,0-3.2-0.5-4.4-1.6s-1.8-2.4-1.8-4.1c0-0.8,0.1-1.5,0.3-2c0.2-0.6,0.5-1.1,0.8-1.5s0.7-0.8,1.1-1.1 s0.9-0.7,1.3-0.9c-0.9-0.6-1.6-1.2-2-1.9c-0.4-0.6-0.6-1.4-0.6-2.4c0-0.6,0.1-1.1,0.3-1.6s0.6-1,1-1.4s1-0.7,1.7-1s1.4-0.4,2.3-0.4 c1.5,0,2.7,0.4,3.6,1.1c0.9,0.7,1.4,1.7,1.4,2.8c0,0.4-0.1,0.8-0.2,1.3c-0.1,0.5-0.3,0.9-0.5,1.3c-0.3,0.4-0.7,0.8-1.2,1.2 s-1.2,0.7-2,1l4.7,4.6c0.1-0.3,0.2-0.7,0.3-1.1c0.1-0.4,0.1-0.8,0.1-1.3s0-1,0-1.6s0-1.1,0-1.5h2.6V178.1z M153.7,185.7l-6.1-6 c-0.3,0.1-0.5,0.3-0.8,0.5s-0.5,0.5-0.8,0.8c-0.2,0.3-0.4,0.7-0.6,1.2c-0.2,0.5-0.2,1-0.2,1.6c0,1.2,0.4,2.2,1.1,3 c0.7,0.8,1.8,1.1,3.1,1.1c0.8,0,1.6-0.2,2.4-0.6C152.5,187.1,153.2,186.5,153.7,185.7z M151.2,174.5c0-0.8-0.2-1.4-0.7-1.9 s-1.1-0.7-1.8-0.7c-0.8,0-1.4,0.3-1.9,0.8s-0.7,1.2-0.7,1.9c0,0.6,0.2,1.2,0.5,1.7s1.1,1.1,2.2,1.8c0.8-0.3,1.5-0.7,1.9-1.3 C151,176.2,151.2,175.4,151.2,174.5z"></path> <path class="st1" d="M191.7,182.9h-10.5c0,0.9,0.1,1.6,0.4,2.3c0.3,0.7,0.6,1.2,1.1,1.6c0.4,0.4,1,0.7,1.6,0.9s1.3,0.3,2,0.3 c1,0,1.9-0.2,2.9-0.6s1.7-0.8,2.1-1.1h0.1v2.6c-0.8,0.3-1.6,0.6-2.5,0.9c-0.8,0.2-1.7,0.3-2.7,0.3c-2.4,0-4.2-0.6-5.5-1.9 s-2-3.1-2-5.5c0-2.3,0.6-4.2,1.9-5.6c1.3-1.4,2.9-2.1,5-2.1c1.9,0,3.4,0.6,4.5,1.7c1,1.1,1.6,2.7,1.6,4.8L191.7,182.9L191.7,182.9z M189.4,181c0-1.3-0.3-2.2-1-2.9c-0.6-0.7-1.6-1-2.9-1c-1.3,0-2.3,0.4-3.1,1.1c-0.8,0.8-1.2,1.7-1.3,2.8L189.4,181L189.4,181z"></path> <path class="st1" d="M213.4,184.3c0,0.7-0.2,1.5-0.5,2.2s-0.8,1.3-1.5,1.8s-1.5,1-2.4,1.3s-2,0.5-3.3,0.5c-1.4,0-2.6-0.1-3.7-0.4 c-1.1-0.3-2.2-0.6-3.3-1.1v-3.2h0.2c1,0.8,2.1,1.4,3.3,1.9s2.4,0.7,3.6,0.7c1.6,0,2.8-0.3,3.7-0.9c0.9-0.6,1.3-1.4,1.3-2.4 c0-0.8-0.2-1.5-0.6-1.9c-0.4-0.4-1-0.7-1.9-0.9c-0.6-0.2-1.3-0.3-2.1-0.4c-0.7-0.1-1.5-0.3-2.4-0.4c-1.7-0.4-2.9-1-3.8-1.8 c-0.8-0.9-1.2-2-1.2-3.4c0-1.6,0.7-2.9,2-3.9s3.1-1.5,5.1-1.5c1.3,0,2.6,0.1,3.7,0.4s2.1,0.6,3,0.9v3h-0.2 c-0.7-0.6-1.7-1.1-2.9-1.5s-2.4-0.6-3.6-0.6c-1.4,0-2.4,0.3-3.3,0.8c-0.8,0.6-1.2,1.3-1.2,2.2c0,0.8,0.2,1.4,0.6,1.9 c0.4,0.5,1.1,0.8,2.2,1c0.5,0.1,1.3,0.3,2.3,0.4c1,0.2,1.9,0.3,2.6,0.5c1.4,0.4,2.5,0.9,3.2,1.7C213,181.9,213.4,182.9,213.4,184.3 z"></path> <path class="st1" d="M233.2,182.9h-10.5c0,0.9,0.1,1.6,0.4,2.3c0.3,0.7,0.6,1.2,1.1,1.6c0.4,0.4,1,0.7,1.6,0.9s1.3,0.3,2,0.3 c1,0,1.9-0.2,2.9-0.6s1.7-0.8,2.1-1.1h0.1v2.6c-0.8,0.3-1.6,0.6-2.5,0.9c-0.8,0.2-1.7,0.3-2.7,0.3c-2.4,0-4.2-0.6-5.5-1.9 s-2-3.1-2-5.5c0-2.3,0.6-4.2,1.9-5.6c1.3-1.4,2.9-2.1,5-2.1c1.9,0,3.4,0.6,4.5,1.7c1,1.1,1.6,2.7,1.6,4.8L233.2,182.9L233.2,182.9z M230.9,181c0-1.3-0.3-2.2-1-2.9c-0.6-0.7-1.6-1-2.9-1c-1.3,0-2.3,0.4-3.1,1.1c-0.8,0.8-1.2,1.7-1.3,2.8L230.9,181L230.9,181z"></path> <path class="st1" d="M249.8,178.1h-0.1c-0.4-0.1-0.7-0.1-1-0.2c-0.3,0-0.7-0.1-1.2-0.1c-0.7,0-1.5,0.2-2.1,0.5 c-0.7,0.3-1.4,0.8-2,1.3v10.1H241v-14.3h2.4v2.1c1-0.8,1.8-1.3,2.5-1.6s1.5-0.5,2.2-0.5c0.4,0,0.7,0,0.9,0s0.5,0.1,0.8,0.1 L249.8,178.1L249.8,178.1z"></path> <path class="st1" d="M268.5,175.5l-5.8,14.3h-2.4l-5.7-14.3h2.6l4.4,11.4l4.4-11.4H268.5z"></path> <path class="st1" d="M278.2,173.1h-2.7v-2.5h2.7V173.1z M278.1,189.7h-2.4v-14.3h2.4V189.7z"></path> <path class="st1" d="M297.4,188.8c-0.8,0.4-1.6,0.7-2.3,0.9c-0.7,0.2-1.5,0.3-2.3,0.3c-1,0-2-0.2-2.8-0.5c-0.9-0.3-1.6-0.8-2.2-1.4 c-0.6-0.6-1.1-1.4-1.4-2.3c-0.3-0.9-0.5-2-0.5-3.3c0-2.3,0.6-4.2,1.9-5.5s3-2,5.1-2c0.8,0,1.6,0.1,2.4,0.3s1.5,0.5,2.2,0.8v2.7 h-0.1c-0.7-0.6-1.5-1-2.3-1.3s-1.5-0.5-2.3-0.5c-1.4,0-2.4,0.5-3.2,1.4s-1.2,2.3-1.2,4s0.4,3,1.2,4c0.8,0.9,1.9,1.4,3.3,1.4 c0.5,0,1-0.1,1.5-0.2s1-0.3,1.4-0.5c0.3-0.2,0.7-0.4,1-0.6s0.5-0.4,0.7-0.5h0.1v2.8H297.4z"></path> <path class="st1" d="M316.5,182.9H306c0,0.9,0.1,1.6,0.4,2.3s0.6,1.2,1.1,1.6c0.4,0.4,1,0.7,1.6,0.9s1.3,0.3,2,0.3 c1,0,1.9-0.2,2.9-0.6c1-0.4,1.7-0.8,2.1-1.1h0.1v2.6c-0.8,0.3-1.6,0.6-2.5,0.9c-0.8,0.2-1.7,0.3-2.7,0.3c-2.4,0-4.2-0.6-5.5-1.9 s-2-3.1-2-5.5c0-2.3,0.6-4.2,1.9-5.6c1.3-1.4,3-2.1,5-2.1c1.9,0,3.4,0.6,4.5,1.7c1,1.1,1.6,2.7,1.6,4.8V182.9z M314.1,181 c0-1.3-0.3-2.2-1-2.9s-1.6-1-2.9-1s-2.3,0.4-3.1,1.1c-0.8,0.8-1.2,1.7-1.3,2.8L314.1,181L314.1,181z"></path> <path class="st1" d="M334.3,185.6c0,1.3-0.5,2.4-1.6,3.2s-2.5,1.3-4.4,1.3c-1.1,0-2-0.1-2.9-0.4s-1.6-0.5-2.2-0.8v-2.7h0.1 c0.8,0.6,1.6,1,2.5,1.4s1.8,0.5,2.7,0.5c1.1,0,1.9-0.2,2.5-0.5s0.9-0.9,0.9-1.6c0-0.6-0.2-1-0.5-1.3s-0.9-0.5-1.9-0.7 c-0.3-0.1-0.8-0.2-1.3-0.3s-1-0.2-1.5-0.3c-1.3-0.3-2.1-0.8-2.7-1.5c-0.5-0.6-0.8-1.4-0.8-2.4c0-0.6,0.1-1.1,0.4-1.7 c0.2-0.5,0.6-1,1.1-1.4s1.1-0.7,1.8-1c0.7-0.2,1.6-0.4,2.5-0.4s1.7,0.1,2.6,0.3s1.6,0.5,2.2,0.8v2.6h-0.1c-0.6-0.5-1.4-0.8-2.2-1.1 c-0.9-0.3-1.7-0.5-2.6-0.5s-1.6,0.2-2.2,0.5s-0.9,0.8-0.9,1.5c0,0.6,0.2,1,0.5,1.3c0.4,0.3,0.9,0.5,1.7,0.7 c0.4,0.1,0.9,0.2,1.5,0.3s1,0.2,1.4,0.3c1.1,0.3,2,0.7,2.6,1.3C334,183.8,334.3,184.6,334.3,185.6z"></path> <path class="st1" d="M367.3,189.7h-12v-19h2.5v16.8h9.5V189.7z"></path> <path class="st1" d="M381,189.6c-0.5,0.1-0.9,0.2-1.5,0.3c-0.5,0.1-1,0.1-1.4,0.1c-1.5,0-2.6-0.4-3.3-1.2c-0.8-0.8-1.1-2-1.1-3.8 v-7.6H372v-2h1.6v-4.1h2.4v4.1h5v2h-5v6.5c0,0.7,0,1.3,0.1,1.8c0,0.4,0.2,0.8,0.4,1.2c0.2,0.3,0.4,0.6,0.8,0.7 c0.3,0.2,0.8,0.2,1.5,0.2c0.4,0,0.8-0.1,1.2-0.2s0.7-0.2,0.9-0.3h0.1V189.6z"></path> <path class="st1" d="M399.5,189.7h-2.4v-1.5c-0.7,0.6-1.4,1.1-2.2,1.4c-0.8,0.3-1.6,0.5-2.4,0.5c-1.7,0-3.1-0.7-4.1-2 s-1.5-3.1-1.5-5.5c0-1.2,0.2-2.3,0.5-3.2s0.8-1.8,1.4-2.4c0.6-0.6,1.3-1.1,2-1.5c0.8-0.3,1.6-0.5,2.4-0.5c0.7,0,1.4,0.1,2,0.2 c0.6,0.2,1.2,0.4,1.8,0.7v-6.2h2.4v20H399.5z M397.1,186.2V178c-0.6-0.3-1.2-0.5-1.7-0.6s-1.1-0.2-1.7-0.2c-1.3,0-2.4,0.5-3.1,1.4 s-1.1,2.3-1.1,4s0.3,3,0.9,3.9s1.5,1.3,2.8,1.3c0.7,0,1.4-0.2,2.1-0.5S396.5,186.7,397.1,186.2z"></path> <path class="st1" d="M412.2,189.7h-3.1v-3.6h3.1V189.7z"></path> <path class="st1" d="M436.7,188.4c-0.5,0.2-0.9,0.4-1.3,0.6c-0.4,0.2-0.9,0.4-1.5,0.6c-0.5,0.2-1.1,0.3-1.7,0.4 c-0.6,0.1-1.3,0.2-2,0.2c-1.4,0-2.6-0.2-3.8-0.6s-2.1-1-2.9-1.8s-1.5-1.8-1.9-3.1c-0.5-1.2-0.7-2.7-0.7-4.4c0-1.6,0.2-3,0.7-4.2 c0.4-1.2,1.1-2.3,1.9-3.1s1.8-1.5,2.9-1.9s2.4-0.7,3.8-0.7c1,0,2,0.1,3.1,0.4s2.1,0.7,3.4,1.3v3h-0.2c-1-0.9-2.1-1.5-3.1-1.9 s-2.1-0.6-3.3-0.6c-1,0-1.8,0.2-2.6,0.5c-0.8,0.3-1.5,0.8-2.1,1.5c-0.6,0.6-1,1.4-1.4,2.4c-0.3,1-0.5,2.1-0.5,3.4 c0,1.3,0.2,2.5,0.5,3.5c0.4,1,0.8,1.7,1.4,2.4c0.6,0.6,1.3,1.1,2.1,1.4c0.8,0.3,1.6,0.5,2.5,0.5c1.2,0,2.4-0.2,3.4-0.6 c1.1-0.4,2.1-1,3-1.9h0.2v2.7H436.7z"></path> <path class="st1" d="M456.3,182.6c0,2.3-0.6,4.2-1.8,5.5c-1.2,1.3-2.8,2-4.8,2s-3.6-0.7-4.8-2c-1.2-1.3-1.8-3.2-1.8-5.5 s0.6-4.2,1.8-5.5c1.2-1.4,2.8-2,4.8-2s3.6,0.7,4.8,2S456.3,180.3,456.3,182.6z M453.8,182.6c0-1.8-0.4-3.2-1.1-4.1 c-0.7-0.9-1.7-1.3-3-1.3s-2.3,0.4-3,1.3c-0.7,0.9-1.1,2.3-1.1,4.1s0.4,3.1,1.1,4.1c0.7,0.9,1.7,1.4,3,1.4s2.3-0.5,3-1.4 S453.8,184.4,453.8,182.6z"></path> <path class="st1" d="M468,189.7h-3.1v-3.6h3.1V189.7z"></path> </g> </svg> 