<?xml version="1.0" encoding="UTF-8"?> <svg xmlns="http://www.w3.org/2000/svg" xmlns:xlink="http://www.w3.org/1999/xlink" version="1.1" x="0px" y="0px" width="61px" height="61px" viewBox="0 0 61 61" style="enable-background:new 0 0 61 61;" xml:space="preserve"> <g id="Shape_1_copy_1_" style="enable-background:new ;"> <g id="Shape_1_copy"> <g> <path style="fill-rule:evenodd;clip-rule:evenodd;fill:#E58036;" d="M30.518,1.194C14.293,1.194,1.14,14.348,1.14,30.573 s13.153,29.379,29.378,29.379c16.226,0,29.378-13.153,29.378-29.379S46.744,1.194,30.518,1.194z M30.518,57.809 c-15.042,0-27.236-12.194-27.236-27.236S15.476,3.336,30.518,3.336c15.042,0,27.236,12.194,27.236,27.236 S45.561,57.809,30.518,57.809z"></path> </g> </g> </g> <g id="Forma_1_1_" style="enable-background:new ;"> <g id="Forma_1"> <g> <path style="fill-rule:evenodd;clip-rule:evenodd;fill:#FFFFFF;" d="M30.093,10.328c-11.346,0-20.578,9.23-20.578,20.578 c0,11.347,9.232,20.578,20.578,20.578c11.347,0,20.58-9.229,20.58-20.578C50.673,19.559,41.439,10.328,30.093,10.328z M26.136,17.695l0.962,0.272v-1.265l0.375-0.354l0.401,0.779l0.764,0.922l-0.309,0.424l-1.232,0.284v-0.75l-0.962,0.75 l-0.279-0.427L26.136,17.695z M11.314,30.447c0.096-3.983,1.437-7.653,3.65-10.656c0.075,0.01,0.126,0.029,0.126,0.029 c0,0.283-0.386,0.352,0,1.063c0.494,0.92,0.07,1.346,0.07,1.346s-1.206,0.85-1.417,0.992c-0.212,0.142-0.779,0.921-0.426,0.708 c0.354-0.213,0.778-0.424,0.426,0.142c-0.354,0.568-0.992,1.487-1.133,1.844c-0.141,0.355-0.85,1.204-0.85,1.63 s-0.283,1.276-0.212,1.631C11.596,29.422,11.438,30.149,11.314,30.447z M18.632,42.281l-0.284,1.062l0.284,0.85 c0,0-0.427,0.355-0.707,0.355c-0.262,0-0.351,0.165-0.636,0.088c-2.702-2.524-4.663-5.824-5.512-9.552 c0.091,0.024,0.222,0.091,0.406,0.253c0.268,0.232,0.426,0.352,0.78,0.496c0.353,0.145,0.495,0.352,0.92,0.564 c0.426,0.216,0.285,0.074,0.85,0.711c0.568,0.637,0.497,0.637,0.638,0.991c0.14,0.354,0.354,0.708,0.497,0.922 c0.143,0.213,0.566,0.354,0.779,0.497c0.212,0.141,0.566,0.283,0.778,0.283c0.213,0,0.852,0.637,1.206,0.707 c0.354,0.073,0.354,0.781,0.354,0.781L18.632,42.281z M21.466,14.934c-0.921,0.991-0.708,0.708-0.921,0.991 c-0.211,0.282-0.142,0.353-0.639,0.708c-0.495,0.354-0.707,0.779-0.707,0.779l-0.78,0.283l-0.636-0.283 c0,0-0.569,0.213-0.498-0.071c0.02-0.074,0.049-0.152,0.083-0.235c1.734-1.601,3.764-2.875,6.003-3.738 c-0.221,0.284-0.488,0.574-0.488,0.574S22.387,13.94,21.466,14.934z M43.076,40.368c-0.074,0.282-0.213,0.778-0.284,1.063 c-0.071,0.282-0.426,0.851-0.636,0.99c-0.213,0.143-0.567,0.568-0.779,0.641c-0.211,0.071-0.355-0.499-0.285-0.78 c0.074-0.286,0.426-1.063,0.426-1.063s0.071-0.424,0.143-0.709c0.073-0.281,0.923-0.636,0.923-0.636l0.569-1.064 c0,0,0.07,0.285,0.07,0.497C43.217,39.516,43.146,40.084,43.076,40.368z M43.288,33.708c-0.144,0.213-0.569,0.777-0.78,1.062 c-0.213,0.282-0.494,0.707-0.919,1.063c-0.426,0.353-0.429,0.705-0.638,0.994c-0.213,0.282-0.497,0.919-0.497,0.919 s0.142,1.418,0.212,1.702c0.072,0.284-0.496,1.06-0.496,1.06l-0.638,0.637l-0.854,1.135l0.068,1.062c0,0-0.643,0.496-0.998,0.78 c-0.353,0.283-0.297,0.495-0.579,0.78c-0.281,0.28-1.032,0.777-1.316,0.848c-0.282,0.072-1.487,0.284-1.487,0.284v-0.637 l-0.391-0.71c0,0-0.395-0.848-0.607-1.133c-0.213-0.282-0.211-0.71-0.564-1.063c-0.354-0.354-0.527-0.637-0.599-0.852 c-0.073-0.211,0.052-0.848,0.052-0.848s0.271-0.78,0.415-1.063c0.144-0.284-0.005-0.71-0.149-0.993 c-0.142-0.285-0.211-0.993-0.211-1.204c0-0.212-0.572-0.569-0.783-0.78c-0.211-0.214-0.142-0.497-0.142-0.779 c0-0.283-0.212-0.922-0.144-1.417c0.07-0.495-0.637-0.143-1.061,0c-0.425,0.141-0.707-0.143-0.707-0.568 c0-0.423-0.779-0.068-1.276,0.211c-0.498,0.282-1.063,0.282-1.633,0.495c-0.564,0.213-0.846-0.213-0.846-0.213 s-0.499-0.425-0.851-0.637c-0.355-0.211-0.71-0.637-0.994-0.991c-0.283-0.354-0.993-1.419-1.061-1.841 c-0.072-0.428,0-0.712,0-1.207c0-0.496,0-0.778,0.069-1.134c0.071-0.354,0.283-0.78,0.497-1.134 c0.212-0.354,0.992-0.778,1.203-0.921c0.212-0.141,0.708-0.564,0.708-0.85c0-0.283,0.285-0.425,0.424-0.709 c0.144-0.283,0.639-0.991,1.277-0.708c0,0,0.564-0.069,0.777-0.141c0.212-0.071,0.779-0.282,1.059-0.424 c0.284-0.143,0.99-0.209,0.99-0.209s0.557,0.222,0.77,0.222c0.212,0,0.904-0.123,0.904-0.123s0.32,1.026,0.32,1.24 s0.213,0.424,0.57,0.566c0.351,0.141,1.981,0.495,2.692-0.071c0.165-0.131,0.706,0.212,0.706,0.212s1.771,0.354,2.055,0.566 c0.283,0.214,0.779,0.356,0.922,0.57c0.143,0.212,0.635,0.85,0.706,1.062c0.073,0.212,0.429,0.993,0.499,1.275 c0.071,0.283,0.281,0.992,0.494,1.347c0.213,0.355,1.418,1.91,1.842,2.621l1.279-0.211C43.572,32.857,43.43,33.495,43.288,33.708 z M48.46,31.018c-0.069-0.285-0.495-1.276-0.495-1.276s-0.426-0.566-0.709-0.709c-0.282-0.143-0.495-0.497-0.992-0.779 c-0.496-0.284-0.707-0.425-1.131-0.425c-0.428,0-0.85-0.567-1.348-0.852c-0.497-0.281-0.568-0.141-0.568-0.141 s0.568,0.85,0.568,1.063c0,0.212,0.635,0.565,1.276,0.424c0,0,0.424,0.779,0.636,0.991c0.213,0.212-0.071,0.427-0.496,0.709 s-0.353,0.213-0.568,0.425c-0.213,0.212-0.919,0.569-1.133,0.708c-0.212,0.142-1.063,0.567-1.486,0.142 c-0.207-0.205-0.145-0.637-0.281-0.922c-0.144-0.282-1.631-2.479-2.34-3.47c-0.123-0.174-0.426-0.712-0.635-0.85 c-0.213-0.144,0.498-0.144,0.498-0.144s0-0.496-0.072-0.85c-0.071-0.354,0.072-0.85,0.072-0.85s-0.71,0.424-0.924,0.566 c-0.213,0.142-0.426-0.282-0.707-0.638c-0.283-0.353-0.566-0.78-0.638-1.135c-0.071-0.354,0.354-0.495,0.354-0.495l0.637-0.353 c0,0,0.779-0.142,1.278-0.071c0.495,0.071,1.274,0.142,1.274,0.142s0.212-0.496-0.072-0.708 c-0.281-0.212-0.924-0.567-1.205-0.495c-0.282,0.069,0.141-0.354,0.494-0.639l-0.785-0.142c0,0-0.713,0.354-0.929,0.426 c-0.212,0.069-0.579,0.212-0.865,0.565c-0.28,0.354,0.113,0.851-0.171,0.992c-0.279,0.143-0.472,0.212-0.686,0.282 c-0.212,0.071-0.886,0-0.886,0c-0.731,0-0.264,0.668-0.073,0.904l-0.566-0.69l-0.42-0.994c0,0-0.604-0.424-0.887-0.565 c-0.285-0.14-1.157-0.638-1.157-0.638l0.06,0.638l0.821,0.832l0.072,0.019l0.503,0.566l-0.869,0.07v-0.559 c-1.452-0.215-0.731-0.436-0.831-0.504c-0.21-0.141-0.74-0.497-0.74-0.497s-0.854,0.143-1.066,0.214 c-0.213,0.071-0.28,0.283-0.705,0.424c-0.427,0.143-0.625,0.354-0.766,0.567c-0.141,0.212-0.604,0.85-0.885,1.132 c-0.284,0.285-0.816,0.213-1.028,0.213c-0.213,0-1.24-0.283-1.24-0.283v-1.201c0,0,0.143-0.675,0.071-0.887l0.623-0.104 l1.035-0.214l0.305-0.213l0.436-0.567c0,0-0.489-0.354-0.137-0.85c0.17-0.237,0.782-0.282,1.065-0.495 c0.281-0.212,0.71-0.354,0.71-0.354s0.496-0.424,0.992-0.92c0,0,0.354-0.214,0.778-0.356c0,0,1.205,1.063,1.418,1.063 c0.215,0,0.994-0.495,0.994-0.495s0.212-0.637,0.144-0.85c-0.071-0.213-0.425-0.922-0.425-0.922s-0.213,0.354-0.424,0.638 c-0.213,0.284-0.357,0.639-0.357,0.639s-0.994-0.069-1.063-0.281c-0.072-0.213-0.211-0.563-0.285-0.773 c-0.067-0.214-0.635-0.207-1.058-0.064c-0.428,0.143,0.068-0.764,0.068-0.764s0.427-0.534,0.709-0.534 c0.28,0,0.922-0.363,1.202-0.434c0.283-0.071,1.136-0.616,1.487-0.616c0.354,0,0.78-0.066,0.995-0.066c0.212,0,1.061,0,1.061,0 l1.484,0.101c0,0,1.277,0.58,0.849,0.865c0,0,0.501,0.363,0.712,0.575c0.199,0.2,0.713-0.157,1.008-0.321 c5.302,3.33,8.847,9.227,8.847,15.937c0,0.36-0.032,0.719-0.052,1.074C48.707,31.632,48.508,31.204,48.46,31.018z M26.542,17.968 v0.041l0.022-0.029L26.542,17.968z"></path> </g> </g> </g> </svg> 