<?xml version="1.0" encoding="UTF-8"?> <svg xmlns="http://www.w3.org/2000/svg" xmlns:xlink="http://www.w3.org/1999/xlink" version="1.1" id="Layer_1" x="0px" y="0px" width="61px" height="61px" viewBox="0 0 61 61" xml:space="preserve"> <g id="Shape_1_copy_1_"> <g id="Shape_1_copy"> <g> <path fill="#E58036" d="M30.518,1.194C14.293,1.194,1.14,14.348,1.14,30.573c0,16.225,13.153,29.379,29.378,29.379 c16.226,0,29.378-13.153,29.378-29.379C59.896,14.347,46.744,1.194,30.518,1.194z M30.518,57.809 c-15.042,0-27.236-12.193-27.236-27.235S15.476,3.336,30.518,3.336c15.042,0,27.236,12.194,27.236,27.236 S45.561,57.809,30.518,57.809z"></path> </g> </g> </g> <g> <path fill="#FFFFFF" d="M18.859,20.532c-1.487-1.486-7.806-1.858-9.85-2.044c-0.186,0-0.372,0-0.558,0.186 c-0.186,0.186-0.372,0.557-0.372,0.744v16.725c0,0.559,0.372,0.93,0.93,0.93h5.575c0.372,0,0.744-0.186,0.929-0.559 c0-0.557,3.346-10.406,3.718-15.238C19.23,21.09,19.23,20.718,18.859,20.532L18.859,20.532z M18.859,20.532"></path> <path fill="#FFFFFF" d="M38.743,24.992c-1.857-0.557-3.531-1.301-5.018-1.858c-3.345-1.486-4.832-0.744-7.805,2.23 c-1.301,1.301-2.23,3.16-2.044,3.903c0,0.186,0,0.186,0.372,0.372c0.929,0.372,2.23,0.557,3.531-1.487 c0.186-0.186,0.372-0.371,0.744-0.371c0.557,0,0.743-0.186,1.3-0.372c0.372-0.187,0.744-0.372,1.301-0.558h0.371 c0.187,0,0.558,0.186,0.743,0.186c0.931,0.929,2.603,2.23,4.275,3.717c2.601,2.043,5.203,4.274,6.505,5.947h0.186 C41.902,32.984,39.673,26.665,38.743,24.992L38.743,24.992z M38.743,24.992"></path> <path fill="#FFFFFF" d="M51.752,20.346c-7.247,0-11.336,1.858-11.521,1.858l-0.558,0.557c0,0.187,0,0.558,0.186,0.744 c1.115,1.858,4.832,12.079,5.391,14.681c0.186,0.372,0.557,0.744,0.929,0.744h5.574c0.559,0,0.931-0.372,0.931-0.93V21.276 C52.683,20.718,52.311,20.346,51.752,20.346L51.752,20.346z M51.752,20.346"></path> <path fill="#FFFFFF" d="M41.717,38.559c-0.743-1.672-3.902-4.088-6.69-6.318c-1.486-1.301-2.974-2.416-4.088-3.345 c-0.186,0.186-0.558,0.186-0.558,0.372c-0.558,0.186-0.744,0.372-1.487,0.372c-1.487,1.858-3.345,2.602-5.389,1.858 c-0.93-0.186-1.487-0.93-1.673-1.673c-0.372-1.858,1.3-4.46,2.602-5.761h-3.716c-0.744,3.717-2.044,8.548-2.974,11.15 c0.744,0.743,1.487,1.673,2.044,2.044c3.531,2.974,7.62,5.947,8.363,6.505c0.558,0.372,1.672,0.743,2.23,0.743h0.558l-2.974-2.974 c-0.372-0.371-0.372-0.929,0-1.301c0.372-0.371,0.929-0.371,1.301,0l3.718,3.717c0.371,0.372,0.742,0.187,1.114,0.187 c0.558-0.187,0.743-0.558,0.929-1.115l-4.274-4.275c-0.372-0.371-0.372-0.929,0-1.3c0.372-0.372,0.929-0.372,1.3,0l4.646,4.646 c0.186,0.186,0.929,0.186,1.486,0c0.188-0.186,0.558-0.372,0.743-0.743l-5.203-5.204c-0.371-0.371-0.371-0.929,0-1.301 c0.372-0.371,0.93-0.371,1.301,0l5.39,5.39c0.372,0.187,0.743,0,1.115-0.186C41.717,39.86,42.088,39.302,41.717,38.559 L41.717,38.559z M41.717,38.559"></path> </g> </svg> 