<?xml version="1.0" encoding="UTF-8"?> <svg xmlns="http://www.w3.org/2000/svg" xmlns:xlink="http://www.w3.org/1999/xlink" version="1.1" x="0px" y="0px" viewBox="0 0 317.3 311.3" style="enable-background:new 0 0 317.3 311.3;" xml:space="preserve"> <style type="text/css"> .st0{display:none;} .st1{display:inline;fill:#232937;} .st2{fill:#2C3749;} .st3{fill:#1E1E1E;} .st4{opacity:0.35;clip-path:url(#XMLID_6_);fill:#20367B;} .st5{opacity:0.35;clip-path:url(#XMLID_7_);fill:#20367B;} .st6{opacity:0.37;clip-path:url(#XMLID_8_);fill:#FDAB7D;} .st7{fill:#FDAB7D;} .st8{fill:#37344B;} .st9{clip-path:url(#XMLID_9_);fill:#E0A043;} .st10{fill:#6181D8;} .st11{fill:#FFFFFF;} .st12{fill:#506AC1;} .st13{fill:#E0A043;} .st14{fill:#3D3D3D;} </style> <g id="BACKGROUND"> </g> <g id="OBJECTS"> <g class="st0"> <rect x="-219.1" y="-93.1" class="st1" width="750" height="500"></rect> </g> <g> <g> <path class="st2" d="M203.2,184.5l2.4-0.7l1.6-36.9c3.1,0.8,6.5-1,6.5-1c1.8-7.5-5.3-41.3-5.3-41.3l-15.1-7.2l-3.2-2.5 c-3-6.5,1.9-4.3,3.6-11.3c0,0,0.2-0.9,0.4-2.4c0,0,0.1,0,0.1,0c1.8,0,3.2-1.2,3.2-2.7c0-1.1-0.7-2-1.8-2.5 c0.5-0.5,0.9-1.1,0.9-1.8c0.7-0.6,1.1-1.4,1-2.2c0-0.4-0.2-0.8-0.4-1.1c0.8-0.6,1.2-1.4,1.1-2.3c-0.1-1-0.8-1.8-1.8-2.1 c0.3-0.4,0.5-0.9,0.5-1.4c0-1.5-1.4-2.6-3-2.6c0,0,0,0-0.1,0c-0.1-1.4-1.4-2.5-3-2.5c-0.3,0-0.6,0-0.9,0.1 c-0.4-1.1-1.5-1.9-2.9-1.9c-1,0-2,0.5-2.5,1.2c-0.6-0.6-1.4-1-2.4-1c-1,0-1.9,0.4-2.5,1.1c-0.5-0.4-1.2-0.7-2-0.7 c-1.3,0-2.3,0.7-2.8,1.6c-0.3-0.1-0.6-0.1-1-0.1c-1.7,0-3,1.2-3,2.6c0,0.6,0.2,1.1,0.5,1.5c-1.2,0.3-2.1,1.3-2.1,2.5 c0,0.8,0.4,1.4,1,1.9c-0.8,0.5-1.4,1.3-1.4,2.2c0,0.9,0.5,1.7,1.3,2.1c-0.8,0.5-1.4,1.3-1.4,2.2c0,1.1,0.8,2.1,2,2.5 c0,0.2-0.1,0.5-0.1,0.7c0,1.6,1,2.9,2.2,2.9c0.2,0,0.4,0,0.7-0.1c0.3,1.5,0.7,2.8,1.1,3.3c0,0,4.7,5.9,2.7,9.8 c-0.2,0.4-19.6,12.2-19.6,12.2c-7.8,13,6.9,43.1,6.9,43.1l-0.5,32.4l4.6,0.7c0,0,0.6,31.6-1,36.5c-1.6,4.9-3.9,41.9-5.5,45.5 c-1.6,3.7,0.6,3,0.9,5.4c0.3,2.4-3.2,4-1,9c2.2,5,11.4,2.3,12.4,0.8c0.9-1.5-3.1-8.2-2.2-9.5s0.6-1.5,0.5-3.5 c-0.1-2.1,0-4.1,0-4.1c0.2-12,6.7-42,6.7-42c1.8-3.2,8.9-37.7,8.9-37.7l-3.7,37.7c-3.9,12.2,0.2,39.2,0.8,40.7 c0.6,1.5,1.3,3.8,0.8,7.1c-0.5,3.3,1.1,4.8,1.1,4.8l-2.6,5.1c5.4,4.3,25.4,1.4,25.4,1.4s2.2-4.7-4.8-4.5c-7,0.2-8.5-4-8.5-4 c1.7-1.9-0.7-5.1,0.1-6.1c0.8-0.9-0.8-34.1,1.7-43.1C201.4,213.1,203.2,184.5,203.2,184.5z"></path> </g> <g> <path class="st2" d="M232,74.1c0,0,1.4-7.3,12.1-4.9c10.7,2.4,23.9,27.5,8.8,36.4l11,5.9c0,0,14,23.7,10.7,35 c0,0-4.1,2.4-10.5-0.7l1.4,11.8l-3,0.9c0,0,4.7,26.1-14.3,64.9l2.5,42.1l5.2,10.3c0,0,10.7,3.8,3.9,4.5c-6.9,0.7-10.5-0.5-11-1.9 c-0.6-1.4-2.2-8.5-2.2-8.5s-1.1,9.6-1.4,8.9c-0.3-0.7-2.2-11-2.2-11l2.2-5.2l-5.2-20.2l-6.6,16.7c0,0-1.4,13.6-0.3,14.6 c1.1,0.9,6.3,2.6,2.8,3.8c-3.6,1.2-9.9,0.7-9.6-1.4c0.1-0.9,0.5-3.2,1-5.7c0.7-3.7,1.5-7.7,1.5-7.7l-3.3,8c0,0-0.3-10.8,3-13.6 c3.3-2.8,0-28.4,9.4-36l-0.6-10.8c0,0-3.9-15.5-10.2-24.7c-6.3-9.2,5-27.3,5-27.3l-0.8-2.1c0,0-2.2,1.6-6.3-5.9 c-4.1-7.5-13.8-32.9-5.2-37.8c8.5-4.9,12.9-5.6,12.9-5.6s-9.6-3.1-9.4-10.8C223.4,88.2,226.2,72,232,74.1z"></path> </g> <g> <path class="st2" d="M63.2,216.6c0,0,0.6-4.5,1-11.3c-2,1-2,1,0,0c0.7-13,0.6-34.3-6.8-47l2.7-0.4c0.8-0.1,1.5-0.7,1.7-1.5 c0.1-0.4,0.3-0.7,0.6-1c2.7-2.5,16.9-15.6,19-20.8c0,0-10-20.5-19.6-25.8l-5.4-2.1c0,0,7.9-10.9,7-22.3 c-0.9-11.4-7.8-25.8-17.5-18c0,0-5.9-4.6-11,4.9c-5.1,9.5-2.6,37.7-2.6,37.7s-9.3,11-8.2,35.6c0,0-6.8,28.2-7.4,28.7 c-0.5,0.5-4.4,6.3-1.8,11.6c2.6,5.3,4,1.6,4,1.6s3-3.3,1.2-7.2c0,0,0.5-3.5-0.3-5.3l10.2-25.6v4.1c0,0-10.1,17.8-2.4,53.8 c0,0,0,0,0,0c0.7,3.3,1.5,6.8,2.6,10.4c0,0,5.1,25.6,5.6,55.2l-5.4,10.5c0,0-6,0.7-3.7,1.9c2.3,1.2,7.2,0.2,7.2,0.2l3-7l0.7,7 c1.6-0.2,3.2-10.7,3.2-10.7l-2.5-3.2c0,0,8.9-32.6,2.6-54.5c-0.1-0.3,0.3-2.8,0.9-6.4c2.8,0.2,5.9,0.2,9.1-0.2v0 c1.1-0.1,1.2-0.1,0.1,0c1.4,4.9,2.9,8.9,4.3,10.5l15.1,49.6l-0.9,11.9c0,0-3.2,1.1-0.5,1.9c2.6,0.9,6.1,0.7,6.1-1.2 S73,269.7,73,269S73.2,227.5,63.2,216.6z M53.9,151.7l9-25.3l10.3,9.8L60.1,153L53.9,151.7z"></path> </g> <g> <path class="st2" d="M143.4,279.7c-9.1-0.7-15.9-6.3-15.9-6.3l4-93.8l2.2-0.3l-0.7-31c1.9,0.3,3.5,0.4,4.8,0.4 c2,0,3.7-1.3,4.1-3.2c3.8-16.1-0.9-32.2-3.2-38.5c-0.6-1.7-1.9-3.2-3.6-3.9l-12.4-5.5l-1.6-2.5l-0.4-3.8c-0.1-1.1,0.3-2.3,1-3.1 c0.5-0.6,0.9-1.2,1-2l0.8-4.6c0,0,0,0,0,0c1.6,0,2.8-1.4,2.8-3.1c0-1.2-0.6-2.2-1.4-2.7c4.3-13.3-2.7-16.1-2.7-16.1 c-13.3-5.5-18.2,3-18.2,3c-3.7-0.6-3.3,4.6-3.3,4.6l-0.2,6c0,0.7,0,1.5,0.1,2.2c-1.3,0.3-2.2,1.5-2.2,3c0,1.7,1.3,3.1,2.8,3.1 c0.2,0,0.5,0,0.7-0.1l1.1,4.7c0.1,0.6,0.4,1.1,0.8,1.5l0.8,0.9c0.5,0.6,0.7,1.3,0.7,2l-0.5,4.6l-1.7,2.2l-12.7,5.6 c-1.7,0.8-3,2.2-3.6,3.9c-2.2,6.3-6.9,22.4-3.2,38.5c0.4,1.9,2.1,3.2,4.1,3.2c1.2,0,2.8-0.1,4.8-0.4l-0.7,31l2.2,0.3l4,93.8 c0,0-6.8,5.6-15.9,6.3c0,0-2.4,0.1-1.6,2.7c0,0,4,2,15.3,1c11.2-1,13.8-0.9,13.8-0.9l-3-8.5l1.2-2.9l-1.4-4.5l6.5-81.7l6.5,81.7 l-1.4,4.5l1.2,2.9l-3,8.5c0,0,2.6-0.1,13.8,0.9c11.2,1,15.3-1,15.3-1C145.8,279.9,143.4,279.7,143.4,279.7z"></path> </g> <g> <g> <path class="st3" d="M128.2,287.6c0,0.4,2.4,8,0.8,8.4c-1.6,0.4-5.6,0.4-6.4,0c-0.8-0.4-1.6-0.4-3.2,0.4c-1.6,0.8-16,1.2-16.8,0 c-0.8-1.2,11.2-4,16-8.4C123.4,283.6,128.2,287.6,128.2,287.6z"></path> </g> <g> <path class="st3" d="M153.9,292.4c0,0,8,5.2,7.6,6.8c-0.4,1.6-10.4,2.8-14.4,1.6c-4-1.2-6-1.6-3.2-4.8 C146.7,292.8,149.5,290.4,153.9,292.4z"></path> </g> <g> <defs> <path id="XMLID_4_" d="M155.1,168.1c0,0,3.6,30.1,1.6,46.5c-2,16.4,2.4,38.5,0.8,47.3c-1.6,8.8-3.6,28.9-1.2,31.3 c0,0-7.6,4.4-10.4,0c0,0-6-36.9-7.6-49.7c-1.6-12.8-8-61-9.6-61.4c-1.6-0.4,4,50.9,2.8,61.4c-1.2,10.4-2.8,39.3-1.6,45.7 c0,0-9.6,2.8-12.4-0.4c0,0,0.8-32.1,0-40.1c-0.8-8-11.2-59.8-6.4-75.8C115.8,156.8,140.6,127.2,155.1,168.1z"></path> </defs> <use xlink:href="#XMLID_4_" style="overflow:visible;fill:#506AC1;"></use> <clipPath id="XMLID_6_"> <use xlink:href="#XMLID_4_" style="overflow:visible;"></use> </clipPath> <path class="st4" d="M159.5,188.1c0,0-24.5-1.3-31.7-16.7c-7.2-15.4,0,0,0,0s-17.2,18.3-24.9,12.7s28.5-30.1,28.5-30.1 S163.1,171.3,159.5,188.1z"></path> </g> <g> <defs> <path id="XMLID_3_" d="M146,81h-16.4L111,91.9l-3,29.3c0,0,2.8,47.3-1.2,56.2s15.2-1.2,17.2-4c2-2.8,4-8,4-8s-2,8,9.6,12.8 c11.6,4.8,25.7,7.2,24.9,5.6c-0.8-1.6-4.8-22.1-5.6-26.9c-0.8-4.8,0.4-28.1,0.4-28.1S170.7,91.9,146,81z"></path> </defs> <use xlink:href="#XMLID_3_" style="overflow:visible;fill:#506AC1;"></use> <clipPath id="XMLID_7_"> <use xlink:href="#XMLID_3_" style="overflow:visible;"></use> </clipPath> <path class="st5" d="M106.1,135c0,0,8-1.6,10.8-2.4c0,0,40.5,18.1,47.3,13.6c6.8-4.4-18.9-12-18.9-12l-36.5-10.4L106.1,135z"></path> <path class="st5" d="M156.7,106.1c-0.6,0-4,14.7-7.6,14.8c-3.6,0.1-10.8,0.1-10.8,0.1l-1.2-2c0,0-15.8-0.9-17.6-1.2 c-4.8-0.8-6-17-6-17s-7.2,13.4-8,16.2c-0.8,2.8,3.2,9.4,3.2,9.4s43.7,9.1,47.7,1.5C160.3,120.1,163.1,106.5,156.7,106.1z"></path> </g> <g> <defs> <path id="XMLID_2_" d="M144.6,71.4c0,0.4,0,7.6,1.6,9.6c1.6,2-8,2.4-8,2.4l-7.1-4.9c0,0,1.5-6.7,1.1-10 C131.8,65.4,144.6,71.4,144.6,71.4z"></path> </defs> <use xlink:href="#XMLID_2_" style="overflow:visible;fill:#FDAB7D;"></use> <clipPath id="XMLID_8_"> <use xlink:href="#XMLID_2_" style="overflow:visible;"></use> </clipPath> <ellipse class="st6" cx="139" cy="66.6" rx="10.8" ry="10.4"></ellipse> </g> <ellipse class="st7" cx="139" cy="58" rx="12.8" ry="17"></ellipse> <path class="st8" d="M151.9,57l1.2-1.6c0,0,0.8-10-1.2-12.8c-2-2.8-8.8-8.4-14-9.2c-7.6-1.2-3.2,6.8-7.2,5.2 c-4-1.6-8.8,3.2-7.2,8.4c1.6,5.2,2.8,10.8,2.8,10.8s-0.4-9.2,1.6-8.4c2,0.8,6.4,4.4,12-0.4C142.7,46.5,151.1,43.7,151.9,57z"></path> <path class="st7" d="M150.9,57.9c-0.6,2-0.1,3.9,0.9,4.2c1.1,0.3,2.4-1.1,2.9-3.1c0.6-2,0.1-3.9-0.9-4.2 C152.8,54.5,151.5,55.9,150.9,57.9z"></path> <path class="st7" d="M127.5,57.9c0.6,2,0.1,3.9-0.9,4.2c-1.1,0.3-2.4-1.1-2.9-3.1c-0.6-2-0.1-3.9,0.9-4.2 C125.7,54.5,127,55.9,127.5,57.9z"></path> <g> <defs> <polygon id="XMLID_1_" points="145.8,78.2 147.5,83.4 139,113.1 132.2,132.6 127.8,97.1 128.7,82.9 130.6,78.2 137.8,82.6 "></polygon> </defs> <use xlink:href="#XMLID_1_" style="overflow:visible;fill:#FDFEFD;"></use> <clipPath id="XMLID_9_"> <use xlink:href="#XMLID_1_" style="overflow:visible;"></use> </clipPath> <path class="st9" d="M138.2,82.6c0,0,3.2,4,2.4,4.4c-0.8,0.4-1.6,1.6-2.8,1.6s-2.8-2-2.8-2L138.2,82.6z"></path> <polygon class="st9" points="137.8,88.6 138,104.5 134.1,122 131.8,117.1 132.2,103.9 "></polygon> </g> <path class="st10" d="M146.3,80.2c0,0,10.4,12.8,8,13.2s-6.4,2-5.6,4c0.8,2,4.8,7.2-1.6,10.8c-6.4,3.6-16.4,24.1-17.6,45.3 C129.4,153.6,131.7,103.7,146.3,80.2z"></path> <path class="st10" d="M129.8,80.2c0,0-12.8,10.5-10.5,11.4c2.2,0.9,5.8,3.4,4.5,5.2c-1.2,1.8-6.4,5.9-1,10.9 c5.4,5,10.4,27.2,6.6,48.2C129.5,156,138.5,106.4,129.8,80.2z"></path> <polygon class="st11" points="132.6,119.8 138,119.9 135.3,127.6 129.6,127.2 "></polygon> <path class="st7" d="M137.6,121.1c0,0,10.9-2.5,15.3,0.4c4.4,2.8-0.4,9.7-6.5,8.5c-6-1.2-11.6-2-11.6-2L137.6,121.1z"></path> <path class="st12" d="M149.5,83.8c-2.4-3.1-3.4-2.7-1.6-2.4c4.3,0.8,17.5,8.2,20.7,13.6c3.5,5.9,4.4,36.5-6.4,44.5 c-9,6.7-47.3-8.8-47.3-8.8l9.6-4c0,0,17.6,1.2,22.9,2.4s7.7-19.1,8.6-21.3C162.3,92.7,149.5,83.8,149.5,83.8z"></path> <path class="st12" d="M127.8,81.8c0,0-17.9,6.4-22.7,13.2c-4.8,6.8-12,27.7-10.8,32.9c1.2,5.2,15.2,7.2,35.3-0.8l3.2-8 c0,0-18.9,3.1-19.3,0.8C109.7,93.5,127.8,81.8,127.8,81.8z"></path> <path class="st7" d="M117.4,120.3c0,0-3.2-5.4-8.4-7.4c-3.2-1.2-8.2-0.2-8.6,3c-0.4,3.2,4.2,5.3,7.7,4.9 C111.6,120.3,117.4,120.3,117.4,120.3z"></path> <path class="st8" d="M151.5,53.7c0,0-1.2,11.9-6.2,11.9s-6.8-2.3-11.7,0c-5,2.3-7.4-10.9-7.4-10.9l-0.7-0.3c0,0,1.8,5,0.9,7.7 c0,0-0.5,9,0.9,10.4c1.4,1.4,10.8,6.3,13.1,5.9s11.7-6.3,12.2-7.7c0.5-1.4-0.5-9-0.5-9s-0.5-5,0.5-7.7 C153.4,51.2,151.5,53.7,151.5,53.7z"></path> </g> <path class="st13" d="M279.4,271.9l-95.8-94.3l18.8-19.1l95.8,94.3c5.3,5.2,5.3,13.7,0.2,18.9l0,0 C293.1,277,284.7,277.1,279.4,271.9z"></path> <g> <path class="st14" d="M273.8,271.9l-62.2-61.2l24.3-24.7l62.2,61.2c6.8,6.7,6.9,17.7,0.2,24.5l0,0 C291.6,278.6,280.6,278.7,273.8,271.9z"></path> </g> <g> <path class="st13" d="M71.3,168.7C34.9,132.8,34.4,74,70.3,37.6C106.1,1.1,165,0.6,201.4,36.5c36.4,35.9,36.9,94.7,1.1,131.1 C166.6,204.1,107.8,204.6,71.3,168.7z M192.4,45.7c-31.4-30.9-82-30.5-112.9,0.9s-30.5,82,0.9,112.9s82,30.5,112.9-0.9 S223.7,76.6,192.4,45.7z"></path> </g> </g> </g> </svg> 