<?xml version="1.0" encoding="UTF-8"?> <svg xmlns="http://www.w3.org/2000/svg" xmlns:xlink="http://www.w3.org/1999/xlink" version="1.1" id="Layer_1" x="0px" y="0px" width="23.667px" height="39.667px" viewBox="8.606 13.886 23.667 39.667" xml:space="preserve"> <defs> <filter id="Adobe_OpacityMaskFilter" filterUnits="userSpaceOnUse"> <feColorMatrix type="matrix" values="1 0 0 0 0 0 1 0 0 0 0 0 1 0 0 0 0 0 1 0"></feColorMatrix> </filter> </defs> <mask maskUnits="userSpaceOnUse" id="alhusayni_1_"> <g id="alhusayni_copyOpacity_Mask_3_" filter="url(#Adobe_OpacityMaskFilter)"> <image overflow="visible" width="692" height="288" id="alhusayni_copyOpacity_Mask_2_" transform="matrix(0.131 0 0 0.131 9.4766 -826.3372)"> </image> </g> </mask> <g id="alhusayni" mask="url(#alhusayni_1_)"> </g> <g> <g id="Shape_2_copy_2_1_"> <g id="Shape_2_copy_2"> <g> <path fill="#E0A043" d="M27.44,45.778h-14v3.864l13.978,0.001C27.412,49.638,27.436,45.855,27.44,45.778z"></path> </g> </g> </g> <g id="TRADING_LIMITED_COmpany"> <g> <path fill="#FFFFFF" d="M24.776,40.383c0,0.603,0.208,1.157,0.674,1.157c0.52,0,1.091-0.231,1.506-0.785 c0.104-0.094,0.155-0.187,0.26-0.187c0.104,0,0.155,0.093,0.155,0.231c-0.208,1.342-1.402,2.73-2.7,2.73 c-1.61,0-2.44-0.925-3.063-1.758c-0.831,0.833-2.181,1.758-3.583,1.758c-2.024,0-4.517-1.157-4.517-7.498 c0-5.184,0.883-6.572,6.595-10.646c1.038-0.741,1.038-1.157,1.038-3.055c0-2.036-0.519-2.546-2.181-2.546 c-1.505,0-3.687,1.065-4.621,1.897c-0.104,0.093-0.26,0.139-0.415,0.139c-0.104,0-0.155-0.092-0.155-0.23 c0-0.557,2.96-3.796,5.867-3.796c1.87,0,5.14,1.018,5.14,5.785L24.776,40.383L24.776,40.383z M21.142,26.683h-0.104 c-2.855,2.175-3.687,3.795-3.687,8.516c0,5.276,0.572,6.341,1.713,6.341c1.142,0,2.077-1.434,2.077-2.73L21.142,26.683 L21.142,26.683z"></path> </g> </g> </g> </svg> 