<?xml version="1.0" encoding="UTF-8"?> <svg xmlns="http://www.w3.org/2000/svg" xmlns:xlink="http://www.w3.org/1999/xlink" version="1.1" id="Layer_1" x="0px" y="0px" width="61px" height="61px" viewBox="0 0 61 61" xml:space="preserve"> <g id="Shape_1_copy_1_"> <g id="Shape_1_copy"> <g> <path fill="#E58036" d="M30.5,1.121C14.274,1.121,1.122,14.275,1.122,30.5c0,16.225,13.152,29.379,29.378,29.379 c16.227,0,29.378-13.152,29.378-29.379C59.878,14.274,46.727,1.121,30.5,1.121z M30.5,57.734 c-15.042,0-27.236-12.191-27.236-27.233S15.458,3.263,30.5,3.263s27.234,12.194,27.234,27.236S45.542,57.734,30.5,57.734z"></path> </g> </g> </g> <g> <g id="Shape_2_copy_2_1_"> <g id="Shape_2_copy_2"> <g> <path fill="#FFFFFF" d="M38.855,44.894H22.145v4.612l16.685,0.002C38.821,49.501,38.851,44.985,38.855,44.894z"></path> </g> </g> </g> <g id="TRADING_LIMITED_COmpany"> <g> <path fill="#FFFFFF" d="M35.676,38.453c0,0.72,0.248,1.381,0.805,1.381c0.619,0,1.303-0.274,1.797-0.937 c0.126-0.112,0.187-0.222,0.311-0.222c0.125,0,0.184,0.109,0.184,0.275c-0.246,1.602-1.673,3.26-3.222,3.26 c-1.923,0-2.913-1.104-3.657-2.099c-0.992,0.995-2.604,2.099-4.276,2.099c-2.417,0-5.392-1.381-5.392-8.95 c0-6.186,1.055-7.845,7.871-12.707c1.241-0.885,1.241-1.381,1.241-3.646c0-2.43-0.621-3.04-2.604-3.04 c-1.797,0-4.4,1.272-5.516,2.265c-0.123,0.11-0.31,0.166-0.495,0.166c-0.125,0-0.186-0.109-0.186-0.275 c0-0.664,3.533-4.531,7.003-4.531c2.23,0,6.137,1.214,6.137,6.905V38.453L35.676,38.453z M31.337,22.101h-0.124 c-3.407,2.596-4.4,4.53-4.4,10.164c0,6.299,0.683,7.569,2.044,7.569c1.364,0,2.48-1.71,2.48-3.259V22.101L31.337,22.101z"></path> </g> </g> </g> </svg> 